<?xml version="1.0" encoding="utf-8"?>
<!-- Generator: Adobe Illustrator 27.4.1, SVG Export Plug-In . SVG Version: 6.00 Build 0)  -->
<svg version="1.1" xmlns="http://www.w3.org/2000/svg" xmlns:xlink="http://www.w3.org/1999/xlink" x="0px" y="0px"
	 viewBox="0 0 750 500" style="enable-background:new 0 0 750 500;" xml:space="preserve">
<style type="text/css">
	.st0{fill:#E2A805;}
	.st1{fill:#BF8A00;}
	.st2{fill:#FEC500;}
	.st3{fill:#383838;}
	.st4{fill:#6D6D6D;}
	.st5{fill:#565656;}
	.st6{fill:#494949;}
	.st7{fill:none;stroke:#FEC500;stroke-width:4;stroke-miterlimit:10;}
	.st8{fill:none;}
	.st9{fill:#E3ECC0;}
	.st10{fill:#C3D0D8;}
</style>
<g id="BACKGROUND">
</g>
<g id="OBJECTS">
	<g>
		<path class="st0" d="M275.1,267.9c0,5.4,11.8,0.3,17.8,0.3h60c5.9,0,13.7,4.7,13.7-0.8l-1.7-57.6v0l-21.4-45.3
			c-2.3-4.8-7.4-7.9-13.1-7.9h-37.5c-5.9,0-10.8,4.4-10.8,9.9L275.1,267.9z"/>
		<path class="st1" d="M267.8,268.5h91.4v-26.8h-84.3c-3.9,0-7.1,3.2-7.1,7.1V268.5z"/>
		<path class="st2" d="M363.1,273.6h93c3,0,5.5-2.5,5.5-5.5v-43.5c0-8.2-6.6-14.8-14.8-14.8h-83.7c-3,0-5.5,2.5-5.5,5.5v52.8
			C357.6,271.1,360.1,273.6,363.1,273.6z"/>
		<path class="st1" d="M517.1,267.3l10.8,55.1c0.4,1.9,1.3,3.7,2.6,5.1l12.3,13.8c1.4,1.6,0,4.1-2.1,3.7l-53.2-9l-9.1-77.2
			c-0.1-1.1,0.2-2.3,1-3.1l14.2-15.8c0.7-0.8,2-0.8,2.7,0.1l19.2,23.7C516.3,264.7,516.9,266,517.1,267.3z"/>
		<g>
			<g>
				<g>
					<path class="st3" d="M348.3,261.5c-0.3-1-1.8-1-2.1,0l-0.5,1.4l-1.6,4.5h3.1h3.1l-1.6-4.5L348.3,261.5z"/>
				</g>
				<g>
					<path class="st3" d="M338.7,261.5c-0.3-1-1.8-1-2.1,0l-0.5,1.4l-1.6,4.5h3.1h3.1l-1.6-4.5L338.7,261.5z"/>
				</g>
				<g>
					<path class="st3" d="M328.5,261.5c-0.3-1-1.8-1-2.1,0l-0.5,1.4l-1.6,4.5h3.1h3.1l-1.6-4.5L328.5,261.5z"/>
				</g>
				<g>
					<path class="st3" d="M318.9,261.5c-0.3-1-1.8-1-2.1,0l-0.5,1.4l-1.6,4.5h3.1h3.1l-1.6-4.5L318.9,261.5z"/>
				</g>
				<g>
					<path class="st3" d="M309.6,261.5c-0.3-1-1.8-1-2.1,0l-0.5,1.4l-1.6,4.5h3.1h3.1l-1.6-4.5L309.6,261.5z"/>
				</g>
				<g>
					<path class="st3" d="M300,261.5c-0.3-1-1.8-1-2.1,0l-0.5,1.4l-1.6,4.5h3.1h3.1l-1.6-4.5L300,261.5z"/>
				</g>
				<g>
					<path class="st3" d="M289.8,261.5c-0.3-1-1.8-1-2.1,0l-0.5,1.4l-1.6,4.5h3.1h3.1l-1.6-4.5L289.8,261.5z"/>
				</g>
				<g>
					<path class="st3" d="M279.3,262.6c-0.6-0.9-1.9-0.6-2.1,0.5l-0.2,1.5l-0.5,4.7l3-0.7l3-0.7l-2.5-4L279.3,262.6z"/>
				</g>
				<g>
					<path class="st3" d="M269.3,266c-0.8-0.7-2,0-1.8,1.1l0.3,1.5l0.9,4.6l2.7-1.6l2.7-1.6l-3.6-3.1L269.3,266z"/>
				</g>
				<g>
					<path class="st3" d="M261.4,271.2c-0.9-0.5-2,0.5-1.5,1.5l0.6,1.4l2,4.3l2.2-2.2l2.2-2.2l-4.2-2.1L261.4,271.2z"/>
				</g>
				<g>
					<path class="st3" d="M254.2,279c-1-0.2-1.8,1-1.1,1.8l0.9,1.2l3,3.7l1.6-2.6l1.6-2.6l-4.6-1L254.2,279z"/>
				</g>
				<g>
					<path class="st3" d="M249.3,288.3c-1.1,0-1.5,1.4-0.7,2l1.2,0.9l3.7,2.9l1-2.9l1-2.9l-4.7,0L249.3,288.3z"/>
				</g>
				<g>
					<path class="st3" d="M247.3,299.5c-1,0.3-1,1.8,0,2.1l1.4,0.5l4.5,1.6l0-3.1l0-3.1l-4.5,1.5L247.3,299.5z"/>
				</g>
				<g>
					<path class="st3" d="M431.9,266c0.8-0.7,2,0,1.8,1.1l-0.3,1.5l-0.9,4.6l-2.7-1.6l-2.7-1.6l3.6-3.1L431.9,266z"/>
				</g>
				<g>
					<path class="st3" d="M439.8,271.2c0.9-0.5,2,0.5,1.5,1.5l-0.6,1.4l-2,4.3l-2.2-2.2l-2.2-2.2l4.2-2.1L439.8,271.2z"/>
				</g>
				<g>
					<path class="st3" d="M447,279c1-0.2,1.8,1,1.1,1.8l-0.9,1.2l-3,3.7l-1.6-2.6l-1.6-2.6l4.6-1L447,279z"/>
				</g>
				<g>
					<path class="st3" d="M451.8,288.5c1.1,0,1.5,1.4,0.6,2l-1.2,0.9l-3.8,2.8l-0.9-3l-0.9-3l4.7,0.1L451.8,288.5z"/>
				</g>
				<g>
					<path class="st3" d="M453.9,300.1c1,0.3,1,1.8,0,2.1l-1.4,0.5l-4.5,1.6l0-3.1l0-3.1l4.5,1.5L453.9,300.1z"/>
				</g>
				<g>
					<path class="st3" d="M387.4,261.5c-0.3-1-1.8-1-2.1,0l-0.5,1.4l-1.6,4.5h3.1h3.1l-1.6-4.5L387.4,261.5z"/>
				</g>
				<g>
					<path class="st3" d="M377.8,261.5c-0.3-1-1.8-1-2.1,0l-0.5,1.4l-1.6,4.5h3.1h3.1l-1.6-4.5L377.8,261.5z"/>
				</g>
				<g>
					<path class="st3" d="M367.6,261.5c-0.3-1-1.8-1-2.1,0l-0.5,1.4l-1.6,4.5h3.1h3.1l-1.6-4.5L367.6,261.5z"/>
				</g>
				<g>
					<path class="st3" d="M358,261.5c-0.3-1-1.8-1-2.1,0l-0.5,1.4l-1.6,4.5h3.1h3.1l-1.6-4.5L358,261.5z"/>
				</g>
				<g>
					<path class="st3" d="M425.8,263.4c0-1.1-1.4-1.5-2-0.6l-0.9,1.2l-2.8,3.8l3,0.9l3,0.9l-0.2-4.7L425.8,263.4z"/>
				</g>
				<g>
					<path class="st3" d="M417,261.5c-0.3-1-1.8-1-2.1,0l-0.5,1.4l-1.6,4.5h3.1h3.1l-1.6-4.5L417,261.5z"/>
				</g>
				<g>
					<path class="st3" d="M406.8,261.5c-0.3-1-1.8-1-2.1,0l-0.5,1.4l-1.6,4.5h3.1h3.1l-1.6-4.5L406.8,261.5z"/>
				</g>
				<g>
					<path class="st3" d="M397.2,261.5c-0.3-1-1.8-1-2.1,0l-0.5,1.4l-1.6,4.5h3.1h3.1l-1.6-4.5L397.2,261.5z"/>
				</g>
				<g>
					<path class="st3" d="M352.9,340.7c0.3,1,1.8,1,2.1,0l0.5-1.4l1.6-4.5H354h-3.1l1.6,4.5L352.9,340.7z"/>
				</g>
				<g>
					<path class="st3" d="M362.6,340.7c0.3,1,1.8,1,2.1,0l0.5-1.4l1.6-4.5h-3.1h-3.1l1.6,4.5L362.6,340.7z"/>
				</g>
				<g>
					<path class="st3" d="M372.7,340.7c0.3,1,1.8,1,2.1,0l0.5-1.4l1.6-4.5h-3.1h-3.1l1.6,4.5L372.7,340.7z"/>
				</g>
				<g>
					<path class="st3" d="M382.3,340.7c0.3,1,1.8,1,2.1,0l0.5-1.4l1.6-4.5h-3.1h-3.1l1.6,4.5L382.3,340.7z"/>
				</g>
				<g>
					<path class="st3" d="M391.7,340.7c0.3,1,1.8,1,2.1,0l0.5-1.4l1.6-4.5h-3.1h-3.1l1.6,4.5L391.7,340.7z"/>
				</g>
				<g>
					<path class="st3" d="M401.3,340.7c0.3,1,1.8,1,2.1,0l0.5-1.4l1.6-4.5h-3.1h-3.1l1.6,4.5L401.3,340.7z"/>
				</g>
				<g>
					<path class="st3" d="M411.5,340.7c0.3,1,1.8,1,2.1,0l0.5-1.4l1.6-4.5h-3.1h-3.1l1.6,4.5L411.5,340.7z"/>
				</g>
				<g>
					<path class="st3" d="M421.9,339.7c0.6,0.9,1.9,0.6,2.1-0.5l0.2-1.5l0.5-4.7l-3,0.7l-3,0.7l2.5,4L421.9,339.7z"/>
				</g>
				<g>
					<path class="st3" d="M431.9,336.3c0.8,0.7,2,0,1.8-1.1l-0.3-1.5l-0.9-4.6l-2.7,1.6l-2.7,1.6l3.6,3.1L431.9,336.3z"/>
				</g>
				<g>
					<path class="st3" d="M439.8,331.1c0.9,0.5,2-0.5,1.5-1.5l-0.6-1.4l-2-4.3l-2.2,2.2l-2.2,2.2l4.2,2.1L439.8,331.1z"/>
				</g>
				<g>
					<path class="st3" d="M447,323.3c1,0.2,1.8-1,1.1-1.8l-0.9-1.2l-3-3.7l-1.6,2.6l-1.6,2.6l4.6,1L447,323.3z"/>
				</g>
				<g>
					<path class="st3" d="M451.9,313.6c1.1,0,1.5-1.4,0.6-2l-1.2-0.9l-3.8-2.8l-0.9,3l-0.9,3l4.7-0.2L451.9,313.6z"/>
				</g>
				<g>
					<path class="st3" d="M269.3,336.3c-0.8,0.7-2,0-1.8-1.1l0.3-1.5l0.9-4.6l2.7,1.6l2.7,1.6l-3.6,3.1L269.3,336.3z"/>
				</g>
				<g>
					<path class="st3" d="M261.4,331.1c-0.9,0.5-2-0.5-1.5-1.5l0.6-1.4l2-4.3l2.2,2.2l2.2,2.2l-4.2,2.1L261.4,331.1z"/>
				</g>
				<g>
					<path class="st3" d="M254.2,323.3c-1,0.2-1.8-1-1.1-1.8l0.9-1.2l3-3.7l1.6,2.6l1.6,2.6l-4.6,1L254.2,323.3z"/>
				</g>
				<g>
					<path class="st3" d="M249.3,313.9c-1.1,0-1.5-1.4-0.7-2l1.2-0.9l3.7-2.9l1,2.9l1,2.9l-4.7,0L249.3,313.9z"/>
				</g>
				<g>
					<path class="st3" d="M313.8,340.7c0.3,1,1.8,1,2.1,0l0.5-1.4l1.6-4.5h-3.1h-3.1l1.6,4.5L313.8,340.7z"/>
				</g>
				<g>
					<path class="st3" d="M323.4,340.7c0.3,1,1.8,1,2.1,0l0.5-1.4l1.6-4.5h-3.1h-3.1l1.6,4.5L323.4,340.7z"/>
				</g>
				<g>
					<path class="st3" d="M333.6,340.7c0.3,1,1.8,1,2.1,0l0.5-1.4l1.6-4.5h-3.1h-3.1l1.6,4.5L333.6,340.7z"/>
				</g>
				<g>
					<path class="st3" d="M343.2,340.7c0.3,1,1.8,1,2.1,0l0.5-1.4l1.6-4.5h-3.1h-3.1l1.6,4.5L343.2,340.7z"/>
				</g>
				<g>
					<path class="st3" d="M275.4,338.9c0,1.1,1.4,1.5,2,0.6l0.9-1.2l2.8-3.8l-3-0.9l-3-0.9l0.2,4.7L275.4,338.9z"/>
				</g>
				<g>
					<path class="st3" d="M284.2,340.7c0.3,1,1.8,1,2.1,0l0.5-1.4l1.6-4.5h-3.1h-3.1l1.6,4.5L284.2,340.7z"/>
				</g>
				<g>
					<path class="st3" d="M294.4,340.7c0.3,1,1.8,1,2.1,0l0.5-1.4l1.6-4.5h-3.1h-3.1l1.6,4.5L294.4,340.7z"/>
				</g>
				<g>
					<path class="st3" d="M304,340.7c0.3,1,1.8,1,2.1,0l0.5-1.4l1.6-4.5h-3.1H302l1.6,4.5L304,340.7z"/>
				</g>
			</g>
			<g>
				<g>
					<path class="st3" d="M252.8,301.6c0,0.7,0,1.3,0.1,1.9c0.1,1.6,0.3,3.1,0.6,4.6c0.4,2,1,4,1.7,5.8c0.4,1.1,0.9,2.1,1.4,3.2
						c0.9,1.7,1.9,3.4,3.1,4.9c0.7,1,1.5,1.9,2.4,2.9c1.2,1.4,2.6,2.6,4.1,3.8c0.7,0.6,1.5,1.1,2.3,1.6c1.5,1,3.1,1.9,4.8,2.6
						c0.6,0.3,1.3,0.5,1.9,0.8c1.7,0.7,3.5,1.1,5.4,1.5c0.6,0.1,1.2,0.2,1.8,0.3c1.5,0.2,3,0.3,4.6,0.3h126.7c0.5,0,1.1,0,1.6,0
						c1.3-0.1,2.6-0.2,3.9-0.4c1.8-0.3,3.6-0.7,5.3-1.3c1.1-0.4,2.2-0.8,3.2-1.3c1.7-0.8,3.4-1.7,5-2.8c0.7-0.5,1.4-1,2-1.5
						c1.5-1.2,3-2.5,4.3-4c0.8-0.8,1.5-1.7,2.1-2.6c1.2-1.6,2.3-3.4,3.2-5.2c0.6-1.3,1.2-2.6,1.6-4l0,0c0.3-1,0.6-1.9,0.9-2.9
						c0,0,0-0.1,0-0.1c0.6-2.6,1-5.3,1-8.1c0-9.4-3.8-18-10-24.2c-1.6-1.6-3.4-3.1-5.3-4.3c0,0-0.1,0-0.1-0.1
						c-1.1-0.7-2.2-1.4-3.4-2c0,0,0,0,0,0c-4.6-2.3-9.8-3.6-15.3-3.6H287c-1.5,0-3,0.1-4.5,0.3c-2,0.3-4,0.7-5.9,1.3
						c-0.9,0.3-1.8,0.6-2.6,1c-1.9,0.8-3.7,1.7-5.4,2.8c-0.6,0.4-1.2,0.8-1.7,1.2c-1.6,1.2-3.2,2.5-4.6,4c-0.7,0.8-1.4,1.5-2.1,2.4
						c-1.3,1.6-2.4,3.3-3.4,5.1c-0.5,0.9-1,1.9-1.4,2.8h0v0c-0.7,1.5-1.2,3.1-1.6,4.8c0,0,0,0,0,0.1c-0.4,1.4-0.6,2.9-0.8,4.4
						C252.9,298.9,252.8,300.2,252.8,301.6z M445.6,301.6c0,17.6-14.3,31.9-31.9,31.9H287c-17.6,0-31.9-14.3-31.9-31.9
						c0-17.6,14.3-31.9,31.9-31.9h126.7C431.3,269.7,445.6,284,445.6,301.6z"/>
					<path d="M254.7,301.6c0,17.8,14.5,32.3,32.3,32.3h126.6c17.8,0,32.3-14.5,32.3-32.3c0-17.8-14.5-32.3-32.3-32.3H287
						C269.2,269.3,254.7,283.8,254.7,301.6z M287,333.1c-17.4,0-31.5-14.1-31.5-31.5c0-17.3,14.1-31.5,31.5-31.5h126.6
						c17.4,0,31.5,14.1,31.5,31.5c0,17.4-14.1,31.5-31.5,31.5H287z M254.7,301.6c0,17.8,14.5,32.3,32.3,32.3h126.6
						c17.8,0,32.3-14.5,32.3-32.3c0-17.8-14.5-32.3-32.3-32.3H287C269.2,269.3,254.7,283.8,254.7,301.6z M287,333.1
						c-17.4,0-31.5-14.1-31.5-31.5c0-17.3,14.1-31.5,31.5-31.5h126.6c17.4,0,31.5,14.1,31.5,31.5c0,17.4-14.1,31.5-31.5,31.5H287z
						 M252.4,301.6c0,0.6,0,1.2,0,1.8c0.1,1.7,0.3,3.4,0.6,5.1c0.4,1.9,0.9,3.7,1.6,5.5c0.5,1.2,1,2.4,1.6,3.5
						c0.8,1.6,1.8,3.2,2.9,4.6c0.8,1.1,1.7,2.2,2.7,3.2c1.2,1.3,2.5,2.5,3.9,3.5c0.8,0.7,1.7,1.3,2.6,1.9c1.5,0.9,3,1.8,4.6,2.5
						c0.8,0.4,1.5,0.7,2.3,0.9c1.6,0.6,3.3,1.1,5.1,1.4c0.7,0.2,1.5,0.3,2.3,0.4c1.5,0.2,2.9,0.3,4.4,0.3h126.6c0.5,0,1,0,1.5,0
						c1.5-0.1,2.9-0.2,4.3-0.5c1.7-0.3,3.4-0.7,5-1.2c1.2-0.4,2.5-0.9,3.6-1.4c1.6-0.8,3.2-1.6,4.7-2.6c0.8-0.5,1.6-1.1,2.3-1.7
						c1.5-1.1,2.8-2.4,4-3.8c0.8-0.9,1.6-1.9,2.4-2.9c1.2-1.6,2.2-3.2,3-5c0.5-1,1-2.1,1.4-3.2c0.7-1.8,1.3-3.8,1.6-5.7
						c0.3-1.3,0.4-2.6,0.5-3.9c0.1-0.9,0.1-1.7,0.1-2.6c0-1.2-0.1-2.4-0.2-3.5c-0.1-1.3-0.3-2.5-0.6-3.8v0c-0.4-2-1.1-4-1.8-5.9
						c-0.4-1-0.8-1.9-1.4-2.9c-0.9-1.8-2-3.5-3.3-5.1c0,0,0,0,0-0.1v0c-0.6-0.8-1.3-1.6-2-2.4c-1.4-1.5-2.9-2.8-4.5-4
						c-0.6-0.4-1.2-0.9-1.8-1.3c-1.7-1.1-3.4-2-5.3-2.8c-0.4-0.2-0.9-0.4-1.4-0.5c-1.9-0.7-3.8-1.3-5.8-1.7
						c-0.4-0.1-0.8-0.2-1.2-0.2h0c-1.7-0.3-3.5-0.4-5.4-0.4H287c-0.4,0-0.8,0-1.3,0c-1.2,0-2.3,0.1-3.5,0.3
						c-1.9,0.3-3.8,0.7-5.6,1.2c-1,0.3-2,0.7-3,1.1c-1.8,0.7-3.5,1.6-5.1,2.7c-0.7,0.4-1.4,0.9-2.1,1.4c-1.5,1.1-3,2.4-4.3,3.8
						c-0.8,0.9-1.6,1.8-2.3,2.7c-1.2,1.5-2.3,3.1-3.2,4.9c-0.6,1-1.1,2.1-1.5,3.2c-0.8,1.8-1.4,3.7-1.8,5.7
						c-0.3,1.2-0.5,2.5-0.6,3.7C252.5,299,252.4,300.3,252.4,301.6z M253.2,301.6c0-18.6,15.1-33.8,33.8-33.8h126.6
						c18.6,0,33.8,15.1,33.8,33.8c0,8.6-3.3,16.5-8.6,22.5c-1.4,1.5-2.9,2.9-4.5,4.2c-0.5,0.4-1.1,0.9-1.7,1.2
						c-1.6,1.1-3.4,2.1-5.2,2.9c-0.9,0.4-1.9,0.8-2.8,1.1c-1.8,0.6-3.7,1.1-5.6,1.4c-1.1,0.2-2.3,0.3-3.5,0.4c-0.6,0-1.2,0-1.8,0
						H287c-1.6,0-3.2-0.1-4.8-0.3c-0.5-0.1-0.9-0.1-1.4-0.2c-2-0.4-3.9-0.9-5.7-1.6c-0.5-0.2-1-0.4-1.5-0.6
						c-1.8-0.8-3.5-1.7-5.1-2.8c-0.7-0.4-1.3-0.9-2-1.4c-1.6-1.2-3-2.5-4.3-3.9c-0.8-0.8-1.5-1.7-2.1-2.6c-1.2-1.6-2.3-3.3-3.2-5.2
						C254.5,312.2,253.2,307.1,253.2,301.6z M254.7,301.6c0,17.8,14.5,32.3,32.3,32.3h126.6c17.8,0,32.3-14.5,32.3-32.3
						c0-17.8-14.5-32.3-32.3-32.3H287C269.2,269.3,254.7,283.8,254.7,301.6z M287,333.1c-17.4,0-31.5-14.1-31.5-31.5
						c0-17.3,14.1-31.5,31.5-31.5h126.6c17.4,0,31.5,14.1,31.5,31.5c0,17.4-14.1,31.5-31.5,31.5H287z M254.7,301.6
						c0,17.8,14.5,32.3,32.3,32.3h126.6c17.8,0,32.3-14.5,32.3-32.3c0-17.8-14.5-32.3-32.3-32.3H287
						C269.2,269.3,254.7,283.8,254.7,301.6z M287,333.1c-17.4,0-31.5-14.1-31.5-31.5c0-17.3,14.1-31.5,31.5-31.5h126.6
						c17.4,0,31.5,14.1,31.5,31.5c0,17.4-14.1,31.5-31.5,31.5H287z M254.7,301.6c0,17.8,14.5,32.3,32.3,32.3h126.6
						c17.8,0,32.3-14.5,32.3-32.3c0-17.8-14.5-32.3-32.3-32.3H287C269.2,269.3,254.7,283.8,254.7,301.6z M287,333.1
						c-17.4,0-31.5-14.1-31.5-31.5c0-17.3,14.1-31.5,31.5-31.5h126.6c17.4,0,31.5,14.1,31.5,31.5c0,17.4-14.1,31.5-31.5,31.5H287z"
						/>
					<path class="st4" d="M255.5,301.6c0,17.4,14.1,31.5,31.5,31.5h126.6c17.4,0,31.5-14.1,31.5-31.5c0-17.3-14.1-31.5-31.5-31.5
						H287C269.7,270.1,255.5,284.3,255.5,301.6z"/>
				</g>
			</g>
		</g>
		
			<rect x="302.5" y="291.4" transform="matrix(-1 -4.490998e-11 4.490998e-11 -1 700.1163 593.7152)" class="st5" width="95" height="11"/>
		<g>
			
				<ellipse transform="matrix(0.9821 -0.1886 0.1886 0.9821 -51.892 58.7108)" class="st6" cx="282.6" cy="302.1" rx="15.5" ry="15.5"/>
			<g>
				<path class="st2" d="M276.9,302.1c0,3.1,2.5,5.6,5.7,5.6c3.1,0,5.6-2.5,5.6-5.6c0-3.1-2.5-5.7-5.6-5.7
					C279.4,296.5,276.9,299,276.9,302.1z M278.2,302.1c0-2.4,2-4.4,4.4-4.4c2.4,0,4.4,2,4.4,4.4c0,2.4-2,4.4-4.4,4.4
					C280.1,306.5,278.2,304.5,278.2,302.1z"/>
				<path class="st3" d="M278.2,302.1c0,2.4,2,4.4,4.4,4.4c2.4,0,4.4-2,4.4-4.4c0-2.4-2-4.4-4.4-4.4
					C280.1,297.8,278.2,299.7,278.2,302.1z"/>
				<path class="st2" d="M259.6,299.5l2.4,1.9c0,0.3,0,0.6,0,0.9c0,0.8,0.1,1.6,0.1,2.3l-2.1,2.1l-0.8,0.8c-0.6,0.6-0.1,2.1,0.7,2.3
					l1.2,0.2l2.6,0.5c0.4,1,0.9,1.9,1.5,2.8l-0.9,2.8l-0.3,1.1c-0.2,0.8,0.9,1.9,1.7,1.7l1.1-0.3l2.4-0.7c1.2,1.1,2.6,2,4.1,2.7
					l0.5,2.8l0.2,1.2c0.1,0.8,1.6,1.3,2.3,0.8l0.9-0.8l2.1-2c1.1,0.2,2.2,0.3,3.4,0.3c0.4,0,0.8,0,1.2-0.1l2,2.3l0.8,0.9
					c0.5,0.6,2.1,0.3,2.3-0.5l0.3-1.1l0.9-3c0.8-0.3,1.6-0.7,2.4-1.1l3.4,1l1.1,0.3c0.8,0.2,1.9-0.9,1.7-1.7l-0.3-1.1l-0.8-2.5
					c0.5-0.5,0.9-1,1.3-1.5l3.4,0.1l1.2,0c0.8,0,1.6-1.4,1.2-2.1l-0.6-1l-1.9-3c0.2-0.5,0.3-1.1,0.5-1.7l2.8-1.2l1.1-0.5
					c0.8-0.3,0.9-1.9,0.2-2.4l-1-0.6l-2.5-1.6c-0.1-1.2-0.2-2.3-0.5-3.4l2-2.3l0.8-0.9c0.5-0.6,0-2.1-0.9-2.2l-1.2-0.1l-3.2-0.4
					c-0.6-0.9-1.2-1.8-1.8-2.6l0.8-2.6l0.3-1.1c0.2-0.8-0.9-1.9-1.7-1.7l-1.1,0.3l-3.1,0.9c-1-0.6-2-1.2-3.1-1.6l-0.9-2.9l-0.3-1.1
					c-0.2-0.8-1.8-1.1-2.3-0.5l-0.8,0.9l-1.8,2.1c-0.6-0.1-1.2-0.1-1.8-0.1c-1.4,0-2.8,0.1-4.1,0.4l-1.9-1.9l-0.8-0.8
					c-0.6-0.6-2.1-0.1-2.3,0.7l-0.2,1.2l-0.6,3c-1.6,0.9-3,1.9-4.3,3.2l-2.4-0.7l-1.1-0.3c-0.8-0.2-1.9,0.9-1.7,1.7l0.3,1.1l1,3.2
					c-0.5,0.9-0.9,1.8-1.2,2.7l-3.1,1l-1.1,0.4c-0.8,0.3-1.1,1.8-0.4,2.3L259.6,299.5z M263.2,302.3c0-10.6,8.7-19.3,19.3-19.3
					c10.6,0,19.3,8.7,19.3,19.3c0,10.6-8.7,19.3-19.3,19.3C271.9,321.6,263.2,312.9,263.2,302.3z"/>
				<path class="st2" d="M267.2,296.2c-0.7,1.9-1.2,3.9-1.2,6c0,2.5,0.6,4.9,1.6,7l0,0.1l0,0c2.7,5.6,8.3,9.4,14.9,9.4
					c7,0,13-4.4,15.4-10.6l0.2-0.5c0.6-1.7,0.9-3.5,0.9-5.5c0-2.1-0.4-4.1-1.1-5.9l-0.6-1.4c-2.4-4.9-7.1-8.4-12.8-9.1l0,0v0
					c-0.7-0.1-1.3-0.1-2-0.1c-6.8,0-12.7,4.2-15.2,10.1L267.2,296.2z M268.3,297.9l5.4,3.1c0.2,0.1,0.5,0.7,0.5,1.4
					c0,0.7-0.2,1.2-0.4,1.4l-5.2,3.4l-0.8-4.4L268.3,297.9z M275.4,289.4l4.6-1.7l-0.4,6.2c0,0.3-0.4,0.7-1,1.1
					c-0.6,0.3-1.2,0.4-1.4,0.2v0l-5.4-3.2L275.4,289.4z M285.8,287.8l4.1,1.7l3.8,3.1l-5.5,2.9c-0.2,0.1-0.8,0.1-1.4-0.3
					c-0.6-0.4-0.9-0.9-0.9-1.1L285.8,287.8z M296.9,306.1l-5.4-3.1c-0.2-0.1-0.5-0.7-0.5-1.4c0-0.7,0.2-1.2,0.4-1.4l0,0l5.2-3.4
					l0.8,4.4L296.9,306.1z M285.5,316.4l0.2-6.2c0-0.3,0.3-0.7,1-1.1c0.6-0.4,1.2-0.4,1.4-0.3l5.5,3l-3.5,2.8L285.5,316.4z
					 M279,316.5l-4.1-1.8l-3.7-3.2l5.6-2.8c0.2-0.1,0.8-0.1,1.4,0.3c0.6,0.4,0.9,0.9,0.9,1.1L279,316.5z M268.7,308.5l5.7-3.7
					c0.7-0.4,1.1-1.4,1-2.5c0-1.1-0.5-2.1-1.2-2.5l-5.9-3.4c0.5-1.3,1.3-2.6,2.2-3.7l6,3.5c0.3,0.2,0.6,0.3,1,0.3
					c0.5,0,1.1-0.2,1.7-0.5c1-0.5,1.6-1.3,1.7-2.1l0.4-6.9c0.4,0,0.8-0.1,1.2-0.1c0.7,0,1.3,0.1,2,0.1l0,6.9c0,0.8,0.6,1.6,1.5,2.2
					c0.6,0.4,1.2,0.6,1.8,0.6c0.3,0,0.6-0.1,0.9-0.2l6.2-3.2c0.5,0.7,0.9,1.4,1.3,2.2l-5.5,3.5c-0.7,0.4-1.1,1.4-1,2.5
					c0,1.1,0.5,2.1,1.2,2.5l5.9,3.3c-0.5,1.3-1.1,2.5-1.9,3.6l-6.2-3.4c-0.7-0.4-1.7-0.3-2.7,0.3c-1,0.6-1.6,1.4-1.6,2.2l-0.2,7.2
					c-0.5,0.1-1.1,0.1-1.6,0.1c-0.8,0-1.5-0.1-2.3-0.2l0.1-6.9c0-0.8-0.6-1.6-1.5-2.2c-1-0.6-2-0.8-2.7-0.4l-6.2,3.1
					C269.5,310.1,269.1,309.3,268.7,308.5z"/>
			</g>
		</g>
		<g>
			
				<ellipse transform="matrix(0.5306 -0.8476 0.8476 0.5306 -60.8254 494.2812)" class="st6" cx="415.9" cy="302.1" rx="15.5" ry="15.5"/>
			<g>
				<path class="st2" d="M410.2,302.1c0,3.1,2.5,5.6,5.7,5.6c3.1,0,5.6-2.5,5.6-5.6c0-3.1-2.5-5.7-5.6-5.7
					C412.7,296.5,410.2,299,410.2,302.1z M411.4,302.1c0-2.4,2-4.4,4.4-4.4c2.4,0,4.4,2,4.4,4.4c0,2.4-2,4.4-4.4,4.4
					C413.4,306.5,411.4,304.5,411.4,302.1z"/>
				<path class="st3" d="M411.4,302.1c0,2.4,2,4.4,4.4,4.4c2.4,0,4.4-2,4.4-4.4c0-2.4-2-4.4-4.4-4.4
					C413.4,297.8,411.4,299.7,411.4,302.1z"/>
				<path class="st2" d="M392.9,299.5l2.4,1.9c0,0.3,0,0.6,0,0.9c0,0.8,0.1,1.6,0.1,2.3l-2.1,2.1l-0.8,0.8c-0.6,0.6-0.1,2.1,0.7,2.3
					l1.2,0.2l2.6,0.5c0.4,1,0.9,1.9,1.5,2.8l-0.9,2.8l-0.3,1.1c-0.2,0.8,0.9,1.9,1.7,1.7l1.1-0.3l2.4-0.7c1.2,1.1,2.6,2,4.1,2.7
					l0.5,2.8l0.2,1.2c0.1,0.8,1.6,1.3,2.3,0.8l0.9-0.8l2.1-2c1.1,0.2,2.2,0.3,3.4,0.3c0.4,0,0.8,0,1.2-0.1l2,2.3l0.8,0.9
					c0.5,0.6,2.1,0.3,2.3-0.5l0.3-1.1l0.9-3c0.8-0.3,1.6-0.7,2.4-1.1l3.4,1l1.1,0.3c0.8,0.2,1.9-0.9,1.7-1.7l-0.3-1.1l-0.8-2.5
					c0.5-0.5,0.9-1,1.3-1.5l3.4,0.1l1.2,0c0.8,0,1.6-1.4,1.2-2.1l-0.6-1l-1.9-3c0.2-0.5,0.3-1.1,0.5-1.7l2.8-1.2l1.1-0.5
					c0.8-0.3,0.9-1.9,0.2-2.4l-1-0.6l-2.5-1.6c-0.1-1.2-0.2-2.3-0.5-3.4l2-2.3l0.8-0.9c0.5-0.6,0-2.1-0.9-2.2l-1.2-0.1l-3.2-0.4
					c-0.6-0.9-1.2-1.8-1.8-2.6l0.8-2.6l0.3-1.1c0.2-0.8-0.9-1.9-1.7-1.7l-1.1,0.3l-3.1,0.9c-1-0.6-2-1.2-3.1-1.6l-0.9-2.9l-0.3-1.1
					c-0.2-0.8-1.8-1.1-2.3-0.5l-0.8,0.9l-1.8,2.1c-0.6-0.1-1.2-0.1-1.8-0.1c-1.4,0-2.8,0.1-4.1,0.4l-1.9-1.9l-0.8-0.8
					c-0.6-0.6-2.1-0.1-2.3,0.7l-0.2,1.2l-0.6,3c-1.6,0.9-3,1.9-4.3,3.2l-2.4-0.7l-1.1-0.3c-0.8-0.2-1.9,0.9-1.7,1.7l0.3,1.1l1,3.2
					c-0.5,0.9-0.9,1.8-1.2,2.7l-3.1,1l-1.1,0.4c-0.8,0.3-1.1,1.8-0.4,2.3L392.9,299.5z M396.5,302.3c0-10.6,8.7-19.3,19.3-19.3
					c10.6,0,19.3,8.7,19.3,19.3c0,10.6-8.7,19.3-19.3,19.3C405.2,321.6,396.5,312.9,396.5,302.3z"/>
				<path class="st2" d="M400.5,296.2c-0.7,1.9-1.2,3.9-1.2,6c0,2.5,0.6,4.9,1.6,7l0,0.1l0,0c2.7,5.6,8.3,9.4,14.9,9.4
					c7,0,13-4.4,15.4-10.6l0.2-0.5c0.6-1.7,0.9-3.5,0.9-5.5c0-2.1-0.4-4.1-1.1-5.9l-0.6-1.4c-2.4-4.9-7.1-8.4-12.8-9.1l0,0v0
					c-0.7-0.1-1.3-0.1-2-0.1c-6.8,0-12.7,4.2-15.2,10.1L400.5,296.2z M401.6,297.9l5.4,3.1c0.2,0.1,0.5,0.7,0.5,1.4
					c0,0.7-0.2,1.2-0.4,1.4l-5.2,3.4l-0.8-4.4L401.6,297.9z M408.7,289.4l4.6-1.7l-0.4,6.2c0,0.3-0.4,0.7-1,1.1
					c-0.6,0.3-1.2,0.4-1.4,0.2v0l-5.4-3.2L408.7,289.4z M419.1,287.8l4.1,1.7l3.8,3.1l-5.5,2.9c-0.2,0.1-0.8,0.1-1.4-0.3
					c-0.6-0.4-0.9-0.9-0.9-1.1L419.1,287.8z M430.2,306.1l-5.4-3.1c-0.2-0.1-0.5-0.7-0.5-1.4c0-0.7,0.2-1.2,0.4-1.4l0,0l5.2-3.4
					l0.8,4.4L430.2,306.1z M418.8,316.4l0.2-6.2c0-0.3,0.3-0.7,1-1.1c0.6-0.4,1.2-0.4,1.4-0.3l5.5,3l-3.5,2.8L418.8,316.4z
					 M412.3,316.5l-4.1-1.8l-3.7-3.2l5.6-2.8c0.2-0.1,0.8-0.1,1.4,0.3c0.6,0.4,0.9,0.9,0.9,1.1L412.3,316.5z M402,308.5l5.7-3.7
					c0.7-0.4,1.1-1.4,1-2.5c0-1.1-0.5-2.1-1.2-2.5l-5.9-3.4c0.5-1.3,1.3-2.6,2.2-3.7l6,3.5c0.3,0.2,0.6,0.3,1,0.3
					c0.5,0,1.1-0.2,1.7-0.5c1-0.5,1.6-1.3,1.7-2.1l0.4-6.9c0.4,0,0.8-0.1,1.2-0.1c0.7,0,1.3,0.1,2,0.1l0,6.9c0,0.8,0.6,1.6,1.5,2.2
					c0.6,0.4,1.2,0.6,1.8,0.6c0.3,0,0.6-0.1,0.9-0.2l6.2-3.2c0.5,0.7,0.9,1.4,1.3,2.2l-5.5,3.5c-0.7,0.4-1.1,1.4-1,2.5
					c0,1.1,0.5,2.1,1.2,2.5l5.9,3.3c-0.5,1.3-1.1,2.5-1.9,3.6l-6.2-3.4c-0.7-0.4-1.7-0.3-2.7,0.3c-1,0.6-1.6,1.4-1.6,2.2l-0.2,7.2
					c-0.5,0.1-1.1,0.1-1.6,0.1c-0.8,0-1.5-0.1-2.3-0.2l0.1-6.9c0-0.8-0.6-1.6-1.5-2.2c-1-0.6-2-0.8-2.7-0.4l-6.2,3.1
					C402.8,310.1,402.4,309.3,402,308.5z"/>
			</g>
		</g>
		<g>
			<g>
				<g>
					<path class="st2" d="M335.3,316.7c0,1.9,1.5,3.4,3.4,3.4c1.9,0,3.4-1.5,3.4-3.4c0-1.9-1.5-3.4-3.4-3.4
						C336.9,313.2,335.3,314.8,335.3,316.7z M336.1,316.7c0-1.5,1.2-2.7,2.7-2.7s2.7,1.2,2.7,2.7c0,1.5-1.2,2.7-2.7,2.7
						S336.1,318.1,336.1,316.7z"/>
				</g>
				<g>
					<path class="st2" d="M329.8,313.1c-0.4,1.1-0.7,2.3-0.7,3.5c0,1.5,0.3,2.8,0.9,4.1l0,0l0,0c1.5,3.3,4.9,5.5,8.7,5.5
						c4.1,0,7.6-2.6,9-6.2l0.1-0.3c0.4-1,0.6-2.1,0.6-3.2c0-1.2-0.2-2.4-0.7-3.5l-0.3-0.8c-1.4-2.9-4.2-4.9-7.5-5.3l0,0v0
						c-0.4,0-0.8-0.1-1.2-0.1c-4,0-7.4,2.5-8.9,5.9L329.8,313.1z M330.5,314.1l3.2,1.8c0.1,0.1,0.3,0.4,0.3,0.8
						c0,0.4-0.1,0.7-0.3,0.8l-3.1,2l-0.5-2.6L330.5,314.1z M334.6,309.1l2.7-1l-0.2,3.6c0,0.2-0.2,0.4-0.6,0.6
						c-0.4,0.2-0.7,0.2-0.8,0.1v0l-3.1-1.9L334.6,309.1z M340.7,308.2l2.4,1l2.2,1.8l-3.2,1.7c-0.1,0.1-0.5,0-0.8-0.2
						c-0.4-0.2-0.5-0.5-0.5-0.7L340.7,308.2z M347.2,318.9l-3.2-1.8c-0.1-0.1-0.3-0.4-0.3-0.8c0-0.4,0.1-0.7,0.3-0.8l0,0l3.1-2
						l0.5,2.6L347.2,318.9z M340.5,325l0.1-3.6c0-0.2,0.2-0.4,0.6-0.6c0.4-0.2,0.7-0.2,0.8-0.2l3.2,1.8l-2,1.6L340.5,325z
						 M336.7,325l-2.4-1l-2.2-1.8l3.3-1.6c0.1-0.1,0.5,0,0.8,0.2c0.4,0.2,0.5,0.5,0.5,0.7L336.7,325z M330.7,320.4l3.4-2.2
						c0.4-0.3,0.6-0.8,0.6-1.5c0-0.7-0.3-1.2-0.7-1.4l-3.4-2c0.3-0.8,0.7-1.5,1.3-2.2l3.5,2.1c0.2,0.1,0.4,0.2,0.6,0.2
						c0.3,0,0.6-0.1,1-0.3c0.6-0.3,1-0.8,1-1.2l0.2-4.1c0.2,0,0.5,0,0.7,0c0.4,0,0.8,0,1.2,0.1l0,4c0,0.5,0.3,1,0.9,1.3
						c0.4,0.2,0.7,0.3,1,0.3c0.2,0,0.4,0,0.5-0.1l3.6-1.9c0.3,0.4,0.5,0.8,0.8,1.3l-3.2,2.1c-0.4,0.3-0.6,0.8-0.6,1.5
						c0,0.7,0.3,1.2,0.7,1.4l3.4,2c-0.3,0.8-0.7,1.5-1.1,2.1l-3.6-2c-0.4-0.2-1-0.2-1.6,0.2c-0.6,0.3-0.9,0.8-0.9,1.3l-0.1,4.2
						c-0.3,0-0.6,0.1-1,0.1c-0.4,0-0.9,0-1.3-0.1l0.1-4c0-0.5-0.3-1-0.9-1.3c-0.6-0.4-1.2-0.4-1.6-0.2l-3.6,1.8
						C331.2,321.3,330.9,320.8,330.7,320.4z"/>
				</g>
				<g>
					<path class="st2" d="M328,316.7c0-5.9,4.8-10.8,10.8-10.8c5.9,0,10.8,4.8,10.8,10.8c0,5.9-4.8,10.8-10.8,10.8
						C332.8,327.4,328,322.6,328,316.7z M330.3,316.7c0,4.7,3.8,8.5,8.5,8.5c4.7,0,8.5-3.8,8.5-8.5s-3.8-8.5-8.5-8.5
						C334.1,308.2,330.3,312,330.3,316.7z"/>
				</g>
			</g>
		</g>
		<g>
			<g>
				<g>
					<path class="st2" d="M360.6,316.7c0,1.9,1.5,3.4,3.4,3.4c1.9,0,3.4-1.5,3.4-3.4c0-1.9-1.5-3.4-3.4-3.4
						C362.1,313.2,360.6,314.8,360.6,316.7z M361.4,316.7c0-1.5,1.2-2.7,2.7-2.7c1.5,0,2.7,1.2,2.7,2.7c0,1.5-1.2,2.7-2.7,2.7
						C362.5,319.3,361.4,318.1,361.4,316.7z"/>
				</g>
				<g>
					<path class="st2" d="M355,313.1c-0.4,1.1-0.7,2.3-0.7,3.5c0,1.5,0.3,2.8,0.9,4.1l0,0l0,0c1.6,3.3,4.9,5.5,8.7,5.5
						c4.1,0,7.6-2.6,9-6.2l0.1-0.3c0.4-1,0.6-2.1,0.6-3.2c0-1.2-0.2-2.4-0.7-3.5l-0.3-0.8c-1.4-2.9-4.2-4.9-7.5-5.3l0,0v0
						c-0.4,0-0.8-0.1-1.2-0.1c-4,0-7.4,2.5-8.9,5.9L355,313.1z M355.7,314.1l3.2,1.8c0.1,0.1,0.3,0.4,0.3,0.8c0,0.4-0.1,0.7-0.3,0.8
						l-3.1,2l-0.5-2.6L355.7,314.1z M359.9,309.1l2.7-1l-0.2,3.6c0,0.2-0.2,0.4-0.6,0.6c-0.4,0.2-0.7,0.2-0.8,0.1v0l-3.1-1.9
						L359.9,309.1z M365.9,308.2l2.4,1l2.2,1.8l-3.2,1.7c-0.1,0.1-0.5,0-0.8-0.2c-0.4-0.2-0.5-0.5-0.5-0.7L365.9,308.2z
						 M372.4,318.9l-3.2-1.8c-0.1-0.1-0.3-0.4-0.3-0.8c0-0.4,0.1-0.7,0.3-0.8l0,0l3.1-2l0.5,2.6L372.4,318.9z M365.7,325l0.1-3.6
						c0-0.2,0.2-0.4,0.6-0.6c0.4-0.2,0.7-0.2,0.8-0.2l3.2,1.8l-2,1.6L365.7,325z M361.9,325l-2.4-1l-2.2-1.8l3.3-1.6
						c0.1-0.1,0.5,0,0.8,0.2c0.4,0.2,0.5,0.5,0.5,0.7L361.9,325z M355.9,320.4l3.4-2.2c0.4-0.3,0.6-0.8,0.6-1.5
						c0-0.7-0.3-1.2-0.7-1.4l-3.4-2c0.3-0.8,0.7-1.5,1.3-2.2l3.5,2.1c0.2,0.1,0.4,0.2,0.6,0.2c0.3,0,0.6-0.1,1-0.3
						c0.6-0.3,1-0.8,1-1.2l0.2-4.1c0.2,0,0.5,0,0.7,0c0.4,0,0.8,0,1.2,0.1l0,4c0,0.5,0.3,1,0.9,1.3c0.4,0.2,0.7,0.3,1,0.3
						c0.2,0,0.4,0,0.5-0.1l3.6-1.9c0.3,0.4,0.5,0.8,0.8,1.3l-3.2,2.1c-0.4,0.3-0.6,0.8-0.6,1.5c0,0.7,0.3,1.2,0.7,1.4l3.4,2
						c-0.3,0.8-0.7,1.5-1.1,2.1l-3.6-2c-0.4-0.2-1-0.2-1.6,0.2c-0.6,0.3-0.9,0.8-0.9,1.3l-0.1,4.2c-0.3,0-0.6,0.1-1,0.1
						c-0.4,0-0.9,0-1.3-0.1l0.1-4c0-0.5-0.3-1-0.9-1.3c-0.6-0.4-1.2-0.4-1.6-0.2l-3.6,1.8C356.4,321.3,356.2,320.8,355.9,320.4z"/>
				</g>
				<g>
					<path class="st2" d="M353.2,316.7c0-5.9,4.8-10.8,10.8-10.8c5.9,0,10.8,4.8,10.8,10.8c0,5.9-4.8,10.8-10.8,10.8
						C358.1,327.4,353.2,322.6,353.2,316.7z M355.5,316.7c0,4.7,3.8,8.5,8.5,8.5c4.7,0,8.5-3.8,8.5-8.5s-3.8-8.5-8.5-8.5
						C359.3,308.2,355.5,312,355.5,316.7z"/>
				</g>
			</g>
		</g>
		<g>
			<g>
				<g>
					<path class="st2" d="M385.8,316.7c0,1.9,1.5,3.4,3.4,3.4c1.9,0,3.4-1.5,3.4-3.4c0-1.9-1.5-3.4-3.4-3.4
						C387.3,313.2,385.8,314.8,385.8,316.7z M386.6,316.7c0-1.5,1.2-2.7,2.7-2.7c1.5,0,2.7,1.2,2.7,2.7c0,1.5-1.2,2.7-2.7,2.7
						C387.8,319.3,386.6,318.1,386.6,316.7z"/>
				</g>
				<g>
					<path class="st2" d="M380.3,313.1c-0.4,1.1-0.7,2.3-0.7,3.5c0,1.5,0.3,2.8,0.9,4.1l0,0l0,0c1.6,3.3,4.9,5.5,8.7,5.5
						c4.1,0,7.6-2.6,9-6.2l0.1-0.3c0.4-1,0.6-2.1,0.6-3.2c0-1.2-0.2-2.4-0.7-3.5l-0.3-0.8c-1.4-2.9-4.2-4.9-7.5-5.3l0,0v0
						c-0.4,0-0.8-0.1-1.2-0.1c-4,0-7.4,2.5-8.9,5.9L380.3,313.1z M380.9,314.1l3.2,1.8c0.1,0.1,0.3,0.4,0.3,0.8
						c0,0.4-0.1,0.7-0.3,0.8l-3.1,2l-0.5-2.6L380.9,314.1z M385.1,309.1l2.7-1l-0.2,3.6c0,0.2-0.2,0.4-0.6,0.6
						c-0.4,0.2-0.7,0.2-0.8,0.1v0l-3.1-1.9L385.1,309.1z M391.2,308.2l2.4,1l2.2,1.8l-3.2,1.7c-0.1,0.1-0.5,0-0.8-0.2
						c-0.4-0.2-0.5-0.5-0.5-0.7L391.2,308.2z M397.7,318.9l-3.2-1.8c-0.1-0.1-0.3-0.4-0.3-0.8c0-0.4,0.1-0.7,0.3-0.8l0,0l3.1-2
						l0.5,2.6L397.7,318.9z M391,325l0.1-3.6c0-0.2,0.2-0.4,0.6-0.6c0.4-0.2,0.7-0.2,0.8-0.2l3.2,1.8l-2,1.6L391,325z M387.2,325
						l-2.4-1l-2.2-1.8l3.3-1.6c0.1-0.1,0.5,0,0.8,0.2c0.4,0.2,0.5,0.5,0.5,0.7L387.2,325z M381.2,320.4l3.4-2.2
						c0.4-0.3,0.6-0.8,0.6-1.5c0-0.7-0.3-1.2-0.7-1.4l-3.4-2c0.3-0.8,0.7-1.5,1.3-2.2l3.5,2.1c0.2,0.1,0.4,0.2,0.6,0.2
						c0.3,0,0.6-0.1,1-0.3c0.6-0.3,1-0.8,1-1.2l0.2-4.1c0.2,0,0.5,0,0.7,0c0.4,0,0.8,0,1.2,0.1l0,4c0,0.5,0.3,1,0.9,1.3
						c0.4,0.2,0.7,0.3,1,0.3c0.2,0,0.4,0,0.5-0.1l3.6-1.9c0.3,0.4,0.5,0.8,0.8,1.3l-3.2,2.1c-0.4,0.3-0.6,0.8-0.6,1.5
						c0,0.7,0.3,1.2,0.7,1.4l3.4,2c-0.3,0.8-0.7,1.5-1.1,2.1l-3.6-2c-0.4-0.2-1-0.2-1.6,0.2c-0.6,0.3-0.9,0.8-0.9,1.3l-0.1,4.2
						c-0.3,0-0.6,0.1-1,0.1c-0.4,0-0.9,0-1.3-0.1l0.1-4c0-0.5-0.3-1-0.9-1.3c-0.6-0.4-1.2-0.4-1.6-0.2l-3.6,1.8
						C381.6,321.3,381.4,320.8,381.2,320.4z"/>
				</g>
				<g>
					<path class="st2" d="M378.5,316.7c0-5.9,4.8-10.8,10.8-10.8c5.9,0,10.8,4.8,10.8,10.8c0,5.9-4.8,10.8-10.8,10.8
						C383.3,327.4,378.5,322.6,378.5,316.7z M380.7,316.7c0,4.7,3.8,8.5,8.5,8.5c4.7,0,8.5-3.8,8.5-8.5s-3.8-8.5-8.5-8.5
						C384.6,308.2,380.7,312,380.7,316.7z"/>
				</g>
			</g>
		</g>
		<g>
			<g>
				<g>
					<path class="st2" d="M310.1,316.7c0,1.9,1.5,3.4,3.4,3.4c1.9,0,3.4-1.5,3.4-3.4c0-1.9-1.5-3.4-3.4-3.4
						C311.6,313.2,310.1,314.8,310.1,316.7z M310.9,316.7c0-1.5,1.2-2.7,2.7-2.7c1.5,0,2.7,1.2,2.7,2.7c0,1.5-1.2,2.7-2.7,2.7
						C312.1,319.3,310.9,318.1,310.9,316.7z"/>
				</g>
				<g>
					<path class="st2" d="M304.6,313.1c-0.4,1.1-0.7,2.3-0.7,3.5c0,1.5,0.3,2.8,0.9,4.1l0,0l0,0c1.6,3.3,4.9,5.5,8.7,5.5
						c4.1,0,7.6-2.6,9-6.2l0.1-0.3c0.4-1,0.6-2.1,0.6-3.2c0-1.2-0.2-2.4-0.7-3.5l-0.3-0.8c-1.4-2.9-4.2-4.9-7.5-5.3l0,0v0
						c-0.4,0-0.8-0.1-1.2-0.1c-4,0-7.4,2.5-8.9,5.9L304.6,313.1z M305.2,314.1l3.2,1.8c0.1,0.1,0.3,0.4,0.3,0.8
						c0,0.4-0.1,0.7-0.3,0.8l-3.1,2l-0.5-2.6L305.2,314.1z M309.4,309.1l2.7-1l-0.2,3.6c0,0.2-0.2,0.4-0.6,0.6
						c-0.4,0.2-0.7,0.2-0.8,0.1v0l-3.1-1.9L309.4,309.1z M315.4,308.2l2.4,1l2.2,1.8l-3.2,1.7c-0.1,0.1-0.5,0-0.8-0.2
						c-0.4-0.2-0.5-0.5-0.5-0.7L315.4,308.2z M322,318.9l-3.2-1.8c-0.1-0.1-0.3-0.4-0.3-0.8c0-0.4,0.1-0.7,0.3-0.8l0,0l3.1-2
						l0.5,2.6L322,318.9z M315.3,325l0.1-3.6c0-0.2,0.2-0.4,0.6-0.6c0.4-0.2,0.7-0.2,0.8-0.2l3.2,1.8l-2,1.6L315.3,325z M311.5,325
						l-2.4-1l-2.2-1.8l3.3-1.6c0.1-0.1,0.5,0,0.8,0.2c0.4,0.2,0.5,0.5,0.5,0.7L311.5,325z M305.5,320.4l3.4-2.2
						c0.4-0.3,0.6-0.8,0.6-1.5c0-0.7-0.3-1.2-0.7-1.4l-3.4-2c0.3-0.8,0.7-1.5,1.3-2.2l3.5,2.1c0.2,0.1,0.4,0.2,0.6,0.2
						c0.3,0,0.6-0.1,1-0.3c0.6-0.3,1-0.8,1-1.2l0.2-4.1c0.2,0,0.5,0,0.7,0c0.4,0,0.8,0,1.2,0.1l0,4c0,0.5,0.3,1,0.9,1.3
						c0.4,0.2,0.7,0.3,1,0.3c0.2,0,0.4,0,0.5-0.1l3.6-1.9c0.3,0.4,0.5,0.8,0.8,1.3l-3.2,2.1c-0.4,0.3-0.6,0.8-0.6,1.5
						c0,0.7,0.3,1.2,0.7,1.4l3.4,2c-0.3,0.8-0.7,1.5-1.1,2.1l-3.6-2c-0.4-0.2-1-0.2-1.6,0.2c-0.6,0.3-0.9,0.8-0.9,1.3l-0.1,4.2
						c-0.3,0-0.6,0.1-1,0.1c-0.4,0-0.9,0-1.3-0.1l0.1-4c0-0.5-0.3-1-0.9-1.3c-0.6-0.4-1.2-0.4-1.6-0.2l-3.6,1.8
						C305.9,321.3,305.7,320.8,305.5,320.4z"/>
				</g>
				<g>
					<path class="st2" d="M302.8,316.7c0-5.9,4.8-10.8,10.8-10.8c5.9,0,10.8,4.8,10.8,10.8c0,5.9-4.8,10.8-10.8,10.8
						C307.6,327.4,302.8,322.6,302.8,316.7z M305,316.7c0,4.7,3.8,8.5,8.5,8.5c4.7,0,8.5-3.8,8.5-8.5s-3.8-8.5-8.5-8.5
						C308.9,308.2,305,312,305,316.7z"/>
				</g>
			</g>
		</g>
		<path class="st2" d="M513.6,269.5l10.8,55.1c0.4,1.9,1.3,3.7,2.6,5.1l12.3,13.8c1.4,1.6,0,4.1-2.1,3.7l-53.2-9l-9.1-77.2
			c-0.1-1.1,0.2-2.3,1-3.1l14.2-15.8c0.7-0.8,2-0.8,2.7,0.1l19.2,23.7C512.8,267,513.3,268.2,513.6,269.5z"/>
		<g>
			<path class="st1" d="M330.6,326.4l147.4-14.5c1.6-0.2,2.7-1.5,2.5-2.9l-0.6-5c-0.2-1.5-1.6-2.5-3.1-2.4L329.5,316
				c-1.6,0.2-2.7,1.5-2.5,2.9l0.6,5C327.7,325.4,329.1,326.5,330.6,326.4z"/>
			<path class="st1" d="M487.7,307c1.1-0.7,0.9-2.3-0.3-2.8l-4.1-1.5l-4.4-1.7c-1.2-0.4-2.4,0.5-2.3,1.7l0.5,4l0.5,4
				c0.1,1.2,1.6,1.8,2.6,1.1l3.9-2.5L487.7,307z"/>
			<path class="st2" d="M478.1,306.1c0,1.6,1.3,2.8,3,2.8c1.7,0,3-1.3,3-2.8s-1.3-2.8-3-2.8C479.5,303.3,478.1,304.5,478.1,306.1z"
				/>
		</g>
		<g>
			<path class="st1" d="M404.3,317.2l74.1-49.5c0.8-0.5,1-1.5,0.5-2.3l-1.7-2.5c-0.5-0.7-1.5-0.9-2.3-0.4l-74.1,49.5
				c-0.8,0.5-1,1.5-0.5,2.3l1.7,2.5C402.5,317.6,403.5,317.8,404.3,317.2z"/>
			<path class="st1" d="M482.2,262.4c0.4-0.7-0.2-1.5-1-1.4l-2.6,0.3l-2.8,0.4c-0.7,0.1-1.2,0.9-0.7,1.5l1.4,2l1.4,2
				c0.4,0.6,1.3,0.5,1.7-0.1l1.4-2.5L482.2,262.4z"/>
			<path class="st2" d="M476.9,264.7c0.4,0.8,1.5,1.1,2.4,0.7c0.9-0.5,1.2-1.5,0.8-2.3c-0.4-0.8-1.5-1.1-2.4-0.7
				C476.8,262.8,476.4,263.8,476.9,264.7z"/>
		</g>
		<path class="st7" d="M370.9,281.2c0,3.2,2.6,5.8,5.8,5.8c3.2,0,5.8-2.6,5.8-5.8c0-3.2-2.6-5.8-5.8-5.8
			C373.5,275.3,370.9,278,370.9,281.2z"/>
		<path class="st7" d="M321.6,281.2c0,3.2,2.6,5.8,5.8,5.8c3.2,0,5.8-2.6,5.8-5.8c0-3.2-2.6-5.8-5.8-5.8
			C324.2,275.3,321.6,278,321.6,281.2z"/>
		
			<rect x="373.8" y="281.2" transform="matrix(-1 -4.458490e-11 4.458490e-11 -1 753.5107 589.3907)" class="st3" width="6" height="27"/>
		
			<rect x="324.5" y="281.2" transform="matrix(-1 -4.458535e-11 4.458535e-11 -1 654.8719 589.3907)" class="st3" width="6" height="27"/>
		
			<rect x="369.7" y="225.2" transform="matrix(-1 -4.489665e-11 4.489665e-11 -1 811.4969 472.2183)" class="st1" width="72.1" height="21.8"/>
		<g>
			
				<rect x="430.1" y="228.5" transform="matrix(-1 -4.484603e-11 4.484603e-11 -1 862.884 472.2183)" class="st4" width="2.6" height="15.3"/>
			
				<rect x="424.3" y="228.5" transform="matrix(-1 -4.484603e-11 4.484603e-11 -1 851.1429 472.2183)" class="st4" width="2.6" height="15.3"/>
			
				<rect x="418.4" y="228.5" transform="matrix(-1 -4.519641e-11 4.519641e-11 -1 839.402 472.2183)" class="st4" width="2.6" height="15.3"/>
			
				<rect x="412.5" y="228.5" transform="matrix(-1 -4.484780e-11 4.484780e-11 -1 827.6613 472.2183)" class="st4" width="2.6" height="15.3"/>
			
				<rect x="406.7" y="228.5" transform="matrix(-1 -4.484780e-11 4.484780e-11 -1 815.9203 472.2183)" class="st4" width="2.6" height="15.3"/>
			
				<rect x="400.8" y="228.5" transform="matrix(-1 -4.484603e-11 4.484603e-11 -1 804.1794 472.2183)" class="st4" width="2.6" height="15.3"/>
			
				<rect x="394.9" y="228.5" transform="matrix(-1 -4.484603e-11 4.484603e-11 -1 792.4386 472.2183)" class="st4" width="2.6" height="15.3"/>
			
				<rect x="389.1" y="228.5" transform="matrix(-1 -4.519641e-11 4.519641e-11 -1 780.6976 472.2183)" class="st4" width="2.6" height="15.3"/>
			
				<rect x="383.2" y="228.5" transform="matrix(-1 -4.484603e-11 4.484603e-11 -1 768.9565 472.2183)" class="st4" width="2.6" height="15.3"/>
			
				<rect x="377.3" y="228.5" transform="matrix(-1 -4.484780e-11 4.484780e-11 -1 757.2159 472.2183)" class="st4" width="2.6" height="15.3"/>
		</g>
		
			<rect x="371.1" y="217" transform="matrix(-1 -4.489665e-11 4.489665e-11 -1 814.2261 436.3582)" class="st1" width="72.1" height="2.3"/>
		<path class="st1" d="M452.1,257c0,1.3,1,2.3,2.3,2.3c1.3,0,2.3-1,2.3-2.3c0-1.3-1-2.3-2.3-2.3C453.2,254.7,452.1,255.7,452.1,257z
			"/>
		<path class="st1" d="M435.5,257c0,1.3,1,2.3,2.3,2.3c1.3,0,2.3-1,2.3-2.3c0-1.3-1-2.3-2.3-2.3C436.5,254.7,435.5,255.7,435.5,257z
			"/>
		<path class="st1" d="M443.7,257c0,1.3,1,2.3,2.3,2.3c1.3,0,2.3-1,2.3-2.3c0-1.3-1-2.3-2.3-2.3C444.7,254.7,443.7,255.7,443.7,257z
			"/>
		<line class="st8" x1="365" y1="209.8" x2="365" y2="209.8"/>
		<path class="st9" d="M286.8,233.7c0,0,5,0,6.8,0H304c1.1,0,2.1-0.5,2.7-1.4l1.6-2.3l4.4-6.3l6.8-9.9l0.9-1.2
			c0.4-0.5,0.6-1.1,0.6-1.8v-43.6c0-1.7-1.4-3.2-3.2-3.2h-24c-1.8,0-3.2,1.4-3.2,3.2l-0.4,6.5l-0.5,10.1l-0.9,15.9l-0.5,10.1
			L286.8,233.7z"/>
		<path class="st9" d="M327.4,168.2v35.5c0,1.6,1.3,2.8,2.8,2.8h18.8c2.1,0,3.4-2.1,2.6-4l-1.4-2.9l-9.1-19.8l-5.9-12.8
			c-0.5-1-1.5-1.6-2.6-1.6h-2.4c-1,0-1.8,0.5-2.3,1.2C327.6,167,327.4,167.6,327.4,168.2z"/>
		<polygon class="st2" points="308.5,241.7 357.8,241.7 357.8,214.7 325.7,214.7 		"/>
		<path class="st10" d="M289.5,183.9l29.9,29.9l0.9-1.2c0.4-0.5,0.6-1.1,0.6-1.8v-6.2L290,173.8L289.5,183.9z"/>
		<path class="st10" d="M327.4,168.2v8.6l22.9,22.9l-9.1-19.8l-13.3-13.3C327.6,167,327.4,167.6,327.4,168.2z"/>
		<polygon class="st10" points="288.1,209.9 308.2,230.1 312.6,223.7 288.6,199.8 		"/>
		
			<rect x="288.1" y="159.6" transform="matrix(-1 -4.488244e-11 4.488244e-11 -1 624.4316 322.2491)" class="st4" width="48.2" height="3"/>
		
			<rect x="360.4" y="216.8" transform="matrix(-1 -4.485002e-11 4.485002e-11 -1 725.2861 438.0276)" class="st4" width="4.5" height="4.5"/>
		
			<rect x="447.7" y="216.8" transform="matrix(-1 -4.505253e-11 4.505253e-11 -1 899.79 438.0276)" class="st4" width="4.5" height="4.5"/>
		<g>
			
				<rect x="379.5" y="193.8" transform="matrix(-1 -4.481316e-11 4.481316e-11 -1 765.8801 403.6071)" class="st4" width="6.9" height="15.9"/>
			<polygon class="st4" points="382.9,190.4 379.9,193 376.9,195.5 382.9,195.5 388.9,195.5 385.9,193 			"/>
		</g>
		
			<rect x="276.6" y="245.2" transform="matrix(-1 -4.490509e-11 4.490509e-11 -1 633.9615 499.8572)" class="st0" width="80.8" height="9.5"/>
	</g>
</g>
</svg>
