<?xml version="1.0" encoding="UTF-8" standalone="no"?>
<!-- Created with Inkscape (http://www.inkscape.org/) -->

<svg
   version="1.1"
   id="svg2"
   width="3162.6667"
   height="2530.6667"
   viewBox="0 0 3162.6667 2530.6667"
   sodipodi:docname="38519.eps"
   xmlns:inkscape="http://www.inkscape.org/namespaces/inkscape"
   xmlns:sodipodi="http://sodipodi.sourceforge.net/DTD/sodipodi-0.dtd"
   xmlns="http://www.w3.org/2000/svg"
   xmlns:svg="http://www.w3.org/2000/svg">
  <defs
     id="defs6" />
  <sodipodi:namedview
     id="namedview4"
     pagecolor="#ffffff"
     bordercolor="#000000"
     borderopacity="0.25"
     inkscape:showpageshadow="2"
     inkscape:pageopacity="0.0"
     inkscape:pagecheckerboard="0"
     inkscape:deskcolor="#d1d1d1" />
  <g
     id="g8"
     inkscape:groupmode="layer"
     inkscape:label="ink_ext_XXXXXX"
     transform="matrix(1.3333333,0,0,-1.3333333,0,2530.6667)">
    <g
       id="g10"
       transform="scale(0.1)">
      <path
         d="m 11528.8,10596.3 c -23.9,-14.5 -54.9,-6.9 -69.6,17.1 -14.4,23.7 -6.8,54.9 17.1,69.5 l 442.3,268.3 c 23.9,14.5 55,6.8 69.4,-17 14.6,-23.9 7,-55 -16.9,-69.6 l -442.3,-268.3"
         style="fill:#320d0d;fill-opacity:1;fill-rule:nonzero;stroke:none"
         id="path12" />
      <path
         d="m 9963.61,12295 c -26.91,-7.5 -54.8,8.3 -62.42,35.2 -7.57,26.8 8.11,54.8 35.07,62.3 l 498.24,139.7 c 26.8,7.4 54.8,-8.3 62.3,-35.1 7.5,-26.9 -8.2,-54.9 -35.2,-62.3 L 9963.61,12295"
         style="fill:#320d0d;fill-opacity:1;fill-rule:nonzero;stroke:none"
         id="path14" />
      <path
         d="m 14187.4,8987.96 c -13.8,-24.36 -44.6,-32.96 -68.9,-19.16 -24.3,13.71 -32.9,44.65 -19.2,68.95 l 254.4,450.48 c 13.7,24.23 44.6,32.9 69,19.11 24.1,-13.67 32.9,-44.55 19,-68.9 l -254.3,-450.48"
         style="fill:#320d0d;fill-opacity:1;fill-rule:nonzero;stroke:none"
         id="path16" />
      <path
         d="m 20532.8,7966.8 c 12.3,-25 42.5,-35.3 67.6,-23 25.1,12.2 35.5,42.6 23.1,67.7 l -228.4,464.2 c -12.3,25.1 -42.6,35.4 -67.7,23.1 -25,-12.4 -35.3,-42.7 -23,-67.8 l 228.4,-464.2"
         style="fill:#320d0d;fill-opacity:1;fill-rule:nonzero;stroke:none"
         id="path18" />
      <path
         d="m 22766.2,8556.3 c 18.6,-20.8 50.6,-22.7 71.5,-4.1 20.8,18.6 22.6,50.6 4,71.6 l -344.7,385.73 c -18.7,20.81 -50.6,22.55 -71.5,3.92 -20.8,-18.63 -22.7,-50.65 -3.9,-71.45 l 344.6,-385.7"
         style="fill:#320d0d;fill-opacity:1;fill-rule:nonzero;stroke:none"
         id="path20" />
      <path
         d="m 17426.3,8042.1 c -1.4,-27.9 20,-51.7 48,-53.3 27.7,-1.6 51.7,19.9 53.2,47.8 l 28,516.6 c 1.6,27.7 -19.9,51.7 -47.8,53.2 -27.8,1.6 -51.6,-19.9 -53.2,-47.8 l -28.2,-516.5"
         style="fill:#320d0d;fill-opacity:1;fill-rule:nonzero;stroke:none"
         id="path22" />
      <path
         d="m 11606.3,10702.4 5692.5,2925.5 -3112.7,-4520.43 -2579.8,1594.93"
         style="fill:#b7adb5;fill-opacity:1;fill-rule:nonzero;stroke:none"
         id="path24" />
      <path
         d="m 20522,8098.6 -3223.2,5529.3 190.4,-5485.1 3032.8,-44.2"
         style="fill:#b7adb5;fill-opacity:1;fill-rule:nonzero;stroke:none"
         id="path26" />
      <path
         d="m 11606.3,10702.4 5692.5,2925.5 -7249.8,-1201.2 1557.3,-1724.3"
         style="fill:#801519;fill-opacity:1;fill-rule:nonzero;stroke:none"
         id="path28" />
      <path
         d="m 17298.8,13627.9 -3112.7,-4520.43 3303.1,-964.67 -190.4,5485.1"
         style="fill:#801519;fill-opacity:1;fill-rule:nonzero;stroke:none"
         id="path30" />
      <path
         d="m 20522,8098.6 -3223.2,5529.3 5463.7,-4914 -2240.5,-615.3"
         style="fill:#801519;fill-opacity:1;fill-rule:nonzero;stroke:none"
         id="path32" />
      <path
         d="m 15050.5,10986 c -10.1,0 -20.3,3 -29.2,9.4 -22.7,16.1 -28.2,47.7 -12,70.4 l 88.5,124.9 -1776.5,393.1 3977.5,2044.1 -1763.4,-2560.9 -332.3,97 -111.3,-156.6 c -9.8,-14 -25.4,-21.4 -41.3,-21.4"
         style="fill:#726266;fill-opacity:1;fill-rule:nonzero;stroke:none"
         id="path34" />
      <path
         d="m 19551.2,9763.98 -1721.1,629.72 7.5,-153.8 c 1.4,-27.9 -20.2,-51.6 -48.1,-53 -0.8,0 -1.6,0 -2.5,0 -26.8,0 -49.2,21 -50.5,48.1 l -9.3,192 -320.6,93.6 -107.8,3107.3 2252.4,-3863.92"
         style="fill:#726266;fill-opacity:1;fill-rule:nonzero;stroke:none"
         id="path36" />
      <path
         d="m 12334,11580.9 c -18.2,0 -35.8,9.8 -44.8,26.9 -12.9,24.9 -3.5,55.5 21.2,68.4 l 180.5,94.9 -2441.9,655.6 7249.8,1201.2 -3977.5,-2044.1 -681.8,150.9 -281.9,-148 c -7.6,-4 -15.6,-5.8 -23.6,-5.8"
         style="fill:#561014;fill-opacity:1;fill-rule:nonzero;stroke:none"
         id="path38" />
      <path
         d="m 17406.6,10520.6 -1871.2,546.4 1763.4,2560.9 107.8,-3107.3"
         style="fill:#561014;fill-opacity:1;fill-rule:nonzero;stroke:none"
         id="path40" />
      <path
         d="m 22762.5,8713.9 -2422.9,765.06 101.3,-177.09 c 13.8,-24.23 5.3,-55.11 -19,-69.01 -7.9,-4.5 -16.5,-6.64 -25,-6.64 -17.5,0 -34.6,9.19 -44,25.54 l -158,276.72 -643.7,235.5 -2252.4,3863.92 5463.7,-4914"
         style="fill:#561014;fill-opacity:1;fill-rule:nonzero;stroke:none"
         id="path42" />
      <path
         d="m 14328.8,3206.3 2907.9,9957.4 -135.5,39.5 -2907.9,-9957.3 135.5,-39.6"
         style="fill:#320d0d;fill-opacity:1;fill-rule:nonzero;stroke:none"
         id="path44" />
      <path
         d="m 17907.9,10821.8 c 1.4,-27.8 25.1,-49.5 52.9,-48.1 27.9,1.5 49.5,25.2 48.2,53 l -25.2,516.7 c -1.3,27.9 -25.2,49.4 -53.1,48.1 -27.9,-1.3 -49.4,-25.1 -48,-53 l 25.2,-516.7"
         style="fill:#320d0d;fill-opacity:1;fill-rule:nonzero;stroke:none"
         id="path46" />
      <path
         d="m 20524.2,9838.47 c 13.9,-24.18 44.7,-32.57 69,-18.79 24.4,13.9 32.8,44.73 18.9,69.02 l -256.5,449.2 c -13.7,24.3 -44.7,32.9 -69.1,18.9 -24.2,-13.8 -32.5,-44.7 -18.8,-69 l 256.5,-449.33"
         style="fill:#320d0d;fill-opacity:1;fill-rule:nonzero;stroke:none"
         id="path48" />
      <path
         d="m 15263.3,11594.1 c -16.3,-22.8 -47.9,-28.2 -70.6,-12 -22.8,16.2 -28.1,47.8 -12.1,70.7 l 299.4,421.8 c 16.1,22.8 47.8,28.2 70.6,12 22.7,-16.2 28.2,-47.7 12,-70.6 l -299.3,-421.9"
         style="fill:#320d0d;fill-opacity:1;fill-rule:nonzero;stroke:none"
         id="path50" />
      <path
         d="m 12528.9,12173.4 c -24.8,-12.9 -55.4,-3.4 -68.2,21.4 -13.1,24.6 -3.7,55.2 21.1,68.2 l 457.9,240.7 c 24.8,12.9 55.5,3.5 68.4,-21.3 13,-24.7 3.5,-55.3 -21.3,-68.3 l -457.9,-240.7"
         style="fill:#320d0d;fill-opacity:1;fill-rule:nonzero;stroke:none"
         id="path52" />
      <path
         d="m 12629,12287.6 4906.8,2152 -2202.9,-2654.7 z"
         style="fill:#d2252e;fill-opacity:1;fill-rule:nonzero;stroke:none"
         id="path54" />
      <path
         d="m 20513.2,9985.22 -2977.4,4454.38 427.9,-3423.1 z"
         style="fill:#d2252e;fill-opacity:1;fill-rule:nonzero;stroke:none"
         id="path56" />
      <path
         d="m 12629,12287.6 4906.8,2152 -7486.8,-2012.9 z"
         style="fill:#d6cbd5;fill-opacity:1;fill-rule:nonzero;stroke:none"
         id="path58" />
      <path
         d="m 17535.8,14439.6 -2202.9,-2654.7 2630.8,-768.4 z"
         style="fill:#d6cbd5;fill-opacity:1;fill-rule:nonzero;stroke:none"
         id="path60" />
      <path
         d="M 20513.2,9985.22 17535.8,14439.6 22762.5,8713.9 Z"
         style="fill:#d6cbd5;fill-opacity:1;fill-rule:nonzero;stroke:none"
         id="path62" />
      <path
         d="m 17590.7,14376.2 82.2,281.2 c 10.9,37.4 -10.6,76.5 -48,87.5 -37.3,10.8 -76.6,-10.6 -87.5,-48 l -82.1,-281.2 c 0,0 20.4,9.9 68.9,-4.1 48.4,-14.2 66.5,-35.4 66.5,-35.4"
         style="fill:#320d0d;fill-opacity:1;fill-rule:nonzero;stroke:none"
         id="path64" />
      <path
         d="M 13837.2,3229.6 H 2727.61 v 6815.7 H 13837.2 V 3229.6"
         style="fill:#8e5536;fill-opacity:1;fill-rule:nonzero;stroke:none"
         id="path66" />
      <path
         d="M 10069,3229.6 H 6495.84 V 8498.8 H 10069 V 3229.6"
         style="fill:#542c1b;fill-opacity:1;fill-rule:nonzero;stroke:none"
         id="path68" />
      <path
         d="m 10069,3229.6 v 128 H 6623.91 V 8370.7 H 9940.89 V 3229.6 H 10069 v 128 -128 h 128 V 8626.9 H 6367.77 V 3101.5 H 10197 v 128.1 h -128"
         style="fill:#bd7951;fill-opacity:1;fill-rule:nonzero;stroke:none"
         id="path70" />
      <path
         d="m 8154.33,3229.6 h 256.137 V 8498.8 H 8154.33 Z"
         style="fill:#bd7951;fill-opacity:1;fill-rule:nonzero;stroke:none"
         id="path72" />
      <path
         d="M 5827.91,4332.5 H 3715.72 V 8498.8 H 5827.91 V 4332.5"
         style="fill:#e0f3db;fill-opacity:1;fill-rule:nonzero;stroke:none"
         id="path74" />
      <path
         d="m 5827.91,4332.5 v 128.1 H 3843.79 V 8370.7 H 5699.84 V 4332.5 h 128.07 v 128.1 -128.1 h 128.07 V 8626.9 H 3587.65 V 4204.5 h 2368.33 v 128 h -128.07"
         style="fill:#bd7951;fill-opacity:1;fill-rule:nonzero;stroke:none"
         id="path76" />
      <path
         d="M 12849.2,4332.5 H 10737 v 4166.3 h 2112.2 V 4332.5"
         style="fill:#e0f3db;fill-opacity:1;fill-rule:nonzero;stroke:none"
         id="path78" />
      <path
         d="m 12849.2,4332.5 v 128.1 h -1984.1 v 3910.1 h 1856 V 4332.5 h 128.1 v 128.1 -128.1 h 128.1 V 8626.9 H 10608.9 V 4204.5 h 2368.4 v 128 h -128.1"
         style="fill:#bd7951;fill-opacity:1;fill-rule:nonzero;stroke:none"
         id="path80" />
      <path
         d="m 4643.75,4332.5 h 256.129 V 8498.8 H 4643.75 Z"
         style="fill:#bd7951;fill-opacity:1;fill-rule:nonzero;stroke:none"
         id="path82" />
      <path
         d="m 3715.72,6176.6 h 2112.19 v 256.199 H 3715.72 Z"
         style="fill:#bd7951;fill-opacity:1;fill-rule:nonzero;stroke:none"
         id="path84" />
      <path
         d="m 11664.9,4332.5 h 256.098 V 8498.8 H 11664.9 Z"
         style="fill:#bd7951;fill-opacity:1;fill-rule:nonzero;stroke:none"
         id="path86" />
      <path
         d="m 10737,6176.6 h 2112.2 v 256.199 H 10737 Z"
         style="fill:#bd7951;fill-opacity:1;fill-rule:nonzero;stroke:none"
         id="path88" />
      <path
         d="m 15702.1,8945.9 -5603.6,5319.5 h -138.92 c 21.9,-88.4 45.82,-175.5 69.92,-262.6 -40.94,74.1 -64.58,171.3 -98.25,262.6 h -353.52 l -12.74,-193.6 -127.36,193.6 h -402.22 l -3.15,-146.3 -25.17,146.3 h -437.96 l -135.3,-235.6 10.35,235.6 H 8282.4 7786.38 l -63.29,-205.8 27.99,205.8 H 7247.6 l -144.95,-235.6 17.87,235.6 h -353.63 c -150.45,-160.6 -293.05,-328.6 -444.38,-496.9 98.27,160.4 214.35,296.5 266.64,496.9 H 6466.37 L 862.723,8945.9 h 897.417 l 551.09,396.78 -222.3,-396.78 h 1567.8 l 422.32,575.77 -238.8,-575.77 h 1045.09 l 331.62,706.99 -135.8,-706.99 h 698.38 l 334.13,411.05 -138.69,-411.05 h 570.43 l 169.74,269.42 -67.12,-269.42 h 360 l 94.03,131.18 3.32,-131.18 h 498.96 l 327.7,538.29 -17.49,-538.29 h 367.85 367.9 l -17.43,538.29 327.7,-538.29 h 498.74 l 3.38,131.18 94.02,-131.18 h 360.17 l -67.17,269.42 169.69,-269.42 h 570.4 l -138.7,411.05 334.2,-411.05 h 698.4 l -136,706.99 331.9,-706.99 h 1045 l -239,575.77 422.4,-575.77 h 1567.9 l -222.4,396.78 551.2,-396.78 h 897.4"
         style="fill:#cf9966;fill-opacity:1;fill-rule:nonzero;stroke:none"
         id="path90" />
      <path
         d="m 2731.42,9804.43 -286.52,-511.32 -77.02,-137.22 c 102.84,79.92 4459.15,4841.01 4549.68,4963.21 h -167.17 l -622.02,-621.3 379.51,621.3 -5264.4,-5053.9 h 461.04 l 1026.9,739.23"
         style="fill:#d3b67a;fill-opacity:1;fill-rule:nonzero;stroke:none"
         id="path92" />
      <path
         d="m 7615.56,13768.5 c 0,0 54.8,233.7 66.02,350.6 H 7476.71 C 7379.15,13947.2 4044.68,9065.2 4044.68,9065.2 h 739.5 l 497.93,773.01 55.12,-333.1 c 59.1,70.49 118.09,140.65 176.71,210.31 242.61,287.98 2265.58,4255.98 2335.96,4403.68 l -234.34,-350.6"
         style="fill:#d3b67a;fill-opacity:1;fill-rule:nonzero;stroke:none"
         id="path94" />
      <path
         d="m 9780.58,14119.1 h -110.25 c 0,0 2439.77,-4330.46 2670.57,-4620.53 l -111.7,605.73 762.2,-1039.1 h 1184.3 c -175.6,139.72 -4236.5,4747.5 -4395.12,5053.9"
         style="fill:#d3b67a;fill-opacity:1;fill-rule:nonzero;stroke:none"
         id="path96" />
      <path
         d="m 7342.98,14119.1 -483.7,-685.7 154.09,701.1 c 0,0 -4517.16,-4997.73 -4612.21,-5069.3 h 1172.28 l 605.84,620.65 42.1,-194.47 c 26.37,29.31 3094.91,4580.02 3121.6,4627.72"
         style="fill:#d3b67a;fill-opacity:1;fill-rule:nonzero;stroke:none"
         id="path98" />
      <path
         d="m 9087.49,14085.3 108.72,-723.9 -228.23,757.7 H 8801.3 c 5.66,-39.8 804.11,-4107.2 877.42,-4370.39 l 430.38,-683.51 h 288.2 l -331.2,982 798,-982 h 309.4 c -58.3,130.62 -1942.31,4405.2 -2086.01,5020.1"
         style="fill:#d3b67a;fill-opacity:1;fill-rule:nonzero;stroke:none"
         id="path100" />
      <path
         d="m 9408.22,14119.1 h -193.81 c 163.57,-609.7 2034.99,-4876.65 2083.09,-4976.99 l -63.7,884.19 546.9,-961.1 h 739.5 c 0,0 -2965.56,4724 -3111.98,5053.9"
         style="fill:#d3b67a;fill-opacity:1;fill-rule:nonzero;stroke:none"
         id="path102" />
      <path
         d="m 6167.49,9065.2 h 148.81 c 213.2,427.38 1933.09,4862.8 2003.03,5053.9 h -333.69 c -70.76,-151.7 -2626.95,-4772.83 -2694,-4850.94 l -39,-202.96 h 448.08 l 798.07,982 -331.3,-982"
         style="fill:#d3b67a;fill-opacity:1;fill-rule:nonzero;stroke:none"
         id="path104" />
      <path
         d="m 10143.5,14119.1 h -97.7 l 48.8,-208.5 -213.62,208.5 c 338.52,-587.4 4146.32,-4752.13 4240.42,-4828.61 l -1.4,2.62 -286.5,511.32 1026.8,-739.23 h 461.1 l -5177.9,5053.9"
         style="fill:#d3b67a;fill-opacity:1;fill-rule:nonzero;stroke:none"
         id="path106" />
      <path
         d="M 8711.47,14119.1 H 8607.1 c -0.49,-214.5 -357.06,-5009.13 -362.12,-5053.9 h 254.66 l 118.14,654.31 433.98,-654.31 h 263.91 l 11.16,438.38 314.25,-438.38 h 96.31 c 0,0 -1024.34,5044.5 -1025.92,5053.9"
         style="fill:#d3b67a;fill-opacity:1;fill-rule:nonzero;stroke:none"
         id="path108" />
      <path
         d="m 8065.27,9065.2 h 26.92 c 12.09,85.74 437.02,4920.1 436.53,4964.6 l -209.39,-353.1 10.46,338.7 C 8293.51,13912.8 6607.12,9320.45 6554.23,9221.53 l 399.12,349.17 -125.89,-505.5 h 96.31 l 314.19,438.38 10.89,-424 0.33,-14.38 h 263.97 l 583.18,958 -31.06,-958"
         style="fill:#d3b67a;fill-opacity:1;fill-rule:nonzero;stroke:none"
         id="path110" />
      <path
         d="m 13499.3,11672.2 c 0,0 -5024.78,3846.2 -5018.62,3874.5 -4.14,0 -8.28,0 -12.31,0 1.96,-9.5 4.03,-18.8 6.15,-28.3 -3.54,8 -5.72,18.5 -8.66,28.3 -10.57,0 -20.92,0 -31.49,0 -0.32,-7 -0.76,-13.9 -1.08,-20.8 -3.71,6.9 -7.52,13.8 -11.33,20.8 -11.99,0 -23.87,0 -35.73,0 -0.06,-5.2 -0.17,-10.4 -0.28,-15.7 -0.71,5.3 -1.47,10.5 -2.24,15.7 -12.96,0 -26.03,0 -38.88,0 -4.04,-8.4 -8.07,-16.8 -11.99,-25.3 0.33,8.5 0.55,16.9 0.82,25.3 -4.74,0 -9.53,0 -14.33,0 -14.7,0 -29.41,0 -44.12,0 -1.74,-7.4 -3.65,-14.8 -5.56,-22.2 0.87,7.4 1.69,14.8 2.4,22.2 -14.81,0 -29.74,0 -44.67,0 -4.25,-8.4 -8.49,-16.8 -12.96,-25.3 0.65,8.5 1.2,16.9 1.74,25.3 -10.46,0 -20.92,0 -31.37,0 -13.51,-17.3 -26.15,-35.3 -39.66,-53.3 8.77,17.3 19.12,31.8 23.75,53.3 -3.6,0 -7.24,0 -10.89,0 L 3139.41,11672.2 c 194.19,-110.7 391,-214.7 590.09,-312.1 123.06,29.1 247.52,64.6 372.86,105.9 -51.31,-71.9 -102.24,-142 -152.95,-210.3 350.79,-161.4 708.45,-302.5 1071.24,-423.1 99.78,112.7 200.12,230.1 300.68,351.5 -57.91,-133 -115.54,-264.2 -173.11,-393.1 242.45,-77.2 487.19,-145.3 733.51,-204.3 80.72,169 161.56,341.1 242.29,515.9 -34.54,-183.7 -69.02,-366.4 -103.5,-548.1 164.99,-37.2 330.75,-70.4 497.11,-99.5 80.73,98.3 161.45,198.2 242.18,299.9 -34.1,-108.3 -68.31,-216.1 -102.51,-323.3 136.06,-21.9 272.52,-41.1 409.07,-57.6 41.19,69.8 82.42,139.9 123.65,210.4 -16.66,-73.1 -33.27,-146.1 -49.89,-219.1 86.39,-9.7 172.73,-18.4 259.18,-26 22.82,34.5 45.65,69.3 68.42,104 0.54,-36.7 1.14,-73.3 1.79,-110 119.78,-9.8 239.73,-17.4 359.79,-23.1 79.53,147.3 158.61,295.8 237.6,445.1 -4.46,-151.1 -8.88,-302.2 -13.4,-453.2 88.57,-2.2 177.14,-3.4 265.82,-3.4 88.57,0 177.25,1.2 265.83,3.4 -4.47,151 -8.89,302.1 -13.41,453.2 78.98,-149.3 158.24,-297.8 237.5,-445.1 120.05,5.7 240.11,13.3 359.95,23.1 0.59,36.7 1.19,73.3 1.74,110 22.77,-34.7 45.59,-69.5 68.42,-104 86.44,7.6 172.83,16.3 259.17,26 -16.56,73 -33.22,146 -49.84,219.1 41.13,-70.5 82.31,-140.7 123.59,-210.4 136.67,16.5 273.02,35.7 409.09,57.6 -34.21,107.2 -68.42,215 -102.62,323.3 80.72,-101.8 161.55,-201.6 242.25,-299.9 166.3,29.1 332.1,62.3 497.1,99.5 -34.5,181.7 -68.9,364.4 -103.5,548.1 80.8,-174.9 161.5,-346.9 242.2,-515.9 246.4,59 491.2,127.1 733.7,204.3 -57.6,128.9 -115.3,260.1 -173.2,393.1 100.6,-121.4 200.9,-238.8 300.8,-351.5 362.6,120.6 720.3,261.7 1071.2,423.1 -50.8,68.2 -101.8,138.4 -153,210.3 125.4,-41.4 249.7,-76.8 372.8,-105.9 199.2,97.4 396,201.4 590.2,312.1"
         style="fill:#cf9966;fill-opacity:1;fill-rule:nonzero;stroke:none"
         id="path112" />
      <path
         d="m 4392.26,11685.2 c -66.89,-99.9 -133.57,-196.9 -199.8,-291 -17.81,-25.2 -35.63,-50.3 -53.38,-75.1 19.88,-48.6 1037.57,711.9 2048.94,1818.2 1011.27,1050.8 2016.38,2447.7 2010.06,2393.7 -4.96,0 -9.86,0 -14.93,0 -18.36,-22.2 -55.29,-66.6 -55.29,-66.6 l 33.78,66.6 -4773.35,-3919.2 c 0,0 202.69,-104.1 304.94,-153.6 229.1,54.7 462.73,131.4 699.03,227"
         style="fill:#d3b67a;fill-opacity:1;fill-rule:nonzero;stroke:none"
         id="path114" />
      <path
         d="m 8260.06,15493.4 c 0,0 4.91,25 5.83,37.6 -6.04,0 -12.03,0 -18.19,0 -0.16,23.2 -729.65,-1340.1 -1471.06,-2511.7 -739.23,-1201.8 -1490.39,-2212 -1484.56,-2180.5 172.18,-51.1 345.51,-97.7 519.6,-140 119.95,176.1 240.22,357.8 360.33,544.5 11.93,-91.9 23.86,-184 35.79,-276.2 42.54,49.1 85.19,98.4 127.57,148 185.31,118.9 1952.8,4364.3 1945.51,4415.9 -6.92,-12.6 -13.84,-25.1 -20.82,-37.6"
         style="fill:#d3b67a;fill-opacity:1;fill-rule:nonzero;stroke:none"
         id="path116" />
      <path
         d="m 8452.46,15531 c -3.27,0 -6.59,0 -9.8,0 -2.62,25 639.6,-1166.9 1315.16,-2244.5 673.28,-1099.4 1379.98,-2084.8 1458.38,-2147.5 -28.3,150.1 -56.7,301 -85,452.5 182,-229.6 363.4,-446.9 543.4,-649.5 273.5,90.9 544.2,193.3 811.4,307.3 -45.1,-39.2 -1055.7,742.4 -2053.5,1860.2 C 9434.58,14173.8 8449.41,15574 8452.46,15531"
         style="fill:#d3b67a;fill-opacity:1;fill-rule:nonzero;stroke:none"
         id="path118" />
      <path
         d="m 8235.88,15531 c -14.32,-24.5 -28.76,-49 -43.03,-73.6 4.57,25.1 9.15,50.2 13.72,75.2 10.41,61.5 -992.3,-1358.6 -2002.04,-2430.6 -1009.69,-1127.9 -2026.56,-1907.6 -2043.78,-1856.2 264.52,-112.5 532.52,-213.7 803.41,-303.8 142.22,109.4 285.37,226.6 429.07,350.7 9.04,-53 18.19,-105.8 27.23,-158.8 4.69,-18.2 721.64,947.2 1423.84,2069.8 704.15,1097.4 1393.54,2352 1391.58,2327.3"
         style="fill:#d3b67a;fill-opacity:1;fill-rule:nonzero;stroke:none"
         id="path120" />
      <path
         d="m 8390.85,15527.4 c 3.22,-25.8 6.49,-51.8 9.75,-77.7 -6.81,27.1 -13.62,54.1 -20.26,81.3 -4.96,0 -9.97,0 -14.93,0 -6.86,-14.3 896.39,-4319.9 957.5,-4513.2 104.15,-181.5 208.52,-360.6 312.95,-536.8 69.01,8.5 137.91,17.9 206.71,27.8 -81.54,258.6 -162.97,519.9 -244.03,783.6 192.29,-252.3 385.11,-496.3 577.86,-730 73.5,13.1 147,26.9 220.3,41.5 -19.6,34 -531.52,1179.8 -1025.63,2404 -496.24,1211 -974.88,2500.6 -980.22,2519.5"
         style="fill:#d3b67a;fill-opacity:1;fill-rule:nonzero;stroke:none"
         id="path122" />
      <path
         d="m 8419.34,15531 c -5.67,0 -11.44,0 -17.21,0 5.99,-17.6 505.71,-1300.8 1021.88,-2495.7 513.94,-1209.2 1044.39,-2330 1059.99,-2351.5 -17.9,234.6 -35.9,469.7 -53.8,705.3 132.3,-236.7 264.6,-467.2 396.8,-690.3 174.1,42.3 347.4,88.9 519.6,140 5.8,-30.6 -736.9,976.3 -1468.46,2175.5 -733.67,1169.1 -1456.4,2530.5 -1458.8,2516.7"
         style="fill:#d3b67a;fill-opacity:1;fill-rule:nonzero;stroke:none"
         id="path124" />
      <path
         d="m 6796.09,10508.8 c 35.52,-5.1 71.14,-10 106.65,-14.8 166.36,285.6 1424.66,4998.1 1419.86,5037 -9.86,0 -19.78,0 -29.63,0 -1.97,7.5 -507.46,-1254.7 -1032.46,-2434.2 C 6737.7,11903.3 6195.38,10792.7 6173.04,10782 c -9.8,-52.7 -19.72,-105.5 -29.68,-157.9 106.05,-22.4 212.38,-42.7 318.93,-61.7 192.71,233.7 385.55,477.7 577.83,730 -81.05,-263.7 -162.43,-525 -244.03,-783.6"
         style="fill:#d3b67a;fill-opacity:1;fill-rule:nonzero;stroke:none"
         id="path126" />
      <path
         d="m 8484.65,15531 c 0,0 -5.71,0 -8.66,0 1.42,-7.5 2.95,-14.9 4.36,-22.4 -6.32,7.5 -12.64,14.9 -19.01,22.4 5.33,24.5 992.74,-1333.9 1983.36,-2359.1 990.6,-1077.6 1984.3,-1822 2002.6,-1779.2 l -1,1.5 c -66.3,94.1 -133,191.1 -199.9,291 236.4,-95.6 469.9,-172.3 699.1,-227 102.2,49.5 304.9,153.6 304.9,153.6 L 8484.65,15531"
         style="fill:#d3b67a;fill-opacity:1;fill-rule:nonzero;stroke:none"
         id="path128" />
      <path
         d="m 8357.4,15531 c -3.04,0 -6.04,0 -9.2,0 0.44,-23 -51.53,-5093.9 -55.94,-5131.6 61.28,-0.2 122.61,0.2 183.95,1.2 28.22,184.1 56.32,368.4 84.49,552.7 104.31,-181.6 209,-361.6 314.03,-539.4 63.45,3.2 126.91,7.2 190.32,11.6 2.17,122.7 4.24,245.4 6.32,368 75.93,-117.4 151.97,-233.9 228.12,-349 23.1,2.2 46.19,4.4 69.29,6.7 -8.99,-29.7 -1020.69,5063.9 -1011.38,5079.8"
         style="fill:#d3b67a;fill-opacity:1;fill-rule:nonzero;stroke:none"
         id="path130" />
      <path
         d="m 8162.45,10400.6 c 6.54,-0.1 12.97,-0.2 19.5,-0.3 10.24,71.6 160.7,5116.2 159.28,5121.1 -6.21,-12.6 -12.37,-25.2 -18.63,-37.8 0.33,12.1 0.6,24.1 0.92,36.3 7.74,-29.7 -1200.55,-4880.5 -1249.08,-4917.5 96.3,85.7 192.5,173.4 288.59,262.6 -30.94,-138.3 -61.99,-276.2 -93.15,-413.8 23.1,-2.3 46.19,-4.5 69.34,-6.7 76.1,115.1 152.14,231.6 228.08,349 1.96,-118.6 4.03,-237.3 6.15,-356.1 0,-3.9 0.11,-7.8 0.11,-11.9 63.46,-4.4 126.98,-8.4 190.38,-11.6 141.19,261 281.83,526 421.77,793.7 -7.79,-269.1 -15.52,-538.1 -23.26,-807"
         style="fill:#d3b67a;fill-opacity:1;fill-rule:nonzero;stroke:none"
         id="path132" />
      <path
         d="m 11545.8,13366.7 c 0,0 -3129.73,2395.9 -3125.97,2413.4 -2.61,0 -5.12,0 -7.74,0 1.26,-6 2.62,-11.7 3.98,-17.5 -2.28,4.9 -3.7,11.4 -5.44,17.5 -6.59,0 -13.08,0 -19.67,0 -0.16,-4.3 -0.38,-8.7 -0.6,-12.9 -2.39,4.2 -4.74,8.6 -7.14,12.9 -7.4,0 -14.87,0 -22.27,0 0,-3.2 -0.11,-6.5 -0.11,-9.8 -0.55,3.3 -0.93,6.6 -1.42,9.8 -8.06,0 -16.12,0 -24.18,0 -2.51,-5.2 -5.02,-10.4 -7.52,-15.8 0.22,5.4 0.33,10.6 0.6,15.8 -2.99,0 -5.94,0 -8.99,0 -9.2,0 -18.3,0 -27.45,0 -1.2,-4.5 -2.34,-9.2 -3.49,-13.8 0.55,4.6 1.04,9.3 1.53,13.8 -9.26,0 -18.58,0 -27.89,0 -2.62,-5.2 -5.34,-10.4 -8.06,-15.8 0.43,5.4 0.76,10.6 1.08,15.8 -6.53,0 -13.07,0 -19.61,0 -8.33,-10.8 -16.17,-22 -24.62,-33.1 5.51,10.6 11.88,19.7 14.82,33.1 -2.29,0 -4.46,0 -6.75,0 L 5092.87,13366.7 c 120.88,-68.9 243.54,-133.8 367.57,-194.5 76.64,18.2 154.16,40.4 232.27,66.1 -32.02,-44.8 -63.84,-88.5 -95.43,-131 218.54,-100.5 441.44,-188.4 667.27,-263.6 62.21,70.3 124.75,143.3 187.28,219 -35.95,-82.8 -71.9,-164.5 -107.8,-244.8 151.1,-48.1 303.46,-90.6 456.96,-127.4 50.33,105.4 100.61,212.6 150.89,321.4 -21.52,-114.4 -42.92,-228.2 -64.49,-341.3 102.89,-23.2 206.11,-43.8 309.61,-62 50.33,61.1 100.66,123.4 150.88,186.7 -21.24,-67.4 -42.43,-134.4 -63.89,-201.3 84.81,-13.7 169.84,-25.6 254.98,-35.9 25.6,43.5 51.31,87.1 76.92,131.1 -10.35,-45.5 -20.7,-91 -31.05,-136.5 53.76,-6.1 107.64,-11.5 161.45,-16.3 14.16,21.6 28.33,43.3 42.6,64.9 0.38,-22.9 0.71,-45.7 1.09,-68.5 74.73,-6.1 149.36,-10.9 224.09,-14.4 49.46,91.7 98.82,184.1 148,277.2 -2.72,-94.1 -5.55,-188.2 -8.33,-282.2 55.17,-1.5 110.36,-2.2 165.59,-2.2 55.24,0 110.47,0.7 165.54,2.2 -2.72,94 -5.5,188.1 -8.23,282.2 49.14,-93.1 98.49,-185.5 147.84,-277.2 74.84,3.5 149.53,8.3 224.21,14.4 0.43,22.8 0.71,45.6 1.14,68.5 14.22,-21.6 28.33,-43.3 42.54,-64.9 53.82,4.8 107.75,10.2 161.46,16.3 -10.35,45.5 -20.7,91 -31.05,136.5 25.6,-44 51.31,-87.6 76.96,-131.1 85.14,10.3 170.12,22.2 254.82,35.9 -21.29,66.9 -42.54,133.9 -63.89,201.3 50.33,-63.4 100.61,-125.6 150.89,-186.7 103.6,18.2 206.88,38.8 309.61,62 -21.4,113.1 -42.92,226.9 -64.38,341.3 50.33,-108.8 100.61,-216 150.88,-321.4 153.39,36.8 305.83,79.3 456.93,127.4 -35.9,80.3 -71.8,162 -107.9,244.8 62.7,-75.7 125.2,-148.7 187.3,-219 225.9,75.2 448.7,163.1 667.3,263.6 -31.6,42.5 -63.3,86.2 -95.3,131 78.1,-25.7 155.6,-47.9 232.2,-66.1 124.1,60.7 246.7,125.6 367.6,194.5"
         style="fill:#cf9966;fill-opacity:1;fill-rule:nonzero;stroke:none"
         id="path134" />
      <path
         d="m 5873.23,13374.8 c -41.72,-62.2 -83.23,-122.6 -124.52,-181.3 -11.11,-15.7 -22.12,-31.3 -33.23,-46.7 12.42,-30.2 646.36,443.5 1276.27,1132.5 629.91,654.7 1255.95,1524.7 1252.08,1491 -3.15,0 -6.15,0 -9.26,0 -11.54,-13.8 -34.42,-41.4 -34.42,-41.4 l 21.03,41.4 L 5247.84,13329 c 0,0 126.21,-64.8 189.89,-95.5 142.77,34.1 288.32,81.8 435.5,141.3"
         style="fill:#d3b67a;fill-opacity:1;fill-rule:nonzero;stroke:none"
         id="path136" />
      <path
         d="m 8282.4,15747 c 0,0 3.05,15.6 3.7,23.3 -3.81,0 -7.51,0 -11.33,0 -0.21,14.4 -454.62,-834.8 -916.43,-1564.5 -460.39,-748.6 -928.25,-1377.8 -924.7,-1358.2 107.3,-31.8 215.21,-60.9 323.66,-87.2 74.74,109.6 149.64,222.9 224.54,339.1 7.4,-57.2 14.81,-114.5 22.22,-171.9 26.48,30.5 53.17,61.3 79.48,92.1 115.42,74.1 1216.35,2718.5 1211.82,2750.6 -4.24,-7.7 -8.66,-15.6 -12.96,-23.3"
         style="fill:#d3b67a;fill-opacity:1;fill-rule:nonzero;stroke:none"
         id="path138" />
      <path
         d="m 8402.24,15770.3 c -2.07,0 -4.03,0 -6.16,0 -1.58,15.7 398.51,-726.7 819.2,-1398.1 419.43,-684.7 859.62,-1298.5 908.52,-1337.5 -17.7,93.3 -35.3,187.3 -52.9,281.8 113.3,-142.9 226.3,-278.4 338.3,-404.6 170.5,56.7 339.1,120.5 505.4,191.4 -28,-24.5 -657.5,462.3 -1278.91,1158.8 -621.73,662.7 -1235.3,1535 -1233.45,1508.2"
         style="fill:#d3b67a;fill-opacity:1;fill-rule:nonzero;stroke:none"
         id="path140" />
      <path
         d="m 8267.37,15770.3 c -8.99,-15.3 -17.87,-30.5 -26.91,-45.9 2.94,15.7 5.77,31.3 8.6,46.9 6.49,38.3 -618.09,-846.3 -1247.07,-1514 -628.92,-702.6 -1262.27,-1188.1 -1272.89,-1156.2 164.67,-70.1 331.62,-133.1 500.32,-189.2 88.57,68.2 177.74,141.2 267.3,218.4 5.66,-32.9 11.27,-65.8 16.99,-98.9 2.83,-11.2 449.5,590 886.8,1289.3 438.65,683.5 868.11,1465.1 866.86,1449.6"
         style="fill:#d3b67a;fill-opacity:1;fill-rule:nonzero;stroke:none"
         id="path142" />
      <path
         d="m 8363.89,15768.1 c 1.96,-16.1 4.08,-32.3 6.1,-48.4 -4.25,16.9 -8.5,33.7 -12.69,50.6 -3.11,0 -6.16,0 -9.21,0 -4.25,-8.9 558.33,-2690.8 596.36,-2811.1 64.82,-113.2 129.86,-224.8 194.9,-334.4 43.03,5.3 85.95,11 128.88,17.3 -50.88,161 -101.54,323.9 -152.09,488 119.73,-157 239.9,-309.2 359.95,-454.6 45.75,8.1 91.51,16.7 137.16,25.8 -12.21,21.2 -331.08,734.9 -638.79,1497.4 -309.12,754.4 -607.19,1557.7 -610.57,1569.4"
         style="fill:#d3b67a;fill-opacity:1;fill-rule:nonzero;stroke:none"
         id="path144" />
      <path
         d="m 8381.54,15770.3 c -3.44,0 -7.08,0 -10.68,0 3.81,-10.9 314.95,-810.2 636.56,-1554.5 320.18,-753.1 650.6,-1451.3 660.3,-1464.7 -11.22,146.1 -22.44,292.6 -33.67,439.2 82.53,-147.4 164.95,-290.9 247.3,-429.9 108.52,26.3 216.35,55.4 323.65,87.2 3.6,-19.1 -459.06,608.2 -914.77,1355.1 -456.9,728.2 -907.11,1576.2 -908.69,1567.6"
         style="fill:#d3b67a;fill-opacity:1;fill-rule:nonzero;stroke:none"
         id="path146" />
      <path
         d="m 7370.49,12642.1 c 22.17,-3.2 44.34,-6.4 66.51,-9.3 103.61,178 887.34,3113.3 884.29,3137.5 -6.1,0 -12.2,0 -18.41,0 -1.2,4.7 -316.04,-781.5 -643.09,-1516.2 -325.63,-743.4 -663.46,-1435.3 -677.35,-1441.9 -6.16,-32.8 -12.37,-65.6 -18.53,-98.4 66.08,-13.8 132.32,-26.5 198.67,-38.3 120.05,145.4 240.1,297.6 359.94,454.6 -50.49,-164.1 -101.21,-327 -152.03,-488"
         style="fill:#d3b67a;fill-opacity:1;fill-rule:nonzero;stroke:none"
         id="path148" />
      <path
         d="m 8422.34,15770.3 c 0,0 -3.65,0 -5.45,0 0.93,-4.6 1.9,-9.2 2.72,-13.9 -3.97,4.7 -7.84,9.3 -11.82,13.9 3.27,15.4 618.36,-830.8 1235.42,-1469.4 617.09,-671.2 1235.99,-1134.9 1247.39,-1108.2 l -0.6,0.8 c -41.3,58.7 -82.8,119.1 -124.6,181.3 147.2,-59.5 292.7,-107.2 435.5,-141.3 63.7,30.7 190,95.5 190,95.5 l -2968.56,2441.3"
         style="fill:#d3b67a;fill-opacity:1;fill-rule:nonzero;stroke:none"
         id="path150" />
      <path
         d="m 8343.08,15770.3 c -1.96,0 -3.86,0 -5.77,0 0.33,-14.2 -32.2,-3172.9 -34.81,-3196.4 38.18,-0.1 76.31,0.1 114.5,0.8 17.7,114.7 35.13,229.5 52.56,344.2 65.1,-113 130.3,-225.2 195.67,-336 39.54,2.1 79.09,4.5 118.64,7.3 1.19,76.4 2.61,152.8 3.92,229.3 47.28,-73.2 94.67,-145.8 142.06,-217.5 14.38,1.3 28.7,2.8 43.14,4.2 -5.55,-18.5 -635.8,3154.2 -629.91,3164.1"
         style="fill:#d3b67a;fill-opacity:1;fill-rule:nonzero;stroke:none"
         id="path152" />
      <path
         d="m 8221.67,12574.7 c 3.97,-0.1 8.06,-0.2 12.14,-0.2 6.26,44.5 100.07,3186.8 99.14,3189.8 -3.92,-7.8 -7.74,-15.7 -11.66,-23.5 0.22,7.5 0.44,15 0.66,22.6 4.79,-18.5 -747.9,-3040 -778.08,-3063 60.03,53.4 119.95,108 179.87,163.6 -19.4,-86.1 -38.68,-172.1 -58.07,-257.8 14.33,-1.4 28.76,-2.9 43.2,-4.2 47.33,71.7 94.72,144.3 142.01,217.5 1.25,-74 2.5,-147.9 3.86,-221.8 0,-2.5 0,-5 0.11,-7.5 39.49,-2.8 79.04,-5.2 118.59,-7.3 87.91,162.6 175.56,327.8 262.66,494.5 -4.8,-167.7 -9.59,-335.2 -14.43,-502.7"
         style="fill:#d3b67a;fill-opacity:1;fill-rule:nonzero;stroke:none"
         id="path154" />
    </g>
  </g>
</svg>
