<?xml version="1.0" encoding="utf-8"?>
<!-- Generator: Adobe Illustrator 27.5.0, SVG Export Plug-In . SVG Version: 6.00 Build 0)  -->
<svg version="1.1"
	 id="svg2" xmlns:sodipodi="http://sodipodi.sourceforge.net/DTD/sodipodi-0.dtd" xmlns:svg="http://www.w3.org/2000/svg" xmlns:inkscape="http://www.inkscape.org/namespaces/inkscape" sodipodi:docname="2021flat_27.eps"
	 xmlns="http://www.w3.org/2000/svg" xmlns:xlink="http://www.w3.org/1999/xlink" x="0px" y="0px" viewBox="0 0 3733.2 2332"
	 style="enable-background:new 0 0 3733.2 2332;" xml:space="preserve">
<style type="text/css">
	.st0{fill:#202B41;}
	.st1{fill:#F46C67;}
	.st2{fill:#E9E8E7;}
	.st3{fill:#778EA9;}
	.st4{fill:#1B1918;}
	.st5{fill:#455069;}
	.st6{fill:#F3A91B;}
	.st7{fill:#AF4028;}
	.st8{fill:#FFFFFF;}
	.st9{fill:#B37E1D;}
</style>
<sodipodi:namedview  bordercolor="#000000" borderopacity="0.25" id="namedview4" inkscape:deskcolor="#d1d1d1" inkscape:pagecheckerboard="0" inkscape:pageopacity="0.0" inkscape:showpageshadow="2" pagecolor="#ffffff">
	</sodipodi:namedview>
<g id="g8" transform="matrix(1.3333333,0,0,-1.3333333,0,2331.96)" inkscape:groupmode="layer" inkscape:label="ink_ext_XXXXXX">
	<g id="g10" transform="scale(0.1)">
		<path id="path188" class="st0" d="M16058.4,9209.9c-98.8,477.6-601.2,1459-601.2,1459h-1753.9c0,0-502.5-981.4-601.2-1459
			c-98.8-477.6,65.2-898.6,300.6-1045c235.5-146.4,1177.6-164.7,1177.6-164.7s942.1,18.3,1177.6,164.7
			C15993.3,8311.2,16157.2,8732.2,16058.4,9209.9"/>
		<path id="path190" class="st1" d="M13466.9,3644.8c43.1-929.2,65.5-2281,82.5-2445.7c21.7-210.6,524.8,66.7,524.8,66.7
			s149.1,1169.9,232.6,2364.2C14026.8,3631.8,13746.9,3643.3,13466.9,3644.8"/>
		<path id="path192" class="st2" d="M14195.4,1434h-712.3l-31-287.6c0,0-263.2-355.2-191-525.5c72.3-170.3,820.7-157.3,882.6-41
			C14205.7,696.3,14195.4,1434,14195.4,1434"/>
		<path id="path194" class="st3" d="M14169.1,873.1c0,0-282.1,625.2-852.4,161.2l-138.1-336.6c0,0-347.4-166.6-347.4-637.6h1455.4
			c0,0,0,723.9,0,863.3c0,139.3-69.9,329.6-90.6,268.5C14166.5,1104.2,14169.1,873.1,14169.1,873.1"/>
		<path id="path196" class="st0" d="M13810.6,4939.8c292.1,0,627.6,225.7,627.6,483.4l108.8,2720.8c0,257.7-461.1,996-461.1,996
			c-294.9,0-1011.6,11.6-1011.6-246.1l200.2-3485.5C13274.4,5150.7,13599.8,4939.8,13810.6,4939.8"/>
		<path id="path198" class="st0" d="M13873.5,6108.4c-394.2,0-602-298.4-602-584.8l139.5-3334.4c0-286.5,895.7-281.8,895.7,4.7
			c0,0,72.8,1357.2,86.2,1881.1c13.4,523.9,62.2,1544.9,62.2,1544.9C14455.2,5906.4,14267.7,6108.4,13873.5,6108.4"/>
		<path id="path200" class="st4" d="M13810.3,624.7c4,0,7.9,1.5,10.9,4.6c5.7,6,5.5,15.5-0.5,21.2
			c-153.3,145.6-362.5,230.3-573.9,232.5c0,0-0.1,0-0.2,0c-8.2,0-14.9-6.7-15-14.9c-0.1-8.3,6.6-15.1,14.8-15.1
			c203.9-2.1,405.7-83.9,553.5-224.2C13802.9,626,13806.6,624.7,13810.3,624.7"/>
		<path id="path202" class="st4" d="M13213.1,645.7c3.3,0,6.7,1.1,9.5,3.4c159.4,131.1,360.4,214.1,565.8,233.8
			c8.2,0.8,14.3,8.1,13.5,16.4c-0.8,8.2-8.2,14.2-16.4,13.5c-211.3-20.3-418-105.7-582-240.5c-6.4-5.3-7.3-14.7-2.1-21.1
			C13204.4,647.6,13208.7,645.7,13213.1,645.7"/>
		<path id="path204" class="st4" d="M13833,969.8c5.4,0,10.5,2.9,13.2,8c3.9,7.3,1.2,16.4-6.2,20.3
			c-152.9,81.7-338.1,108.8-507.9,74.1c-8.1-1.7-13.4-9.6-11.7-17.7c1.6-8.1,9.5-13.4,17.7-11.7c163.2,33.3,341,7.3,487.8-71.2
			C13828.2,970.4,13830.6,969.8,13833,969.8"/>
		<path id="path206" class="st4" d="M13360.2,945.3c3.3,0,6.6,1,9.4,3.3c126.1,100.9,323.3,171.2,502.3,179.2
			c8.3,0.3,14.7,7.3,14.3,15.6c-0.4,8.3-7.4,15-15.6,14.3c-185-8.2-389-81.1-519.7-185.7c-6.5-5.2-7.5-14.6-2.3-21.1
			C13351.4,947.2,13355.8,945.3,13360.2,945.3"/>
		<path id="path208" class="st1" d="M15687.7,3667.2c-43.1-929.2-65.5-2281-82.5-2445.7c-21.7-210.6-524.8,66.7-524.8,66.7
			s-149.1,1169.9-232.6,2364.2C15127.9,3654.2,15407.7,3665.8,15687.7,3667.2"/>
		<path id="path210" class="st2" d="M14959.3,1456.4h712.3l31-287.6c0,0,263.2-355.2,191-525.5c-72.3-170.3-820.6-157.3-882.6-41
			C14948.9,718.7,14959.3,1456.4,14959.3,1456.4"/>
		<path id="path212" class="st3" d="M14985.6,895.5c0,0,282.1,625.3,852.4,161.2l138.1-336.6c0,0,347.4-166.6,347.4-637.5h-1455.4
			c0,0,0,723.8,0,863.2c0,139.3,69.9,329.7,90.6,268.5C14988.2,1126.6,14985.6,895.5,14985.6,895.5"/>
		<path id="path214" class="st4" d="M15316.8,650.1c-4,0-7.9,1.6-10.9,4.7c-5.7,6-5.5,15.5,0.5,21.2
			c153.3,145.5,362.5,230.3,573.9,232.4c0.1,0,0.1,0,0.2,0c8.2,0,14.9-6.6,15-14.8c0.1-8.3-6.6-15.1-14.8-15.2
			c-203.9-2.1-405.7-83.8-553.5-224.2C15324.2,651.5,15320.5,650.1,15316.8,650.1"/>
		<path id="path216" class="st4" d="M15890.7,696.2c-3.3,0-6.7,1.1-9.5,3.4c-159.4,131.1-360.4,214.1-565.8,233.8
			c-8.2,0.8-14.3,8.1-13.5,16.4c0.8,8.2,8.2,14.2,16.4,13.5c211.3-20.3,418-105.7,582-240.5c6.4-5.3,7.3-14.7,2.1-21.1
			C15899.3,698.1,15895,696.2,15890.7,696.2"/>
		<path id="path218" class="st4" d="M15294.1,995.3c-5.4,0-10.5,2.9-13.2,7.9c-3.9,7.3-1.2,16.4,6.1,20.3
			c152.9,81.8,338.1,108.8,508,74.2c8.1-1.7,13.4-9.6,11.7-17.7c-1.7-8.2-9.5-13.4-17.7-11.7c-163.2,33.3-341,7.3-487.8-71.2
			C15298.9,995.9,15296.5,995.3,15294.1,995.3"/>
		<path id="path220" class="st4" d="M15766.9,970.7c-3.3,0-6.6,1.1-9.4,3.3c-126.1,100.9-323.3,171.3-502.3,179.2
			c-8.3,0.4-14.7,7.4-14.3,15.7c0.4,8.2,7.4,14.9,15.7,14.3c185-8.2,389-81.1,519.7-185.7c6.5-5.2,7.5-14.7,2.3-21.1
			C15775.7,972.7,15771.3,970.7,15766.9,970.7"/>
		<path id="path222" class="st0" d="M15344.1,4962.2c-292.1,0-627.6,225.7-627.6,483.4l-108.8,2720.9c0,257.7,461.1,996,461.1,996
			c294.9,0,1011.6,11.6,1011.6-246.1l-200.2-3485.5C15880.3,5173.1,15554.9,4962.2,15344.1,4962.2"/>
		<path id="path224" class="st0" d="M15281.1,6130.8c394.2,0,602-298.3,602-584.8l-139.5-3334.4c0-286.5-895.7-281.8-895.7,4.7
			c0,0-72.8,1357.2-86.2,1881.1s-62.2,1544.9-62.2,1544.9C14699.5,5928.8,14886.9,6130.8,15281.1,6130.8"/>
		<path id="path226" class="st5" d="M14916,5149.6c154.5-131.1,378-168.2,569.1-103.6c53.7,18.2,104.5,44.1,150,77.8
			c15.3,11.4,0.4,37.5-15.1,26c-155-114.7-367.7-134.5-545-62.4c-49.8,20.3-96.7,48.6-137.8,83.5
			C14922.6,5183.3,14901.3,5162.2,14916,5149.6L14916,5149.6"/>
		<path id="path228" class="st5" d="M13615.2,5064.8c143.9-79.7,317-101,476.5-61.6c45.1,11.2,88.7,27.4,130.3,48
			c17.3,8.6,2.1,34.4-15.1,25.9c-139.6-69.1-304.5-81.4-453.7-37.7c-42.8,12.5-83.9,29.7-122.9,51.3
			C13613.4,5100,13598.3,5074.1,13615.2,5064.8L13615.2,5064.8"/>
		<path id="path230" class="st5" d="M14229.7,4917.9c-67-6.1-134-12.2-201-18.3c-19.1-1.8-19.2-31.8,0-30c67,6.1,134,12.2,201,18.3
			C14248.7,4889.6,14248.9,4919.6,14229.7,4917.9L14229.7,4917.9"/>
		<path id="path232" class="st5" d="M14777,8060.1c118.2,52.8,236.3,105.6,354.5,158.5c17.6,7.9,2.4,33.7-15.1,25.9
			c-118.2-52.8-236.3-105.6-354.5-158.5C14744.3,8078.1,14759.6,8052.3,14777,8060.1L14777,8060.1"/>
		<path id="path234" class="st5" d="M14801.9,7964.7c87.8-5,175.5-10.1,263.2-15.1c19.3-1.1,19.2,28.9,0,30
			c-87.8,5-175.5,10.1-263.2,15.1C14782.6,7995.8,14782.7,7965.8,14801.9,7964.7L14801.9,7964.7"/>
		<path id="path236" class="st5" d="M14564.7,8065.2c-72.3,92.9-144.5,185.8-216.8,278.7c-11.8,15.2-32.9-6.1-21.2-21.2
			c72.2-92.9,144.5-185.8,216.8-278.7C14555.3,8028.8,14576.4,8050.1,14564.7,8065.2L14564.7,8065.2"/>
		<path id="path238" class="st5" d="M14584.6,9030.2c0.5-104.1,1.1-208.3,1.6-312.4c0.3-51.2,0.5-102.5,0.8-153.7
			c0.2-46.1-5.2-97.5,9.5-142c14-42.5,52.3-76.9,99.1-69.2c19,3.2,10.9,32.1-8,28.9c-39.1-6.5-61.8,37.2-67.2,68.8
			c-3.6,21-3,42.6-3.1,63.8c-0.1,23.1-0.2,46.3-0.4,69.4c-0.5,95-1,190.1-1.5,285.2c-0.3,53.7-0.5,107.5-0.8,161.2
			C14614.5,9049.5,14584.5,9049.6,14584.6,9030.2L14584.6,9030.2"/>
		<path id="path240" class="st5" d="M14693.9,8952.6c0-118.7,0-237.4,0-356.1c0-19.3,30-19.3,30,0c0,118.7,0,237.4,0,356.1
			C14723.9,8971.9,14693.9,8972,14693.9,8952.6L14693.9,8952.6"/>
		<path id="path242" class="st6" d="M16086.5,9425.9c-115.7,592.2,131.5,4077,86.6,4128.4c-95,108.8-894.6,378.3-1065,378.3h-1080.2
			c-170.4,0-970-269.5-1065-378.3c-44.9-51.4,202.4-3533.9,87.3-4124.8C12979,9064.4,16157.6,9061.9,16086.5,9425.9"/>
		<path id="path244" class="st6" d="M12806.2,13524.2c184.4,114.2,868.3,129.1,501.7-1045.4c-304.2-974.4-314.2-1593.4-449.4-1894.2
			c-138.8-309-857.4-501.8-941.9-64.7C11832.1,10957,12457,13307.9,12806.2,13524.2"/>
		<path id="path246" class="st1" d="M14285.2,13436.5c-261.6,331.8-386.2,452.6-386.2,452.6s311.4,73.5,647.9,73.5
			c336.5,0,647.9-73.5,647.9-73.5s-124.6-120.8-386.2-452.6C14703.7,13303.4,14390.1,13303.4,14285.2,13436.5"/>
		<path id="path248" class="st1" d="M14992.8,13881.7l-115.9,957.1h-660l-115.9-957.1c-11.5-95.3,62.9-179.2,158.9-179.2h574.1
			C14929.9,13702.5,15004.3,13786.4,14992.8,13881.7"/>
		<path id="path250" class="st4" d="M14216.9,14838.8l-88.4-729.8c276.3-135.8,582-50.3,816.9,163.3l-68.6,566.5H14216.9"/>
		<path id="path252" class="st1" d="M15512.7,16083.9c-6.6,430.9-606.3,761.5-946.2,761.9l0,0l-123.5-1.9l0,0
			c-339.8-10.8-929-359.6-922.4-790.6c0,0,113-880.1,172.9-1225.3c59.9-345.2,655.6-731.9,853.4-731.9s781.3,410.8,830.6,757.7
			C15426.7,15200.7,15512.7,16083.9,15512.7,16083.9"/>
		<path id="path254" class="st1" d="M13696.5,14850.5c-76.6,47.2-153.9,94.9-218.5,153.4c-64.6,58.7-116.5,129.8-131.5,206.6
			c-15,76.9-17.9,171.9,81.3,206.5c83.3,28.9,257.9-152.8,257.9-152.8L13696.5,14850.5"/>
		<path id="path256" class="st1" d="M15330.5,14875.5c75.2,49.6,150.9,99.6,213.6,160.1c62.8,60.6,112.5,133.2,125.1,210.5
			c12.6,77.3,12.7,172.4-87.6,203.9c-84.1,26.4-253.1-160.7-253.1-160.7L15330.5,14875.5"/>
		<path id="path258" class="st7" d="M14550.8,14950.2c5.8,2.5,19.7,9.2,21,17.1c1.2,7.9-30.5,9.6-46.1,13.7
			c-15.6,4.1-31.5,13.6-33.7,30.1c-2.7,20.6,16.9,40,19.9,61.2c0.2,1.4,0.3,2.8,0.4,4.3c-8.8,17.5-27.7,12.2-38.4,0.8
			c-7.1-7.5-11.1-17.2-14.4-26.9c-7.1-21-10.9-43.3-6.8-63.8c4.1-20.6,17-39,36.4-45.3
			C14508.4,14935,14530.1,14941.3,14550.8,14950.2"/>
		<path id="path260" class="st4" d="M14868.4,15421c55.5,28.4,123,5.5,157.9-52.8c4.9-8.2,13.8-12.1,21.6-6.7
			c6.9,4.8,10.6,17.4,5.7,25.7c-21,35.1-50.6,61.6-85.3,74.7c-38.2,14.5-79.3,10.2-115.8-8.5c-7.8-4-9.6-17.7-5.7-25.6
			C14851.5,15418.2,14860.5,15417,14868.4,15421L14868.4,15421"/>
		<path id="path262" class="st4" d="M14210.4,15419.4c-55.1,29.2-122.9,7.2-158.6-50.5c-5.1-8.2-14-12-21.7-6.4
			c-6.8,4.8-10.4,17.5-5.3,25.7c21.6,34.8,51.4,60.9,86.4,73.5c38.4,14,79.5,9.1,115.7-10.1c7.8-4.1,9.4-17.8,5.3-25.7
			C14227.2,15416.3,14218.2,15415.3,14210.4,15419.4L14210.4,15419.4"/>
		<path id="path264" class="st4" d="M15030.3,15242.6c-2.1-63.4-48.3-110.9-99.5-109.1c-51.2,1.9-88,52.3-85.9,115.7
			c2.1,63.5,45.2,113.4,96.5,111.6C14992.5,15359,15032.3,15306.1,15030.3,15242.6"/>
		<path id="path266" class="st4" d="M14052.3,15253.8c-2.1-63.4,32.8-118.4,84.1-120.3c51.2-1.8,99.3,50.3,101.4,113.7
			c2.1,63.5-37.8,116.4-89,118.2C14097.6,15367.2,14054.4,15317.2,14052.3,15253.8"/>
		<path id="path268" class="st8" d="M14892,14903.4c-297.5-63-583.9-40.5-747.7-18.4c28.3-133.8,208.8-247.7,364.1-245.3
			C14711.8,14642.8,14847.6,14731.7,14892,14903.4"/>
		<path id="path270" class="st0" d="M15658.4,15943.3c44.1,4.4,82.9,47.4,76.2,93c-8.4,57-32.1,109.8-67.7,152.8
			c23.9,7.4,45,25,54.8,47.4c19.5,44.4-2.8,90.7-43.7,112c-45.2,23.6-91.5,44.1-139.2,61.9c-1.1,1.5-2.2,3.1-3.4,4.7
			c10.5,8.6,19,19.1,24,30.5c20.4,46.4-4.2,88.3-43.7,112c-50.9,30.6-104.2,56.3-159.1,77.8c41.4,38.3,47.9,113.8-19.7,138.6
			c-76.9,28.3-153,31.6-226.6,12.1c-34.8,84.2-90.4,158.4-164.6,215.7c-55.7,42.9-119.7,3.2-134.9-48.5
			c-35.7,33-77.5,59.4-124.1,76.8c-43,16.1-92.8,0-112-43.7c-2.5-5.8-4.3-12-5.4-18.3c-44.7,37.3-98.3,63.1-159.7,74.7
			c-49.7,9.4-81.9-21.4-91.8-59.1c-85.5,26.3-173.9,25.5-262,0.8c-30.6-8.6-49.9-38.5-53.9-69.5c-46.6-3.8-92.8-12.6-138.8-26.3
			c-50.4-14.9-62.6-59.2-50.1-97.9c-83.3-16.4-159.1-53.6-194.7-131.7c-18.6-40.9-3.3-76.4,24.3-97.3
			c-89-37.9-156.4-129.3-160-226.4c-0.5-14.5,1.5-28.6,6-41.6c-40.1-27.8-71.7-67.1-86.7-114.8c-13.3-42.3-2.3-94.2,43.7-112
			c0.7-0.3,1.4-0.5,2.1-0.7c-33.1-36.7-55.3-83-59.5-133.4c-3.9-45.7,23-89.7,70.7-97.2c9.7-1.5,19.8-1,29.7,1.1
			c0.4-2.8,0.9-5.8,1.4-8.6c-37.8-55.9-60.9-121.5-63.5-189.6c-1.8-45.9,21.5-89.5,70.7-97.3c11.9-1.9,24.9-0.6,37.4,3.3
			c-20.9-63.8-25.8-132.6-13.5-198.9c3.1-16.6,10-32,19.9-44.5c-5.4-5.9-10.8-11.8-16.5-17.5c-32.3-32.7-19.7-93,13.4-119.5
			c39-31.1,87.1-19.3,119.5,13.5c87.2,88.3,143.3,198.1,172,318.3c1.2,5.1,1.9,9.9,2.2,14.6c190.4,20.7,350,65,509.5,165
			c18-33.5,55.4-56.1,101.4-39.2c39.3,14.5,77.4,32,114.2,52c0.1-0.3,0.1-0.5,0.2-0.7c17-45,65.5-63.5,109.5-49.7
			c66.7,20.9,128.1,59.8,175.8,111.1c16.7-47.7,75.8-84.8,131.9-49.1c50.5,32.1,102.2,68.3,147.3,110.1c-2.2-23.5-4.2-47.1-5.7-70.7
			c-2.8-45.8,22.2-89.6,70.7-97.3c17.8-2.8,37.4,1.2,54.4,10.2c-1.3-7.7-1.7-16-0.8-25c13.9-132.4,50-286.7,156.7-375.9
			c63.5-53,139.6,10,136.6,74.2c26-11.3,55.7-10.6,81.7,8.3c34.3,25,49.5,84.3,18.8,118.8c-36.9,41.3-29,106.3-31.4,163.6
			c26.3,10.9,45.1,36,53.2,65.8c24.9,91.3,9.7,183.6-32.8,265.7C15633.6,15943.8,15645.7,15942,15658.4,15943.3"/>
		<path id="path272" class="st6" d="M11984.6,10964.2c-122.5-460.7-60-551.7,34.3-782.2s995.9-1708.3,995.9-1708.3l688.2,576.8
			c0,0-719.2,1220.9-760.7,1427.8c-10.8,54.1-28.4,197.1-54,373.9C12792.2,11516.7,12172.4,11670.1,11984.6,10964.2"/>
		<path id="path274" class="st1" d="M13617.1,8978.5l184.3-229c0,0-260.1-237.1-611.7-323.9l-76,131
			C13113.7,8556.5,13161.2,8827.2,13617.1,8978.5"/>
		<path id="path276" class="st6" d="M16280.5,13524.2c-184.4,114.2-868.3,129.1-501.7-1045.4c304.2-974.4,314.2-1593.4,449.4-1894.2
			c138.8-309,857.4-501.8,941.9-64.7C17254.6,10957,16629.7,13307.9,16280.5,13524.2"/>
		<path id="path278" class="st6" d="M17102.1,10964.2c122.5-460.7,60-551.7-34.3-782.2s-995.9-1708.3-995.9-1708.3l-688.2,576.8
			c0,0,719.2,1220.9,760.7,1427.8c10.8,54.1,28.4,197.1,54,373.9C16294.5,11516.7,16914.3,11670.1,17102.1,10964.2"/>
		<path id="path280" class="st1" d="M15469.6,8978.5l-184.3-229c0,0,260.1-237.1,611.7-323.9l76,131
			C15973,8556.5,15925.5,8827.2,15469.6,8978.5"/>
		<path id="path282" class="st9" d="M16088.2,11213.3c7.3,207.6,14.6,415.3,21.9,623c7.3,206.9,14.5,413.7,21.8,620.6
			c4.1,117.1,8.2,234.3,12.3,351.4c0.7,19.3-29.3,19.3-30,0c-7.3-207.7-14.6-415.4-21.9-623.1c-7.3-206.8-14.5-413.7-21.8-620.5
			c-4.1-117.2-8.2-234.3-12.4-351.4C16057.5,11193.9,16087.5,11194,16088.2,11213.3L16088.2,11213.3"/>
		<path id="path284" class="st9" d="M13082.5,10903.2c-7.8,244.2-15.5,488.5-23.3,732.8c-7.8,243.5-15.5,487-23.2,730.4
			c-4.4,137.1-8.7,274.3-13.1,411.3c-0.6,19.3-30.6,19.4-30,0c7.8-244.3,15.5-488.5,23.3-732.8c7.8-243.5,15.5-487,23.2-730.4
			c4.4-137.1,8.7-274.2,13.1-411.3C13053.1,10883.9,13083.1,10883.8,13082.5,10903.2L13082.5,10903.2"/>
		<path id="path286" class="st9" d="M16191.7,10734.1c67.3,27.8,134.7,55.7,202,83.5c7.5,3.1,12.7,9.9,10.5,18.5
			c-1.9,7.1-11,13.5-18.4,10.4c-67.3-27.8-134.7-55.6-202-83.5c-7.5-3.1-12.7-9.9-10.5-18.4
			C16175.1,10737.5,16184.2,10731,16191.7,10734.1L16191.7,10734.1"/>
		<path id="path288" class="st9" d="M12889.6,10706.6c-69.7,7.7-139.4,15.3-209.1,23c-8.1,0.8-14.9-7.6-15-15c-0.1-8.9,7-14.2,15-15
			c69.7-7.7,139.4-15.3,209.1-23c8.1-0.9,14.9,7.6,15,15C12904.7,10700.4,12897.6,10705.7,12889.6,10706.6L12889.6,10706.6"/>
	</g>
</g>
</svg>
