<?xml version="1.0" encoding="utf-8"?>
<!-- Generator: Adobe Illustrator 27.4.1, SVG Export Plug-In . SVG Version: 6.00 Build 0)  -->
<svg version="1.1"
	 id="svg2" xmlns:svg="http://www.w3.org/2000/svg" xmlns:sodipodi="http://sodipodi.sourceforge.net/DTD/sodipodi-0.dtd" xmlns:inkscape="http://www.inkscape.org/namespaces/inkscape"
	 xmlns="http://www.w3.org/2000/svg" xmlns:xlink="http://www.w3.org/1999/xlink" x="0px" y="0px" viewBox="0 0 600 600"
	 style="enable-background:new 0 0 600 600;" xml:space="preserve">
<style type="text/css">
	.st0{fill:#31606E;}
	.st1{fill:#55AEA4;}
	.st2{fill-rule:evenodd;clip-rule:evenodd;fill:#3A3A3C;}
	.st3{fill:#2EAA49;}
	.st4{fill-rule:evenodd;clip-rule:evenodd;fill:#24693D;}
	.st5{fill-rule:evenodd;clip-rule:evenodd;fill:#2A8646;}
	.st6{fill-rule:evenodd;clip-rule:evenodd;fill:#2EAA49;}
	.st7{fill-rule:evenodd;clip-rule:evenodd;fill:#F9DD09;}
	.st8{fill-rule:evenodd;clip-rule:evenodd;fill:#F37016;}
	.st9{fill-rule:evenodd;clip-rule:evenodd;fill:#505256;}
	.st10{fill:#3A3A3C;}
	.st11{fill-rule:evenodd;clip-rule:evenodd;fill:#97D221;}
	.st12{fill-rule:evenodd;clip-rule:evenodd;fill:#EAB512;}
	.st13{fill:#282626;}
	.st14{fill:#363637;}
	.st15{fill:#A3931F;}
	.st16{fill:#98771F;}
	.st17{fill:#AAA8A7;}
</style>
<sodipodi:namedview  bordercolor="#000000" borderopacity="0.25" id="namedview4" inkscape:deskcolor="#d1d1d1" inkscape:pagecheckerboard="0" inkscape:pageopacity="0.0" inkscape:showpageshadow="2" pagecolor="#ffffff">
	</sodipodi:namedview>
<g id="g8" transform="matrix(1.3333333,0,0,-1.3333333,0,600)" inkscape:groupmode="layer" inkscape:label="ink_ext_XXXXXX">
	<g id="g10" transform="scale(0.1)">
		<path id="path2520" class="st0" d="M2048.9,2671.7l220.7-202.2l71.4,201.1L2048.9,2671.7z"/>
		<path id="path2522" class="st0" d="M1920.2,2672.2l3.8-15l311.2-285l9.3,26.1l-299,273.8L1920.2,2672.2"/>
		<path id="path2524" class="st0" d="M2005.4,2330.5H2214l-270.4,247.7L2005.4,2330.5z"/>
		<path id="path2526" class="st1" d="M2048.9,2671.7l-103.6,0.4l299-273.8l25.3,71.3L2048.9,2671.7"/>
		<path id="path2528" class="st1" d="M1923.9,2657.2l19.7-79l270.4-247.7h6.3l14.8,41.6L1923.9,2657.2"/>
		<path id="path2530" class="st2" d="M2409.7,2330.5v-34.3H2012l-8.9,34.3H2409.7"/>
		<path id="path2532" class="st2" d="M2294.3,2677.4l27.3-10.7L2194.8,2246l-27.3,10.7L2294.3,2677.4"/>
		<path id="path2534" class="st3" d="M2115.7,2252.4l-9.9,0.1l1.3,282.8c0.1,31.4,17.8,55.1,41,55.1h143.8v-11.3h-143.8
			c-17.6,0-30.9-18.8-31-43.8l-0.3-71.6l147.4-0.8l-0.1-11.3l-147.4,0.8L2115.7,2252.4"/>
		<path id="path2536" class="st2" d="M3227.2,2000.5h-413.1v-99h413.1V2000.5z"/>
		<path id="path2538" class="st2" d="M3526.7,2030.5l13,202.3l-458.7,4.4l-93.6-103.7c170.1-4.6,332.1-15.7,397.6-103.7
			L3526.7,2030.5"/>
		<path id="path2540" class="st4" d="M3739.1,2139.3c6.3,0,11.6-4.3,13.8-11l29.6-92.5h-25.9l-32.6,60.5c-2.8,5.1-7.3,8-12.5,8
			h-129.4v35H3739.1"/>
		<path id="path2542" class="st4" d="M3700.8,2123.3l-231.1-1.2l-14.7,183.7h173.7c10.4,0,19.2-7.6,22.9-19.8L3700.8,2123.3"/>
		<path id="path2544" class="st5" d="M3469.1,2129.8l124.7,9.5l6-87c0.9-12.6-7.9-23.7-20.4-25.8l-35.7-6
			c-5.6-0.9-10.7-0.1-15.6,2.6l-41.9,22.6c-7.6,4.1-12.2,11.3-12.8,19.9L3469.1,2129.8"/>
		<path id="path2546" class="st5" d="M2774.2,2738.4v-36.4h-423.9v36.4H2774.2"/>
		<path id="path2548" class="st5" d="M2981.5,2738.4v-36.4h-176.9v36.4H2981.5"/>
		<path id="path2550" class="st2" d="M2329.8,2682v-34.3h-406.3l-8.5,34.3H2329.8"/>
		<path id="path2552" class="st5" d="M2206,2312.3c3.6,0,6.5-3.2,6.5-7.1v-57.1c0-3.9-2.9-7.1-6.5-7.1h-201.3
			c-3.6,0-6.5,3.2-6.5,7.1v57.1c0,3.9,2.9,7.1,6.5,7.1H2206"/>
		<path id="path2554" class="st4" d="M2184.4,1904.9l1.9-22.9l-343.8-27.7l-1.9,23L2184.4,1904.9"/>
		<path id="path2556" class="st5" d="M1588,1972.4l-40.9-14.6l-111,29.3l6.3,23.8L1588,1972.4"/>
		<path id="path2558" class="st5" d="M1447,2011.2l7.9-23.3l-171.6-58.5c-0.7,4-1.7,7.8-3.1,11.5l-3.8,12.1L1447,2011.2"/>
		<path id="path2560" class="st5" d="M2206.4,2227.2l32.4-48.9l8.7-84.5L1844.7,1833l-191.5-29.6l15.5,163.5L2206.4,2227.2"/>
		<path id="path2562" class="st4" d="M3512.2,2432.4l-26.3,2.2l-333.4-1.4l-28,74.8h346.7c9.2,0,17.1-5.4,21.5-14.6L3512.2,2432.4"
			/>
		<path id="path2564" class="st5" d="M3604.9,2131.6c0,0,22,2,22.6,23c2.9,112.8-14.7,216-61,278.3c-4.8,6.4-11.6,9.9-19.6,9.9
			H2259.2l-89.9-265.2c-1.9-5.8-1.8-11.4,0.5-17l111.1-275.3c199,0,392.9,2.5,591.6,2.5c43.1,0,50.5,8.9,69.7,44.8l35.3,168.4
			L3604.9,2131.6"/>
		<path id="path2566" class="st4" d="M2977.4,2101l25.7,126.2l-568.3-0.3l45.9-340.9c130.4,0.7,260.1,1.8,391.8,1.8
			c43.1,0,50.5,8.9,69.7,44.8L2977.4,2101"/>
		<path id="path2568" class="st6" d="M2630.1,2110.4h84.6v-225.1c0-42.3-84.6-41.3-84.6,0V2110.4"/>
		<path id="path2570" class="st7" d="M3626.9,2289.1v-36.6h-187.1v36.6H3626.9"/>
		<path id="path2572" class="st8" d="M3447.3,2551.1c11,0,20-10.3,20-22.8v-15.5c0-2.7-0.4-5.2-1.1-7.6h-37.7
			c-0.7,2.4-1.1,4.9-1.1,7.6v15.5C3427.3,2540.8,3436.3,2551.1,3447.3,2551.1L3447.3,2551.1"/>
		<path id="path2574" class="st2" d="M3468.5,2515.5v-10.3h-42.4v10.3H3468.5"/>
		<path id="path2576" class="st9" d="M3404.3,2275.8l-211.8,3.6l-7.8,140.6H3309c2.5,0,4.6-0.3,6.9-1.1l63.1-21.2
			c9.8-3.3,16.5-12.6,17.4-24.2L3404.3,2275.8"/>
		<path id="path2578" class="st9" d="M3286.1,2455.7c2.8,0,5-2.6,5-5.8v-30.7c0-3.2-2.3-5.8-5-5.8H3271c-2.8,0-5,2.6-5,5.8v30.7
			c0,3.2,2.3,5.8,5,5.8H3286.1"/>
		<path id="path2580" class="st6" d="M2197.1,2239.8c-4.1,0-7.6,2.1-10,5.9c-2.4,3.8-2.9,8.3-1.6,12.7l134.4,442
			c3.5,11.4,12.5,18.8,23.1,18.8h702.1c120.7,0,169.3-100.3,178.9-156.4l49.8-272v-73.8h-113.4c-36-4-49.3-6.4-74.7-22.7
			c-56.1-36.1-77.8-51.1-157.4-51.1h-341.4c-62.4,0-80.2,5.7-119.5,36.9c-43,34.1-61.7,56.7-129.4,56.7
			C2291.1,2236.7,2244.1,2239.9,2197.1,2239.8"/>
		<path id="path2582" class="st2" d="M2835.8,2689.4c62.1,0.4,115.2,1.9,160.7-1.8c91.1-7.4,105.8-139.5,102-206.5
			c-1.7-30.4-11.9-61.4-44.1-61.1h-188.1L2835.8,2689.4"/>
		<path id="path2584" class="st7" d="M2257.7,2254.4l997.8,0.5l-0.1,36.4c-225.3,2.4-458,2.2-643.8-3.6
			C2437.1,2282.3,2304.1,2272,2257.7,2254.4"/>
		<path id="path2586" class="st4" d="M2798.5,2588.8v-28.1h-521.1l8.5,28.1H2798.5"/>
		<path id="path2588" class="st4" d="M2798.5,2719.1v-576h-8.2v576H2798.5"/>
		<path id="path2590" class="st6" d="M2851.3,2691.4l16.1,0.8l34.5-281.4h-17.2L2851.3,2691.4"/>
		<path id="path2592" class="st6" d="M2889,2693.3l16.1,0.8l34.8-283.3h-17.2L2889,2693.3"/>
		<path id="path2594" class="st6" d="M2926.7,2695.1l16.1,0.8l35-285.1h-17.2L2926.7,2695.1"/>
		<path id="path2596" class="st6" d="M2964.4,2696.9l16.1,0.8l35.2-287h-17.2L2964.4,2696.9"/>
		<path id="path2598" class="st6" d="M3002,2698.8l16.1,0.8l35.4-288.8h-17.2L3002,2698.8"/>
		<path id="path2600" class="st6" d="M3039.7,2700.6l16.1,0.8l35.7-290.6h-17.2L3039.7,2700.6"/>
		<path id="path2602" class="st6" d="M3440.6,2290.3v-73.4h-166.7v73.4H3440.6"/>
		<path id="path2604" class="st6" d="M2318.7,2691.1c2.8,0,5.2-2.5,5.2-5.5v-14.2c0-3-2.3-5.5-5.2-5.5h-403.1
			c-2.8,0-5.2,2.5-5.2,5.5v14.2c0,3,2.3,5.5,5.2,5.5H2318.7"/>
		<path id="path2606" class="st7" d="M2287.4,2016.1c3.5,0,6.3-2.8,6.3-6.3c0-3.5-2.8-6.3-6.3-6.3c-3.5,0-6.3,2.8-6.3,6.3
			C2281.1,2013.3,2283.9,2016.1,2287.4,2016.1"/>
		<path id="path2608" class="st7" d="M2325.2,2003.8c2.8-2.1,3.5-6,1.4-8.8c-2.1-2.8-6-3.5-8.8-1.4c-2.8,2.1-3.5,6-1.4,8.8
			C2318.4,2005.3,2322.4,2005.9,2325.2,2003.8"/>
		<path id="path2610" class="st7" d="M2249.7,2003.8c2.8,2.1,6.8,1.4,8.8-1.4c2.1-2.8,1.4-6.8-1.4-8.9c-2.8-2.1-6.8-1.4-8.8,1.4
			C2246.2,1997.8,2246.8,2001.8,2249.7,2003.8"/>
		<path id="path2612" class="st9" d="M1252.3,2057.8l92.7-53.5c6.3-3.6,9.9-9.9,9.9-17.1v-107c0-7.3-3.6-13.5-9.9-17.1l-92.7-53.5
			c-6.3-3.6-13.5-3.6-19.8,0l-92.7,53.5c-6.3,3.6-9.9,9.9-9.9,17.1v107c0,7.3,3.6,13.5,9.9,17.1l92.7,53.5
			C1238.8,2061.4,1246,2061.4,1252.3,2057.8z M1230.2,2087.3c7.8,4.5,16.7,4.5,24.5,0l114.7-66.2c7.8-4.5,12.2-12.2,12.2-21.2
			v-132.4c0-9-4.4-16.7-12.2-21.2l-114.7-66.2c-7.8-4.5-16.7-4.5-24.5,0l-114.7,66.2c-7.8,4.5-12.2,12.2-12.2,21.2v132.4
			c0,9,4.5,16.7,12.2,21.2L1230.2,2087.3"/>
		<path id="path2614" class="st9" d="M1119.7,1993.5l105.6-60.9l-105.6-60.9l8.6-14.9l105.6,60.9v-121.9h17.1v121.9l105.6-60.9
			l8.6,14.9l-105.6,60.9l105.6,60.9l-8.6,14.8l-105.6-60.9v121.9h-17.1v-121.9l-105.6,60.9L1119.7,1993.5"/>
		<path id="path2616" class="st6" d="M1191.9,1951.8l25.4,80.8c2.9,11.5,12.6,21,25.1,21s20.3-9.8,25.1-21l25.4-80.8
			c2.3-6,3.5-12.4,3.5-19.2c0-29.8-24.2-54-54-54s-54,24.2-54,54C1188.4,1939.4,1189.7,1945.9,1191.9,1951.8"/>
		<path id="path2618" class="st6" d="M1668.5,2007.8c-3.3,4.3-8.7,5.9-13.8,4.1L1232,1860.5c-3.5-1.3-6.1-3.8-7.4-7.3
			c-1.3-3.5-1-7.1,0.9-10.3l46.9-81.3c2.2-3.9,6.1-6.1,10.6-6.1h324.3c8.7,0,16.1,4.1,20.7,11.5l96.7,154.7
			c2.8,4.4,2.5,9.8-0.7,13.9L1668.5,2007.8"/>
		<path id="path2620" class="st6" d="M1160.5,1901.5c-0.8,2.1-2.3,3.6-4.5,4.4c-2.1,0.7-4.3,0.5-6.2-0.7l-177.9-109.6l0.4-12.2
			c0.1-2.4,1.3-4.5,3.3-5.9c2-1.3,4.4-1.6,6.7-0.7l189.5,73.7c3.7,1.5,5.6,5.7,4.2,9.4L1160.5,1901.5"/>
		<path id="path2622" class="st2" d="M2053.4,2661v-348.8h-19.7V2661H2053.4"/>
		<path id="path2624" class="st4" d="M2672.3,1926.8c15,0,27.1-12.1,27.1-27.1c0-15-12.1-27.1-27.1-27.1s-27.1,12.1-27.1,27.1
			C2645.2,1914.7,2657.4,1926.8,2672.3,1926.8"/>
		<path id="path2626" class="st5" d="M2714.6,1961.5v-9.6h-84.6v9.6H2714.6"/>
		<path id="path2628" class="st8" d="M2383.9,2763.9c11,0,20-10.3,20-22.8v-15.5c0-2.7-0.4-5.2-1.1-7.6H2365
			c-0.7,2.4-1.1,4.9-1.1,7.6v15.5C2363.9,2753.6,2372.9,2763.9,2383.9,2763.9L2383.9,2763.9"/>
		<path id="path2630" class="st2" d="M2405.1,2728.3V2718h-42.4v10.3H2405.1"/>
		<path id="path2632" class="st2" d="M1966.5,2586.8c-4.5,0-8.2-4.2-8.2-9.4v-98.1c0-5.2,3.7-9.4,8.2-9.4h25.4
			c4.5,0,8.2,4.2,8.2,9.4v98.1c0,5.2-3.7,9.4-8.2,9.4H1966.5"/>
		<path id="path2634" class="st10" d="M1974.2,2571v34.8c0,17.5,12.5,31.8,27.8,31.9l38.9,0.2l0-8.1l-38.9-0.2
			c-11.5-0.1-20.8-10.8-20.8-23.9V2571H1974.2"/>
		<path id="path2636" class="st3" d="M3330.9,2282.8l-61.9,326.4c-5.7,30.1-18.4,66.1-46.5,66.1h-88.7v11.3h88.7
			c27.5,0,46.9-25.9,56.2-75l61.9-326.5L3330.9,2282.8"/>
		<path id="path2638" class="st11" d="M2220.3,2330.5c101.6,45.8,337.1,86.8,471.7,87.7l284.6,1.8c58.6,0.4,97.7-9.2,111.4,19.1
			l18.5-15.9c-15.5-28.6-26.1-27.7-77.2-27.7l-351.5,0.1C2576.2,2395.7,2389.4,2380.5,2220.3,2330.5"/>
		<path id="path2640" class="st4" d="M3088,2439.1l18.5-15.9c23.6,126.7,17.1,246.1-109.6,266.6
			C3089.6,2658.2,3116.4,2555.5,3088,2439.1"/>
		<path id="path2642" class="st2" d="M2287.4,2166.6c118.6,0,214.8-96.2,214.8-214.8c0-118.6-96.2-214.8-214.8-214.8
			c-118.6,0-214.8,96.2-214.8,214.8C2072.7,2070.5,2168.8,2166.6,2287.4,2166.6"/>
		<path id="path2644" class="st9" d="M2287.4,2136c101.7,0,184.2-82.5,184.2-184.2c0-101.7-82.5-184.2-184.2-184.2
			c-101.7,0-184.2,82.5-184.2,184.2C2103.3,2053.6,2185.7,2136,2287.4,2136"/>
		<path id="path2646" class="st9" d="M2342.1,2160.6l-6.2-37.8c-5.7,1.6-11.5,2.9-17.5,4l11.2,36.7
			C2333.8,2162.6,2338,2161.7,2342.1,2160.6 M2384.3,2144.7l-13.9-35.7c-5.3,2.8-10.7,5.3-16.3,7.6l18.6,33.6
			C2376.6,2148.4,2380.5,2146.6,2384.3,2144.7 M2422.3,2120.3l-21.1-32c-4.6,3.8-9.4,7.4-14.3,10.8l25.2,29
			C2415.5,2125.5,2418.9,2122.9,2422.3,2120.3 M2454.3,2088.6l-27.3-27c-3.7,4.7-7.6,9.2-11.8,13.5l30.6,23.1
			C2448.8,2095.1,2451.6,2091.9,2454.3,2088.6 M2479.1,2050.9l-32.3-20.7c-2.7,5.4-5.6,10.6-8.7,15.7l34.8,16.2
			C2475.1,2058.4,2477.2,2054.7,2479.1,2050.9 M2495.5,2008.9l-35.9-13.5c-1.5,5.8-3.2,11.6-5.2,17.1l37.4,8.6
			C2493.2,2017.1,2494.4,2013,2495.5,2008.9 M2502.8,1964.4l-37.9-5.8c-0.2,6-0.8,12-1.6,17.9l38.4,0.7
			C2502.2,1972.9,2502.6,1968.6,2502.8,1964.4 M2500.7,1919.3l-38.3,2.2c1,5.9,1.7,11.8,2.1,17.8l37.7-7.3
			C2501.9,1927.8,2501.4,1923.5,2500.7,1919.3 M2489.3,1875.7l-37,10.1c2.2,5.5,4.2,11.2,5.8,17l35.3-15
			C2492.2,1883.7,2490.8,1879.7,2489.3,1875.7 M2469,1835.4L2435,1853c3.3,4.9,6.4,10.1,9.2,15.4l31.4-22
			C2473.5,1842.6,2471.3,1839,2469,1835.4 M2440.8,1800.2l-29.7,24.3c4.3,4.2,8.4,8.6,12.2,13.1l26.2-28
			C2446.7,1806.4,2443.8,1803.2,2440.8,1800.2 M2406,1771.6l-24,29.9c5.1,3.2,10,6.6,14.7,10.3l19.8-32.9
			C2413,1776.4,2409.5,1774,2406,1771.6 M2365.9,1750.9l-17.2,34.3c5.6,2.1,11.1,4.4,16.5,7l12.5-36.3
			C2373.8,1754.1,2369.9,1752.4,2365.9,1750.9 M2322.4,1739l-9.7,37.1c6,0.8,11.8,2,17.6,3.4l4.7-38.1
			C2330.8,1740.5,2326.6,1739.7,2322.4,1739 M2277.4,1736.4l-1.8,38.3c3.9-0.3,7.9-0.4,11.9-0.4c2,0,4.1,0.1,6.1,0.1l-3.3-38.2
			c-0.9,0-1.8,0-2.7,0C2284.1,1736.1,2280.7,1736.2,2277.4,1736.4 M2232.8,1743.1l6.2,37.9c5.7-1.6,11.5-3,17.5-4l-11.2-36.7
			C2241,1741.1,2236.9,1742.1,2232.8,1743.1 M2190.6,1759.1l13.9,35.7c5.3-2.8,10.7-5.3,16.2-7.6l-18.6-33.6
			C2198.2,1755.3,2194.4,1757.2,2190.6,1759.1 M2152.6,1783.5l21.1,32c4.6-3.8,9.4-7.4,14.3-10.8l-25.2-29
			C2159.4,1778.2,2156,1780.8,2152.6,1783.5 M2120.6,1815.2l27.3,27c3.7-4.7,7.6-9.2,11.8-13.5l-30.6-23.1
			C2126.1,1808.6,2123.3,1811.9,2120.6,1815.2 M2095.8,1852.8l32.3,20.7c2.7-5.4,5.6-10.6,8.7-15.7l-34.8-16.2
			C2099.8,1845.3,2097.7,1849,2095.8,1852.8 M2079.3,1894.8l35.9,13.5c1.5-5.8,3.2-11.5,5.2-17.1l-37.4-8.7
			C2081.7,1886.6,2080.5,1890.7,2079.3,1894.8 M2072.1,1939.4l37.9,5.8c0.2-6,0.8-12,1.6-17.9l-38.4-0.7
			C2072.7,1930.8,2072.3,1935.1,2072.1,1939.4 M2074.1,1984.4l38.3-2.2c-1-5.8-1.7-11.8-2.1-17.8l-37.7,7.3
			C2073,1976,2073.5,1980.2,2074.1,1984.4 M2085.6,2028.1l37-10.1c-2.2-5.5-4.2-11.2-5.8-17l-35.3,15
			C2082.7,2020,2084.1,2024.1,2085.6,2028.1 M2105.8,2068.3l34.1-17.6c-3.3-4.9-6.4-10.1-9.2-15.4l-31.4,22
			C2101.3,2061.1,2103.5,2064.8,2105.8,2068.3 M2134.1,2103.5l29.7-24.3c-4.3-4.2-8.4-8.6-12.2-13.1l-26.2,28.1
			C2128.1,2097.4,2131,2100.5,2134.1,2103.5 M2168.9,2132.1l24-29.9c-5.1-3.2-10-6.6-14.7-10.3l-19.8,32.9
			C2161.9,2127.3,2165.4,2129.8,2168.9,2132.1 M2209,2152.9l17.2-34.3c-5.6-2.1-11.1-4.4-16.5-7l-12.5,36.3
			C2201.1,2149.6,2205,2151.3,2209,2152.9 M2252.5,2164.8l9.7-37.1c-6-0.9-11.8-2-17.6-3.4l-4.7,38.1
			C2244.1,2163.3,2248.3,2164.1,2252.5,2164.8 M2297.5,2167.4c-3.3,0.2-6.7,0.2-10.1,0.2c-0.9,0-1.8,0-2.7,0l-3.3-38.2
			c2,0.1,4,0.1,6.1,0.1c4,0,7.9-0.1,11.9-0.4L2297.5,2167.4"/>
		<path id="path2648" class="st7" d="M2287.4,2071.2c65.9,0,119.3-53.4,119.3-119.3c0-65.9-53.4-119.3-119.3-119.3
			c-65.9,0-119.3,53.4-119.3,119.3C2168.1,2017.7,2221.6,2071.2,2287.4,2071.2"/>
		<path id="path2650" class="st12" d="M2287.4,2050.4c54.4,0,98.5-44.1,98.5-98.5c0-54.4-44.1-98.5-98.5-98.5
			c-54.4,0-98.5,44.1-98.5,98.5C2188.9,2006.3,2233,2050.4,2287.4,2050.4"/>
		<path id="path2652" class="st7" d="M2287.4,1992.9c22.6,0,41-18.4,41-41c0-22.6-18.4-41-41-41c-22.6,0-41,18.4-41,41
			C2246.4,1974.5,2264.8,1992.9,2287.4,1992.9"/>
		<path id="path2654" class="st7" d="M2348.5,1971.7c1.1-3.3-0.8-6.9-4.1-8c-3.3-1.1-6.9,0.7-8,4.1c-1.1,3.3,0.7,6.9,4.1,8
			C2343.9,1976.9,2347.5,1975,2348.5,1971.7"/>
		<path id="path2656" class="st7" d="M2348.5,1932c-1.1-3.3-4.7-5.1-8-4.1c-3.3,1.1-5.1,4.6-4.1,8c1.1,3.3,4.6,5.1,8,4.1
			C2347.8,1938.9,2349.6,1935.3,2348.5,1932"/>
		<path id="path2658" class="st7" d="M2325.2,1899.9c-2.8-2.1-6.8-1.4-8.9,1.4c-2,2.8-1.4,6.8,1.4,8.8c2.8,2.1,6.8,1.4,8.8-1.4
			C2328.7,1905.9,2328,1901.9,2325.2,1899.9"/>
		<path id="path2660" class="st7" d="M2287.5,1887.6c-3.5,0-6.3,2.8-6.3,6.3c0,3.5,2.8,6.3,6.3,6.3c3.5,0,6.3-2.8,6.3-6.3
			C2293.8,1890.5,2290.9,1887.6,2287.5,1887.6"/>
		<path id="path2662" class="st7" d="M2249.7,1899.9c-2.8,2-3.5,6-1.4,8.8c2,2.8,6,3.5,8.8,1.4c2.8-2.1,3.5-6,1.4-8.8
			C2256.5,1898.5,2252.5,1897.8,2249.7,1899.9"/>
		<path id="path2664" class="st7" d="M2226.3,1932c-1.1,3.3,0.8,6.9,4.1,8c3.3,1.1,6.9-0.7,8-4.1c1.1-3.3-0.7-6.9-4.1-8
			C2231,1926.9,2227.4,1928.7,2226.3,1932"/>
		<path id="path2666" class="st7" d="M2226.3,1971.7c1.1,3.3,4.6,5.1,8,4.1c3.3-1.1,5.1-4.7,4.1-8c-1.1-3.3-4.7-5.1-8-4.1
			C2227.1,1964.8,2225.3,1968.4,2226.3,1971.7"/>
		<path id="path2668" class="st13" d="M2277.3,1737.3c-10.8,0.5-21.4,1.8-31.8,3.9l9,29.4c7-1.3,14.1-2.1,21.4-2.6L2277.3,1737.3
			 M2232.9,1744.1c-10.4,2.7-20.6,6.2-30.3,10.4l14.9,26.9c6.6-2.7,13.4-5,20.4-7L2232.9,1744.1 M2190.9,1760
			c-9.6,4.8-18.8,10.3-27.4,16.5l20.2,23.2c5.9-4,12.1-7.7,18.4-11.1L2190.9,1760 M2153.1,1784.2c-8.3,6.7-16.2,14-23.4,21.8
			l24.6,18.5c5-5.2,10.2-10.1,15.7-14.7L2153.1,1784.2 M2121.2,1815.8c-6.8,8.2-12.9,17-18.4,26.2l27.9,13c3.8-6.1,7.9-12,12.4-17.6
			L2121.2,1815.8 M2096.6,1853.3c-4.9,9.4-9.1,19.3-12.6,29.5l30,6.9c2.4-6.8,5.3-13.4,8.4-19.8L2096.6,1853.3 M2080.2,1895.2
			c-2.8,10.2-4.8,20.7-6.1,31.4l30.8,0.5c1-7.2,2.3-14.2,4.1-21.1L2080.2,1895.2 M2073,1939.5c-0.2,4.1-0.3,8.2-0.3,12.4
			c0,6.6,0.3,13.2,0.9,19.7l30.2-5.9c-0.3-4.6-0.5-9.2-0.5-13.8c0-2.6,0.1-5.2,0.2-7.7L2073,1939.5 M2105.8,1982.6l-30.7,1.8
			c1.6,10.7,4,21.1,7.2,31.2l28.3-12C2108.6,1996.7,2107,1989.7,2105.8,1982.6 M2116.1,2019.7l-29.7,8.1c3.8,10.1,8.3,19.8,13.6,29
			l25.2-17.6C2121.8,2032.9,2118.8,2026.4,2116.1,2019.7 M2134,2053.8l-27.3,14.1c5.8,9,12.2,17.6,19.3,25.6l21-22.5
			C2142.3,2065.5,2138,2059.8,2134,2053.8 M2158.6,2083.4l-23.8,19.5c7.5,7.6,15.6,14.6,24.1,21l15.9-26.4
			C2169.1,2093.2,2163.7,2088.5,2158.6,2083.4 M2188.7,2107.4l-19.2,24c8.9,5.9,18.2,11.1,28,15.6l10-29.1
			C2201.1,2114.7,2194.8,2111.2,2188.7,2107.4 M2223.2,2124.5l-13.8,27.5c9.9,3.9,20.1,7,30.6,9.4l3.8-30.5
			C2236.8,2129.1,2229.9,2127,2223.2,2124.5 M2260.5,2134.1l-7.8,29.8c10.4,1.7,21.1,2.6,31.9,2.8l-2.7-30.7
			C2274.7,2135.8,2267.6,2135.1,2260.5,2134.1"/>
		<path id="path2670" class="st14" d="M2275.9,1768c-7.2,0.4-14.4,1.3-21.4,2.6l1.9,6.3c-5.9,1.1-11.8,2.4-17.5,4l-1.1-6.6
			c-7,1.9-13.8,4.3-20.4,7l3.2,5.8c-5.6,2.3-11,4.8-16.2,7.6l-2.4-6.2c-6.4,3.3-12.5,7.1-18.4,11.1l4.3,5c-5,3.3-9.7,7-14.3,10.8
			l-3.7-5.6c-5.5,4.6-10.8,9.5-15.7,14.7l5.3,4c-4.2,4.3-8.1,8.8-11.8,13.5l-4.7-4.7c-4.5,5.6-8.6,11.5-12.4,17.6l6,2.8
			c-3.2,5.1-6.1,10.3-8.7,15.7l-5.6-3.6c-3.2,6.4-6,13-8.4,19.8l6.5,1.5c-2,5.6-3.8,11.3-5.2,17.1l-6.2-2.3
			c-1.8,6.9-3.1,13.9-4.1,21.1l6.6,0.1c-0.8,5.9-1.3,11.8-1.6,17.9l-6.6-1c-0.1,2.6-0.2,5.1-0.2,7.7c0,4.6,0.2,9.2,0.5,13.8l6.5-1.3
			c0.4,6,1.2,12,2.2,17.8l-6.6,0.4c1.2,7.1,2.8,14.2,4.8,21l6.1-2.6c1.7,5.8,3.6,11.4,5.8,17l-6.4,1.8c2.7,6.7,5.7,13.2,9.1,19.5
			l5.4-3.8c2.8,5.3,5.9,10.4,9.2,15.4l-5.9,3.1c4,6,8.3,11.7,12.9,17.2l4.5-4.9c3.8,4.6,7.9,9,12.2,13.1l-5.1,4.2
			c5.1,5,10.5,9.7,16.2,14.1l3.4-5.7c4.7,3.7,9.6,7.1,14.7,10.3l-4.1,5.2c6,3.8,12.3,7.3,18.8,10.5l2.2-6.3c5.4,2.6,10.9,5,16.5,7
			l-3,5.9c6.7,2.5,13.6,4.6,20.6,6.3l0.8-6.6c5.8,1.4,11.6,2.6,17.6,3.4l-1.7,6.4c7,1,14.2,1.7,21.4,1.9l-0.6-6.6l0,0l0,0
			c2,0.1,4,0.1,6.1,0.1c0,0,0,0,0,0v-58.3c0,0,0,0,0,0c-65.9,0-119.3-53.4-119.3-119.3c0-65.9,53.4-119.3,119.3-119.3c0,0,0,0,0,0
			v-58.3c0,0,0,0,0,0c-4,0-7.9,0.1-11.9,0.4L2275.9,1768"/>
		<path id="path2672" class="st14" d="M2287.4,1737.1c-3.4,0-6.8,0.1-10.1,0.2l-1.4,30.7l-0.3,6.6c3.9-0.3,7.9-0.4,11.9-0.4
			c0,0,0,0,0,0L2287.4,1737.1L2287.4,1737.1 M2245.5,1741.2c-4.2,0.8-8.4,1.8-12.6,2.9l5,30.4l1.1,6.6c5.7-1.6,11.5-3,17.5-4
			l-1.9-6.3L2245.5,1741.2 M2202.6,1754.5c-4,1.7-7.9,3.5-11.7,5.5l11.2,28.6l2.4,6.2c5.3-2.8,10.7-5.3,16.2-7.6l-3.2-5.8
			L2202.6,1754.5 M2163.5,1776.5c-3.5,2.5-7,5.1-10.3,7.8l16.9,25.7l3.7,5.6c4.6-3.8,9.4-7.4,14.3-10.8l-4.3-5L2163.5,1776.5
			 M2129.7,1806.1c-2.9,3.2-5.8,6.4-8.5,9.8l21.9,21.6l4.7,4.7c3.7-4.7,7.6-9.2,11.8-13.5l-5.3-4L2129.7,1806.1 M2102.8,1842
			c-2.2,3.7-4.3,7.5-6.3,11.3l25.9,16.6l5.6,3.6c2.7-5.4,5.6-10.6,8.7-15.7l-6-2.8L2102.8,1842 M2084,1882.8
			c-1.4,4.1-2.6,8.2-3.8,12.4l28.8,10.9l6.2,2.3c1.5-5.8,3.2-11.5,5.2-17.1l-6.5-1.5L2084,1882.8 M2074.1,1926.6
			c-0.5,4.3-0.9,8.5-1.1,12.9l30.4,4.6l6.6,1c0.2-6,0.8-12,1.6-17.9l-6.7-0.1L2074.1,1926.6 M2110.3,1964.4l-6.5,1.3l-30.2,5.9
			c0.4,4.3,0.9,8.6,1.6,12.8l30.7-1.8l6.6-0.4C2111.4,1976.4,2110.7,1970.4,2110.3,1964.4 M2116.7,2001l-6.1,2.6l-28.3,12
			c1.3,4.1,2.7,8.2,4.2,12.2l29.7-8.1l6.4-1.8C2120.3,2012.4,2118.4,2006.7,2116.7,2001 M2130.7,2035.4l-5.4,3.8l-25.2,17.6
			c2.1,3.8,4.3,7.5,6.7,11.1l27.3-14.1l5.9-3.1C2136.6,2045.8,2133.5,2040.7,2130.7,2035.4 M2151.5,2066.1l-4.5,4.9l-21,22.5
			c2.8,3.2,5.8,6.4,8.8,9.5l23.8-19.5l5.1-4.2C2159.4,2075.1,2155.3,2070.7,2151.5,2066.1 M2178.2,2091.9l-3.4,5.7l-15.9,26.4
			c3.4,2.6,7,5.1,10.6,7.4l19.2-24l4.1-5.2C2187.8,2099,2182.9,2095.6,2178.2,2091.9 M2209.7,2111.6l-2.2,6.3l-10,29.1
			c3.9,1.8,7.9,3.5,11.9,5.1l13.8-27.5l3-5.9C2220.6,2116.5,2215.1,2114.2,2209.7,2111.6 M2244.6,2124.3l-0.8,6.6l-3.8,30.5
			c4.2,0.9,8.4,1.8,12.7,2.5l7.8-29.8l1.7-6.4C2256.2,2126.8,2250.4,2125.7,2244.6,2124.3 M2281.4,2129.3l0.6,6.6l2.7,30.7
			c0.9,0,1.9,0,2.8,0h0v-37.2c0,0,0,0,0,0C2285.4,2129.5,2283.4,2129.4,2281.4,2129.3"/>
		<path id="path2674" class="st15" d="M2287.4,1832.5c-65.9,0-119.3,53.4-119.3,119.3c0,65.9,53.4,119.3,119.3,119.3c0,0,0,0,0,0
			v-20.8c0,0,0,0,0,0c-54.4,0-98.5-44.1-98.5-98.5c0-54.4,44.1-98.5,98.5-98.5c0,0,0,0,0,0L2287.4,1832.5
			C2287.5,1832.5,2287.4,1832.5,2287.4,1832.5"/>
		<path id="path2676" class="st16" d="M2287.4,1853.3c-54.4,0-98.5,44.1-98.5,98.5c0,54.4,44.1,98.5,98.5,98.5c0,0,0,0,0,0v-57.5
			c0,0,0,0,0,0c-22.6,0-41-18.4-41-41c0-22.6,18.4-41,41-41c0,0,0,0,0,0v-10.6c-3.5,0-6.3-2.8-6.3-6.3c0-3.5,2.8-6.3,6.3-6.3
			L2287.4,1853.3C2287.4,1853.3,2287.4,1853.3,2287.4,1853.3 M2253.4,1911.3c-2,0-3.9-0.9-5.1-2.6c-2.1-2.8-1.4-6.8,1.4-8.8
			c1.1-0.8,2.4-1.2,3.7-1.2c2,0,3.9,0.9,5.1,2.6c2.1,2.8,1.4,6.8-1.4,8.8C2256,1910.9,2254.7,1911.3,2253.4,1911.3 M2232.4,1940.3
			c-0.6,0-1.3-0.1-2-0.3c-3.3-1.1-5.1-4.7-4.1-8c0.9-2.7,3.4-4.4,6-4.4c0.6,0,1.3,0.1,1.9,0.3c3.3,1.1,5.1,4.7,4.1,8
			C2237.5,1938.6,2235,1940.3,2232.4,1940.3 M2232.4,1976.1c-2.7,0-5.2-1.7-6-4.4c-1.1-3.3,0.7-6.9,4.1-8c0.6-0.2,1.3-0.3,2-0.3
			c2.7,0,5.1,1.7,6,4.4c1.1,3.3-0.8,6.9-4.1,8C2233.7,1976,2233,1976.1,2232.4,1976.1"/>
		<path id="path2678" class="st15" d="M2287.4,1910.9c-22.6,0-41,18.4-41,41c0,22.6,18.4,41,41,41c0,0,0,0,0,0L2287.4,1910.9
			C2287.4,1910.9,2287.4,1910.9,2287.4,1910.9"/>
		<path id="path2680" class="st15" d="M2287.5,1887.6c-3.5,0-6.3,2.8-6.3,6.3c0,3.5,2.8,6.3,6.3,6.3V1887.6"/>
		<path id="path2682" class="st15" d="M2253.4,1898.7c-1.3,0-2.6,0.4-3.7,1.2c-2.8,2-3.5,6-1.4,8.8c1.2,1.7,3.2,2.6,5.1,2.6
			c1.3,0,2.6-0.4,3.7-1.2c2.8-2.1,3.5-6,1.4-8.8C2257.3,1899.6,2255.4,1898.7,2253.4,1898.7"/>
		<path id="path2684" class="st15" d="M2232.4,1927.6c-2.7,0-5.2,1.7-6,4.4c-1.1,3.3,0.8,6.9,4.1,8c0.6,0.2,1.3,0.3,2,0.3
			c2.7,0,5.1-1.7,6-4.4c1.1-3.3-0.7-6.9-4.1-8C2233.7,1927.7,2233,1927.6,2232.4,1927.6"/>
		<path id="path2686" class="st15" d="M2232.4,1963.4c-0.6,0-1.3,0.1-2,0.3c-3.3,1.1-5.1,4.6-4.1,8c0.9,2.7,3.3,4.4,6,4.4
			c0.6,0,1.3-0.1,2-0.3c3.3-1.1,5.1-4.7,4.1-8C2237.5,1965.1,2235,1963.4,2232.4,1963.4"/>
		<path id="path2688" class="st2" d="M3198.3,2081.5c95.1,0,172.3-77.2,172.3-172.3c0-95.1-77.2-172.3-172.3-172.3
			c-95.1,0-172.3,77.2-172.3,172.3C3026,2004.3,3103.2,2081.5,3198.3,2081.5"/>
		<path id="path2690" class="st9" d="M3198.3,2056.9c81.6,0,147.8-66.2,147.8-147.8c0-81.6-66.2-147.8-147.8-147.8
			c-81.6,0-147.8,66.2-147.8,147.8C3050.6,1990.8,3116.7,2056.9,3198.3,2056.9"/>
		<path id="path2692" class="st9" d="M3242.2,2076.6l-5-30.4c-4.6,1.3-9.3,2.4-14,3.2l9,29.4
			C3235.6,2078.3,3238.9,2077.5,3242.2,2076.6 M3276,2063.8l-11.2-28.7c-4.2,2.2-8.6,4.3-13,6.1l14.9,26.9
			C3269.9,2066.8,3273,2065.4,3276,2063.8 M3306.5,2044.3l-16.9-25.7c-3.7,3.1-7.5,6-11.5,8.7l20.2,23.2
			C3301.1,2048.5,3303.8,2046.4,3306.5,2044.3 M3332.2,2018.8l-21.9-21.6c-3,3.8-6.1,7.4-9.5,10.9l24.6,18.5
			C3327.8,2024.1,3330,2021.5,3332.2,2018.8 M3352.1,1988.6l-25.9-16.6c-2.1,4.3-4.5,8.5-7,12.6l27.9,13
			C3348.9,1994.7,3350.5,1991.7,3352.1,1988.6 M3365.3,1954.9l-28.8-10.9c-1.2,4.7-2.6,9.3-4.2,13.8l30,6.9
			C3363.4,1961.5,3364.4,1958.2,3365.3,1954.9 M3371.1,1919.2l-30.4-4.6c-0.2,4.8-0.6,9.6-1.3,14.3l30.8,0.5
			C3370.6,1926.1,3370.9,1922.7,3371.1,1919.2 M3369.4,1883.1l-30.7,1.8c0.8,4.7,1.4,9.5,1.7,14.3l30.2-5.9
			C3370.3,1889.8,3369.9,1886.4,3369.4,1883.1 M3360.3,1848.1l-29.7,8.1c1.8,4.4,3.3,9,4.7,13.6l28.4-12
			C3362.6,1854.5,3361.5,1851.3,3360.3,1848.1 M3344,1815.7l-27.3,14.1c2.7,4,5.1,8.1,7.4,12.3l25.2-17.7
			C3347.6,1821.6,3345.9,1818.6,3344,1815.7 M3321.4,1787.5l-23.8,19.5c3.4,3.4,6.7,6.9,9.8,10.5l21-22.5
			C3326.1,1792.5,3323.8,1790,3321.4,1787.5 M3293.4,1764.6l-19.2,24c4.1,2.6,8,5.3,11.8,8.3l15.9-26.4
			C3299.1,1768.4,3296.3,1766.5,3293.4,1764.6 M3261.3,1747.9l-13.8,27.5c4.5,1.7,8.9,3.5,13.2,5.7l10-29.1
			C3267.6,1750.5,3264.5,1749.2,3261.3,1747.9 M3226.4,1738.4l-7.8,29.8c4.8,0.7,9.5,1.6,14.1,2.8l3.8-30.6
			C3233.1,1739.6,3229.8,1739,3226.4,1738.4 M3190.2,1736.3l-1.4,30.7c3.1-0.2,6.3-0.3,9.5-0.3c1.6,0,3.2,0,4.9,0.1l-2.7-30.7
			l-2.2,0C3195.6,1736.1,3192.9,1736.2,3190.2,1736.3 M3154.5,1741.7l5,30.4c4.6-1.3,9.3-2.4,14-3.2l-9-29.4
			C3161.1,1740.1,3157.8,1740.9,3154.5,1741.7 M3120.6,1754.5l11.2,28.7c4.2-2.2,8.6-4.3,13-6.1l-14.9-26.9
			C3126.8,1751.5,3123.7,1753,3120.6,1754.5 M3090.2,1774.1l16.9,25.7c3.7-3.1,7.5-6,11.5-8.7l-20.2-23.2
			C3095.6,1769.9,3092.9,1772,3090.2,1774.1 M3064.5,1799.5l21.9,21.6c3-3.8,6.1-7.4,9.5-10.8l-24.6-18.5
			C3068.9,1794.3,3066.6,1796.9,3064.5,1799.5 M3044.6,1829.7l25.9,16.6c2.1-4.3,4.5-8.5,7-12.6l-27.9-13
			C3047.8,1823.7,3046.1,1826.7,3044.6,1829.7 M3031.4,1863.4l28.8,10.9c1.2-4.7,2.6-9.3,4.2-13.8l-30-6.9
			C3033.3,1856.9,3032.3,1860.1,3031.4,1863.4 M3025.6,1899.2l30.4,4.6c0.2-4.8,0.6-9.6,1.3-14.3l-30.8-0.6
			C3026.1,1892.3,3025.8,1895.7,3025.6,1899.2 M3027.2,1935.3l30.7-1.8c-0.8-4.7-1.4-9.5-1.7-14.3l-30.2,5.9
			C3026.3,1928.5,3026.7,1931.9,3027.2,1935.3 M3036.4,1970.3l29.7-8.1c-1.8-4.4-3.3-9-4.7-13.6l-28.4,12
			C3034.1,1963.9,3035.2,1967.1,3036.4,1970.3 M3052.7,2002.6l27.3-14.1c-2.7-4-5.1-8.1-7.4-12.3l-25.2,17.6
			C3049,1996.8,3050.8,1999.8,3052.7,2002.6 M3075.3,2030.9l23.8-19.5c-3.4-3.4-6.7-6.9-9.8-10.5l-21,22.5
			C3070.5,2025.9,3072.9,2028.4,3075.3,2030.9 M3103.3,2053.8l19.2-24c-4.1-2.6-8-5.3-11.8-8.3l-15.9,26.4
			C3097.6,2050,3100.4,2051.9,3103.3,2053.8 M3135.4,2070.4l13.8-27.5c-4.5-1.7-8.9-3.6-13.2-5.6l-10,29.1
			C3129,2067.9,3132.2,2069.2,3135.4,2070.4 M3170.3,2080l7.8-29.8c-4.8-0.7-9.5-1.6-14.1-2.8l-3.8,30.6
			C3163.5,2078.8,3166.9,2079.4,3170.3,2080 M3206.4,2082.1c-2.7,0.1-5.4,0.2-8.1,0.2l-2.2,0l-2.7-30.7c1.6,0.1,3.2,0.1,4.9,0.1
			c3.2,0,6.4-0.1,9.5-0.3L3206.4,2082.1"/>
		<path id="path2694" class="st7" d="M3198.3,2004.9c52.9,0,95.7-42.9,95.7-95.7c0-52.8-42.9-95.7-95.7-95.7
			c-52.9,0-95.7,42.9-95.7,95.7C3102.6,1962,3145.5,2004.9,3198.3,2004.9"/>
		<path id="path2696" class="st12" d="M3198.3,1988.2c43.6,0,79-35.4,79-79c0-43.6-35.4-79-79-79c-43.6,0-79,35.4-79,79
			C3119.3,1952.8,3154.7,1988.2,3198.3,1988.2"/>
		<path id="path2698" class="st7" d="M3198.3,1942.1c18.2,0,32.9-14.7,32.9-32.9c0-18.2-14.7-32.9-32.9-32.9
			c-18.2,0-32.9,14.7-32.9,32.9C3165.4,1927.3,3180.2,1942.1,3198.3,1942.1"/>
		<path id="path2700" class="st7" d="M3198.3,1960.7c2.8,0,5.1-2.3,5.1-5.1c0-2.8-2.3-5.1-5.1-5.1c-2.8,0-5.1,2.3-5.1,5.1
			C3193.2,1958.4,3195.5,1960.7,3198.3,1960.7"/>
		<path id="path2702" class="st7" d="M3228.6,1950.9c2.3-1.7,2.8-4.8,1.1-7.1c-1.6-2.3-4.8-2.8-7.1-1.1c-2.3,1.7-2.8,4.8-1.1,7.1
			C3223.2,1952,3226.4,1952.5,3228.6,1950.9"/>
		<path id="path2704" class="st7" d="M3247.3,1925.1c0.9-2.7-0.6-5.5-3.3-6.4c-2.7-0.9-5.5,0.6-6.4,3.3c-0.9,2.7,0.6,5.5,3.3,6.4
			C3243.6,1929.2,3246.5,1927.8,3247.3,1925.1"/>
		<path id="path2706" class="st7" d="M3247.3,1893.3c-0.9-2.7-3.7-4.1-6.4-3.3c-2.7,0.9-4.1,3.7-3.3,6.4c0.9,2.7,3.7,4.1,6.4,3.3
			C3246.8,1898.8,3248.2,1895.9,3247.3,1893.3"/>
		<path id="path2708" class="st7" d="M3228.6,1867.5c-2.3-1.6-5.4-1.1-7.1,1.1c-1.7,2.3-1.1,5.4,1.1,7.1c2.3,1.6,5.4,1.2,7.1-1.1
			C3231.4,1872.3,3230.9,1869.1,3228.6,1867.5"/>
		<path id="path2710" class="st7" d="M3198.3,1857.7c-2.8,0-5.1,2.3-5.1,5.1c0,2.8,2.3,5.1,5.1,5.1c2.8,0,5.1-2.3,5.1-5.1
			C3203.4,1859.9,3201.1,1857.7,3198.3,1857.7"/>
		<path id="path2712" class="st7" d="M3168,1867.5c-2.3,1.7-2.8,4.8-1.1,7.1c1.6,2.3,4.8,2.8,7.1,1.1c2.3-1.6,2.8-4.8,1.1-7.1
			C3173.5,1866.3,3170.3,1865.8,3168,1867.5"/>
		<path id="path2714" class="st7" d="M3149.3,1893.3c-0.9,2.7,0.6,5.5,3.3,6.4c2.7,0.9,5.5-0.6,6.4-3.3c0.9-2.7-0.6-5.5-3.3-6.4
			C3153.1,1889.1,3150.2,1890.6,3149.3,1893.3"/>
		<path id="path2716" class="st7" d="M3149.3,1925.1c0.9,2.7,3.7,4.1,6.4,3.3c2.7-0.9,4.1-3.7,3.3-6.4c-0.9-2.7-3.7-4.1-6.4-3.3
			C3149.9,1919.6,3148.5,1922.4,3149.3,1925.1"/>
		<path id="path2718" class="st7" d="M3168,1950.9c2.3,1.7,5.4,1.1,7.1-1.1c1.6-2.3,1.1-5.4-1.1-7.1c-2.3-1.7-5.4-1.2-7.1,1.1
			C3165.3,1946,3165.8,1949.2,3168,1950.9"/>
		<path id="path2720" class="st17" d="M3190.2,1737.1c-8.7,0.4-17.2,1.4-25.5,3.1l0,0C3173,1738.5,3181.5,1737.5,3190.2,1737.1
			L3190.2,1737.1 M3154.6,1742.5c-8.4,2.2-16.5,5-24.3,8.4l0,0C3138.1,1747.5,3146.2,1744.7,3154.6,1742.5L3154.6,1742.5
			 M3120.9,1755.2c-7.7,3.9-15,8.3-22,13.2l0,0C3105.9,1763.5,3113.2,1759.1,3120.9,1755.2L3120.9,1755.2 M3090.6,1774.7
			c-1.1,0.9-2.2,1.8-3.3,2.7C3088.4,1776.5,3089.5,1775.6,3090.6,1774.7L3090.6,1774.7 M3087.9,2041.5c2.4,2,4.8,3.9,7.3,5.8l0,0
			C3092.8,2045.4,3090.3,2043.5,3087.9,2041.5 M3103.7,2053.2L3103.7,2053.2c7.1,4.7,14.6,8.9,22.5,12.5l0,0
			C3118.4,2062.1,3110.9,2057.9,3103.7,2053.2 M3135.7,2069.8L3135.7,2069.8c7.9,3.1,16.1,5.6,24.6,7.5l0,0
			C3151.9,2075.4,3143.7,2072.8,3135.7,2069.8 M3170.5,2079.2L3170.5,2079.2c8.3,1.3,16.9,2.1,25.6,2.2l0,0
			C3187.4,2081.4,3178.8,2080.6,3170.5,2079.2"/>
		<path id="path2722" class="st13" d="M3190.2,1737.1c-8.7,0.4-17.2,1.4-25.5,3.1l7.2,23.6c5.6-1,11.3-1.7,17.1-2.1L3190.2,1737.1
			 M3154.6,1742.5c-8.4,2.2-16.5,5-24.3,8.4l12,21.6c5.3-2.2,10.7-4,16.3-5.6L3154.6,1742.5 M3120.9,1755.2c-7.7,3.9-15,8.3-22,13.2
			l16.2,18.6c4.7-3.2,9.7-6.2,14.8-8.9L3120.9,1755.2 M3090.6,1774.7c-1.1,0.9-2.2,1.8-3.3,2.7c-5.5,4.6-10.7,9.6-15.5,14.8
			l19.7,14.9c4-4.2,8.2-8.1,12.6-11.8L3090.6,1774.7 M3065,1800.1c-5.4,6.6-10.4,13.6-14.8,21l22.4,10.4c3-4.9,6.4-9.6,9.9-14.1
			L3065,1800.1 M3045.2,1830.2c-3.9,7.6-7.3,15.5-10.1,23.6l24.1,5.6c2-5.4,4.2-10.8,6.8-15.9L3045.2,1830.2 M3032.1,1863.7
			c-2.2,8.2-3.9,16.6-4.9,25.2l24.7,0.4c0.8-5.8,1.9-11.4,3.3-16.9L3032.1,1863.7 M3026.3,1899.3c-0.2,3.3-0.3,6.6-0.3,9.9
			c0,5.3,0.2,10.6,0.7,15.8l24.2-4.7c-0.3-3.7-0.4-7.3-0.4-11.1c0-2.1,0-4.1,0.1-6.2L3026.3,1899.3 M3052.6,1933.8l-24.6,1.4
			c1.3,8.6,3.2,16.9,5.8,25.1l22.7-9.6C3054.9,1945.2,3053.6,1939.6,3052.6,1933.8 M3060.9,1963.6l-23.8,6.5
			c3.1,8.1,6.7,15.9,10.9,23.3l20.2-14.2C3065.5,1974.2,3063.1,1969,3060.9,1963.6 M3075.3,1991l-21.9,11.3
			c4.6,7.2,9.8,14.1,15.5,20.5l16.8-18.1C3081.9,2000.4,3078.4,1995.8,3075.3,1991 M3095,2014.7l-19.1,15.6
			c3.8,3.9,7.9,7.6,12.1,11.1c2.4,2,4.8,3.9,7.3,5.8l12.7-21.2C3103.4,2022.6,3099.1,2018.8,3095,2014.7 M3119.2,2033.9l-15.4,19.3
			c7.1,4.7,14.6,8.9,22.5,12.5l8-23.4C3129,2039.8,3124,2037,3119.2,2033.9 M3146.8,2047.7l-11.1,22.1c7.9,3.1,16.1,5.6,24.6,7.5
			l3-24.5C3157.7,2051.4,3152.2,2049.7,3146.8,2047.7 M3176.7,2055.4l-6.3,23.9c8.3,1.3,16.9,2.1,25.6,2.2l-2.1-24.6
			C3188.1,2056.7,3182.4,2056.2,3176.7,2055.4"/>
		<path id="path2724" class="st14" d="M3189.1,1761.7c-5.8,0.4-11.5,1-17.1,2.1l1.6,5.1c-4.8,0.8-9.4,1.9-14,3.2l-0.9-5.3
			c-5.6,1.6-11,3.4-16.3,5.6l2.6,4.7c-4.5,1.8-8.8,3.8-13,6.1l-1.9-5c-5.1,2.7-10.1,5.6-14.8,8.9l3.5,4c-4,2.7-7.8,5.6-11.5,8.7
			l-2.9-4.5c-4.4,3.7-8.7,7.6-12.6,11.8l4.3,3.2c-3.3,3.4-6.5,7.1-9.5,10.8l-3.8-3.7c-3.6,4.5-6.9,9.2-9.9,14.1l4.8,2.3
			c-2.5,4.1-4.9,8.2-7,12.6l-4.5-2.9c-2.6,5.1-4.8,10.4-6.8,15.9l5.2,1.2c-1.6,4.5-3,9.1-4.2,13.8l-5-1.9
			c-1.4,5.5-2.5,11.2-3.3,16.9l5.3,0.1c-0.7,4.7-1.1,9.5-1.3,14.3l-5.3-0.8c-0.1,2.1-0.1,4.1-0.1,6.2c0,3.7,0.1,7.4,0.4,11.1l5.2-1
			c0.3,4.8,0.9,9.6,1.7,14.3l-5.3,0.3c1,5.7,2.3,11.4,3.9,16.8l4.9-2.1c1.3,4.6,2.9,9.2,4.7,13.6l-5.1,1.4
			c2.1,5.4,4.6,10.6,7.3,15.6l4.4-3.1c2.3,4.2,4.7,8.4,7.4,12.3l-4.7,2.4c3.2,4.8,6.7,9.4,10.4,13.8l3.6-3.9
			c3.1,3.7,6.4,7.2,9.8,10.5l-4.1,3.4c4.1,4,8.5,7.8,13,11.3l2.7-4.6c3.8,3,7.7,5.7,11.8,8.3l-3.3,4.1c4.8,3.1,9.9,5.9,15.1,8.4
			l1.7-5c4.3,2.1,8.7,4,13.2,5.6l-2.4,4.7c5.4,2,10.9,3.7,16.5,5.1l0.6-5.3c4.6,1.1,9.3,2.1,14.1,2.8l-1.3,5.1
			c5.6,0.8,11.4,1.3,17.2,1.5l-0.5-5.3l0,0l0,0c1.6,0.1,3.2,0.1,4.9,0.1c0,0,0,0,0,0v-46.8c0,0,0,0,0,0c-52.9,0-95.7-42.9-95.7-95.7
			c0-52.8,42.9-95.7,95.7-95.7c0,0,0,0,0,0v-46.8c0,0,0,0,0,0c-3.2,0-6.4,0.1-9.5,0.3L3189.1,1761.7"/>
		<path id="path2726" class="st14" d="M3198.3,1736.9c-2.7,0-5.4,0.1-8.1,0.2l-1.2,24.6l-0.2,5.3c3.1-0.2,6.3-0.3,9.5-0.3
			c0,0,0,0,0,0L3198.3,1736.9L3198.3,1736.9 M3164.7,1740.2c-3.4,0.7-6.8,1.4-10.1,2.3l0,0l4,24.3l0.9,5.3c4.6-1.3,9.3-2.4,14-3.2
			l-1.6-5.1L3164.7,1740.2L3164.7,1740.2 M3130.3,1750.9c-3.2,1.4-6.3,2.8-9.4,4.4l9,23l1.9,5c4.2-2.2,8.6-4.3,13-6.1l-2.6-4.7
			L3130.3,1750.9L3130.3,1750.9 M3098.9,1768.5c-2.8,2-5.6,4.1-8.3,6.2l0,0l13.6,20.6l2.9,4.5c3.7-3.1,7.5-6,11.5-8.7l-3.5-4
			L3098.9,1768.5L3098.9,1768.5 M3071.8,1792.2c-2.3,2.5-4.6,5.1-6.8,7.8l17.5,17.3l3.8,3.7c3-3.8,6.1-7.4,9.5-10.8l-4.3-3.2
			L3071.8,1792.2 M3050.2,1821.1c-1.8,3-3.4,6-5,9.1l20.8,13.3l4.5,2.9c2.1-4.3,4.5-8.5,7-12.6l-4.8-2.3L3050.2,1821.1
			 M3035.1,1853.8c-1.1,3.3-2.1,6.6-3,9.9l23.1,8.7l5,1.9c1.2-4.7,2.6-9.3,4.2-13.8l-5.2-1.2L3035.1,1853.8 M3027.2,1888.9
			c-0.4,3.4-0.7,6.9-0.9,10.3l24.4,3.7l5.3,0.8c0.2-4.8,0.6-9.6,1.3-14.3l-5.3-0.1L3027.2,1888.9 M3056.2,1919.2l-5.2,1l-24.2,4.7
			c0.3,3.5,0.7,6.9,1.2,10.3l24.6-1.4l5.3-0.3C3057.1,1928.8,3056.6,1924.1,3056.2,1919.2 M3061.4,1948.6l-4.9,2.1l-22.7,9.6
			c1,3.3,2.2,6.6,3.4,9.8l23.8-6.5l5.1-1.4C3064.3,1957.7,3062.7,1953.2,3061.4,1948.6 M3072.6,1976.2l-4.4,3.1l-20.2,14.2
			c1.7,3,3.5,6,5.3,8.9l21.9-11.3l4.7-2.4C3077.3,1984.5,3074.8,1980.4,3072.6,1976.2 M3089.3,2000.8l-3.6,3.9l-16.8,18.1
			c2.3,2.6,4.6,5.1,7.1,7.6l19.1-15.6l4.1-3.4C3095.6,2008,3092.4,2004.5,3089.3,2000.8 M3110.7,2021.5l-2.7,4.6l-12.7,21.2l0,0
			c2.8,2.1,5.6,4.1,8.5,6l0,0l15.4-19.3l3.3-4.1C3118.4,2027.2,3114.5,2024.5,3110.7,2021.5 M3136,2037.3l-1.7,5l-8,23.4l0,0
			c3.1,1.4,6.3,2.8,9.5,4.1l11.1-22.1l2.4-4.7C3144.7,2041.3,3140.3,2039.4,3136,2037.3 M3164,2047.5l-0.6,5.3l-3,24.5l0,0
			c3.4,0.8,6.8,1.4,10.2,2l6.3-23.9l1.3-5.1C3173.3,2049.5,3168.6,2048.6,3164,2047.5 M3193.5,2051.6l0.5,5.3l2.1,24.6l0,0
			c0.7,0,1.5,0,2.2,0h0v-29.8c0,0,0,0,0,0C3196.7,2051.7,3195.1,2051.6,3193.5,2051.6"/>
		<path id="path2728" class="st15" d="M3198.3,1813.5c-52.9,0-95.7,42.9-95.7,95.7c0,52.9,42.9,95.7,95.7,95.7c0,0,0,0,0,0v-16.7
			c0,0,0,0,0,0c-43.6,0-79-35.4-79-79c0-43.6,35.4-79,79-79c0,0,0,0,0,0L3198.3,1813.5C3198.3,1813.5,3198.3,1813.5,3198.3,1813.5"
			/>
		<path id="path2730" class="st16" d="M3198.3,1830.2c-43.6,0-79,35.4-79,79c0,43.7,35.4,79,79,79c0,0,0,0,0,0v-27.5c0,0,0,0,0,0
			c-2.8,0-5.1-2.3-5.1-5.1c0-2.8,2.3-5.1,5.1-5.1c0,0,0,0,0,0v-8.5c0,0,0,0,0,0c-18.2,0-32.9-14.7-32.9-32.9
			c0-18.2,14.7-32.9,32.9-32.9c0,0,0,0,0,0v-8.5c-2.8,0-5.1-2.3-5.1-5.1c0-2.8,2.3-5.1,5.1-5.1L3198.3,1830.2
			C3198.3,1830.2,3198.3,1830.2,3198.3,1830.2 M3171,1876.7c-1.6,0-3.1-0.7-4.1-2.1c-1.7-2.3-1.1-5.4,1.1-7.1c0.9-0.6,1.9-1,3-1
			c1.6,0,3.1,0.7,4.1,2.1c1.6,2.3,1.1,5.5-1.1,7.1C3173.1,1876.4,3172.1,1876.7,3171,1876.7 M3154.2,1899.9c-0.5,0-1-0.1-1.6-0.2
			c-2.7-0.9-4.1-3.7-3.3-6.4c0.7-2.1,2.7-3.5,4.8-3.5c0.5,0,1,0.1,1.6,0.2c2.7,0.9,4.1,3.7,3.3,6.4
			C3158.3,1898.5,3156.3,1899.9,3154.2,1899.9 M3154.2,1928.6c-2.1,0-4.1-1.4-4.8-3.5c-0.9-2.7,0.6-5.5,3.3-6.4
			c0.5-0.2,1.1-0.2,1.6-0.2c2.1,0,4.1,1.4,4.8,3.5c0.9,2.7-0.6,5.5-3.3,6.4C3155.2,1928.5,3154.7,1928.6,3154.2,1928.6 M3171,1951.8
			c-1,0-2.1-0.3-3-1c-2.3-1.6-2.8-4.8-1.1-7.1c1-1.4,2.5-2.1,4.1-2.1c1,0,2.1,0.3,3,1c2.3,1.6,2.8,4.8,1.1,7.1
			C3174.1,1951.1,3172.6,1951.8,3171,1951.8"/>
		<path id="path2732" class="st15" d="M3198.3,1876.3c-18.2,0-32.9,14.7-32.9,32.9c0,18.2,14.7,32.9,32.9,32.9c0,0,0,0,0,0
			L3198.3,1876.3C3198.3,1876.3,3198.3,1876.3,3198.3,1876.3"/>
		<path id="path2734" class="st15" d="M3198.3,1950.6c-2.8,0-5.1,2.3-5.1,5.1c0,2.8,2.3,5.1,5.1,5.1c0,0,0,0,0,0L3198.3,1950.6
			C3198.3,1950.6,3198.3,1950.6,3198.3,1950.6"/>
		<path id="path2736" class="st15" d="M3198.3,1857.7c-2.8,0-5.1,2.3-5.1,5.1c0,2.8,2.3,5.1,5.1,5.1V1857.7"/>
		<path id="path2738" class="st15" d="M3171,1866.5c-1,0-2.1,0.3-3,1c-2.3,1.7-2.8,4.8-1.1,7.1c1,1.4,2.5,2.1,4.1,2.1
			c1,0,2.1-0.3,3-1c2.3-1.6,2.8-4.8,1.1-7.1C3174.2,1867.2,3172.6,1866.5,3171,1866.5"/>
		<path id="path2740" class="st15" d="M3154.2,1889.7c-2.1,0-4.1,1.4-4.8,3.5c-0.9,2.7,0.6,5.5,3.3,6.4c0.5,0.2,1,0.2,1.6,0.2
			c2.1,0,4.1-1.4,4.8-3.5c0.9-2.7-0.6-5.5-3.3-6.4C3155.2,1889.8,3154.7,1889.7,3154.2,1889.7"/>
		<path id="path2742" class="st15" d="M3154.2,1918.5c-0.5,0-1.1,0.1-1.6,0.2c-2.7,0.9-4.1,3.7-3.3,6.4c0.7,2.1,2.7,3.5,4.8,3.5
			c0.5,0,1-0.1,1.6-0.2c2.7-0.9,4.1-3.7,3.3-6.4C3158.3,1919.8,3156.3,1918.5,3154.2,1918.5"/>
		<path id="path2744" class="st15" d="M3171,1941.7c-1.6,0-3.1,0.7-4.1,2.1c-1.7,2.3-1.1,5.4,1.1,7.1c0.9,0.6,1.9,1,3,1
			c1.6,0,3.1-0.7,4.1-2.1c1.6-2.3,1.1-5.4-1.1-7.1C3173.1,1942,3172.1,1941.7,3171,1941.7"/>
	</g>
</g>
</svg>
