<?xml version="1.0" encoding="utf-8"?>
<!-- Generator: Adobe Illustrator 27.5.0, SVG Export Plug-In . SVG Version: 6.00 Build 0)  -->
<svg version="1.1" xmlns="http://www.w3.org/2000/svg" xmlns:xlink="http://www.w3.org/1999/xlink" x="0px" y="0px"
	 viewBox="0 0 800 800" style="enable-background:new 0 0 800 800;" xml:space="preserve">
<style type="text/css">
	
		.st0{clip-path:url(#SVGID_00000009587718267886204790000003933974570091356315_);fill:url(#SVGID_00000168804818326849335610000013567616399159112111_);}
	.st1{fill:#8CB347;}
	.st2{fill:#603E2A;}
</style>

<g id="OBJECTS">
	<g>
		<g>
			<path class="st1" d="M452.5,450.8c-3-5.2-0.6-9.8,5.4-9.8h1.2c6,0,8.5-3.9,5.4-9.1l-14.6-25c-3-5.2-1.6-9.4,3.2-9.4
				c4.8,0,6.2-4.2,3.2-9.4l-13.1-22.5c-3-5.2-8-13.7-11-18.9l-13.1-22.5c-3-5.2-8-5.2-11,0l-13.1,22.5c-3,5.2-8,13.7-11,18.9
				l-13.1,22.5c-3,5.2-1.6,9.5,3.2,9.5c4.8,0,6.2,4.3,3.2,9.5l-14.6,24.9c-3,5.2-0.6,9.1,5.4,9.1h1.2c6,0,8.5,4.6,5.4,9.8l-21,36.5
				c-3,5.2-0.6,9.8,5.4,9.8h43.4c6,0,15.9,0,21.9,0H468c6,0,8.5-4.5,5.4-9.8L452.5,450.8z"/>
			<path class="st1" d="M414.1,320.2c-2.1-0.2-4.3,1.1-5.9,3.9l-13.1,22.5c-3,5.2-8,13.7-11,18.9l-13.1,22.5c-3,5.2-1.6,9.5,3.2,9.5
				c4.8,0,6.2,4.3,3.2,9.5l-14.6,25c-3,5.2-0.6,9.3,5.4,9.3h1.2c6,0,8.5,4.4,5.4,9.6l-21,36.4c-3,5.2-0.6,9.7,5.4,9.7h54.8V320.2z"
				/>
		</g>
		<g>
			<g>
				<line class="st1" x1="412.1" y1="521.5" x2="412.1" y2="387.5"/>
				<polygon class="st2" points="400.1,521.5 410.1,387.5 414.1,387.5 424.1,521.5 400.1,521.5 				"/>
			</g>
			<g>
				<line class="st1" x1="413.7" y1="456" x2="429.4" y2="440.2"/>
				<polygon class="st2" points="410.1,452.4 428.8,439.6 430,440.8 417.2,459.5 410.1,452.4 				"/>
			</g>
			<g>
				<line class="st1" x1="413.7" y1="478" x2="398" y2="462.2"/>
				<polygon class="st2" points="410.1,481.5 397.4,462.8 398.5,461.6 417.2,474.4 410.1,481.5 				"/>
			</g>
			<g>
				<line class="st1" x1="413.7" y1="433" x2="398" y2="417.2"/>
				<polygon class="st2" points="410.1,436.5 397.4,417.8 398.5,416.6 417.2,429.4 410.1,436.5 				"/>
			</g>
		</g>
	</g>
</g>
<g id="DESIGNED_BY_FREEPIK">
</g>
</svg>
